<?xml version="1.0" encoding="UTF-8"?>
<svg version="1.1" xmlns="http://www.w3.org/2000/svg" width="512" height="512">
<path d="M0 0 C1.48272304 0.30969847 2.96564446 0.61844847 4.44874573 0.92633057 C8.44670977 1.75930651 12.44163212 2.60607541 16.43602681 3.45598125 C20.63391035 4.34722219 24.83415072 5.22722847 29.03404236 6.10894775 C36.0839335 7.59085425 43.13187089 9.08178161 50.17871094 10.578125 C58.30425781 12.30340618 66.43273533 14.01428619 74.56293684 15.7174871 C82.41196315 17.36214074 90.25878533 19.01708842 98.10467339 20.67664337 C101.43106069 21.3800485 104.75816813 22.0798866 108.08592415 22.7767868 C112.0103798 23.59912987 115.93281369 24.43052766 119.85391808 25.26869965 C121.28585247 25.57331414 122.71843131 25.87491868 124.15171051 26.17314148 C137.50575205 28.95541895 149.46487193 31.66654202 157.32397461 43.61035156 C159.50553193 47.05279324 161.59466318 50.54924066 163.68774414 54.04589844 C165.62327057 57.21840425 167.68877149 60.29735025 169.76928711 63.37597656 C175.37208079 71.70859248 180.83087045 80.13284854 186.29223633 88.55859375 C188.96901187 92.68721968 191.65023652 96.81295099 194.33178711 100.93847656 C195.13024048 102.16703369 195.13024048 102.16703369 195.94482422 103.42041016 C202.60361623 113.66333049 209.28081484 123.89424944 215.95678711 134.12597656 C231.88425802 158.53673345 231.88425802 158.53673345 239.02124023 169.53735352 C241.99937469 174.12527798 244.99100762 178.70392863 247.99584961 183.27441406 C249.01582031 184.82902344 249.01582031 184.82902344 250.05639648 186.41503906 C251.3753362 188.4246097 252.69682318 190.43251156 254.02124023 192.43847656 C254.62129883 193.35371094 255.22135742 194.26894531 255.83959961 195.21191406 C256.36956543 196.01677246 256.89953125 196.82163086 257.44555664 197.65087891 C259.12462176 200.40085665 260.5303105 203.23830375 261.95678711 206.12597656 C263.19991669 206.12962219 264.44304626 206.13326782 265.72384644 206.13702393 C277.46437068 206.17403572 289.20463413 206.23187624 300.94495964 206.3098793 C306.98016286 206.34931419 313.01522104 206.38152241 319.05053711 206.39697266 C324.87976101 206.41216523 330.70858605 206.44665767 336.53763199 206.49428558 C338.75661875 206.50907244 340.97566247 206.51701602 343.19469833 206.51786041 C346.31357629 206.52023987 349.43136069 206.54739929 352.55004883 206.58007812 C353.91275658 206.57253258 353.91275658 206.57253258 355.30299377 206.56483459 C363.54021693 206.69754197 370.78408891 208.80002412 376.89428711 214.50097656 C382.98164198 221.20422851 384.08532555 227.67391295 384.0703125 236.48657227 C384.07045853 237.20906662 384.07060455 237.93156097 384.070755 238.6759491 C384.07006133 241.05124978 384.06229456 243.42647092 384.05444336 245.80175781 C384.05257724 247.45370948 384.05115425 249.10566171 384.05015564 250.75761414 C384.04634572 255.09605448 384.0365285 259.43446112 384.02545166 263.77288818 C384.01340167 268.98337355 384.00882803 274.19387021 384.00299835 279.40436554 C383.9933159 287.31159263 383.97414868 295.21874581 383.95678711 303.12597656 C362.50678711 303.12597656 341.05678711 303.12597656 318.95678711 303.12597656 C318.95678711 307.08597656 318.95678711 311.04597656 318.95678711 315.12597656 C320.33350586 315.09117187 321.71022461 315.05636719 323.12866211 315.02050781 C338.66819826 314.73802215 350.9494746 315.05127085 362.95678711 326.12597656 C369.32020969 333.11275482 371.22588189 341.38314985 372.39428711 350.56347656 C370.99911934 361.92412844 367.14025938 371.06513438 358.26928711 378.37597656 C350.29973938 383.83389911 341.97556979 385.72737936 332.44482422 385.63391113 C330.94778788 385.64327108 330.94778788 385.64327108 329.42050838 385.65282011 C326.10813534 385.66865326 322.79650811 385.65618364 319.48413086 385.64355469 C317.09644139 385.64898009 314.70875526 385.65610509 312.32107544 385.66479492 C306.52821033 385.68109608 300.7355784 385.67877227 294.94270635 385.66714436 C290.2314708 385.65808203 285.52029329 385.65689808 280.80905151 385.66123962 C280.13652971 385.66185256 279.46400791 385.66246549 278.77110666 385.66309699 C277.40455856 385.664376 276.03801048 385.66567285 274.67146242 385.66698736 C261.88076552 385.67837226 249.09018362 385.66531239 236.29950559 385.64378589 C225.34308616 385.62591678 214.3868363 385.62902148 203.43041992 385.64746094 C190.6830609 385.66890472 177.93580246 385.67727382 165.18842793 385.66501188 C163.8271262 385.66373779 162.46582446 385.66248031 161.10452271 385.66123962 C160.10004739 385.66031397 160.10004739 385.66031397 159.07527965 385.65936962 C154.37396339 385.65592721 149.67271134 385.66172101 144.97140503 385.67115784 C138.63471774 385.68274228 132.29834957 385.67464272 125.96169662 385.65158081 C123.64100549 385.64630765 121.32028734 385.64778352 118.99960709 385.65663147 C115.82229644 385.66762536 112.6459969 385.65377628 109.46875 385.63391113 C108.55890319 385.64283402 107.64905638 385.65175691 106.71163845 385.66095018 C97.02247659 385.54411806 88.4266595 382.40295356 80.96459961 376.18457031 C74.13398438 369.18119633 70.68416766 360.65439062 70.58178711 350.93847656 C70.78674355 339.91397733 73.62835091 332.34448141 81.32006836 324.36035156 C91.12471773 316.05181906 101.0114796 314.96014495 113.33178711 315.06347656 C114.86512695 315.07024414 114.86512695 315.07024414 116.42944336 315.07714844 C118.93858334 315.08887339 121.44769296 315.10680691 123.95678711 315.12597656 C123.95678711 311.16597656 123.95678711 307.20597656 123.95678711 303.12597656 C102.50678711 303.12597656 81.05678711 303.12597656 58.95678711 303.12597656 C57.38710765 262.42047252 62.52797559 226.34636875 70.48018038 186.7141304 C72.08281562 178.71576614 73.62612223 170.70624182 75.1672591 162.69584179 C77.56116619 150.26246794 79.98380872 137.8349359 82.45654297 125.41699219 C82.69606689 124.20814865 82.93559082 122.99930511 83.18237305 121.75382996 C83.40251572 120.65384171 83.62265839 119.55385345 83.84947205 118.42053223 C84.04028319 117.46450356 84.23109434 116.50847488 84.42768764 115.52347565 C84.95678711 113.12597656 84.95678711 113.12597656 85.95678711 110.12597656 C103.28178711 109.63097656 103.28178711 109.63097656 120.95678711 109.12597656 C118.32836305 103.94820338 118.32836305 103.94820338 115.69116211 98.77490234 C115.36631836 98.13020996 115.04147461 97.48551758 114.70678711 96.82128906 C114.37163086 96.1614502 114.03647461 95.50161133 113.69116211 94.82177734 C112.95678711 93.12597656 112.95678711 93.12597656 112.95678711 91.12597656 C111.82120361 90.90917236 110.68562012 90.69236816 109.515625 90.46899414 C101.85549662 88.76056659 94.45390732 86.11231351 87.01538086 83.63769531 C85.36277334 83.09160783 83.71002506 82.54594613 82.05714417 82.00068665 C77.71708186 80.5678982 73.37868796 79.13012637 69.04071045 77.69104004 C62.12556016 75.39795139 55.20783171 73.11265188 48.29020882 70.8270359 C45.90167529 70.03710059 43.51381964 69.24514598 41.12608337 68.45280457 C31.43380885 65.24157726 21.71261979 62.13860523 11.95678711 59.12597656 C11.75066299 60.48893356 11.75066299 60.48893356 11.54037476 61.87942505 C11.07612512 64.46208828 10.54265446 66.63769274 9.61938477 69.07080078 C9.34510651 69.80196106 9.07082825 70.53312134 8.78823853 71.28643799 C8.33413101 72.4715799 8.33413101 72.4715799 7.87084961 73.68066406 C7.5469223 74.53972351 7.222995 75.39878296 6.88925171 76.28387451 C6.17380015 78.17920418 5.45579239 80.07357037 4.7355957 81.96710205 C3.54781859 85.09029486 2.36674071 88.21595188 1.18725586 91.34228516 C-0.58246829 96.0320413 -2.35465048 100.72085904 -4.12817383 105.40917969 C-8.6044896 117.24725689 -13.04758772 129.09783439 -17.49147415 140.9481144 C-19.19760595 145.49762633 -20.90532734 150.04653746 -22.61424637 154.59500313 C-28.6126004 170.56244567 -34.5786166 186.54096571 -40.46807098 202.54893112 C-41.3714697 205.00354494 -42.27600283 207.45773745 -43.18096924 209.91177368 C-43.47518894 210.70968763 -43.76940865 211.50760159 -44.0725441 212.32969475 C-44.65989293 213.92253028 -45.24728222 215.51535089 -45.83471298 217.1081562 C-47.53754321 221.72793163 -49.2320525 226.35065355 -50.92046165 230.97571754 C-51.96693912 233.83675276 -53.02078549 236.69503374 -54.07652664 239.5526619 C-54.56132254 240.86978584 -55.04298783 242.18806729 -55.52116013 243.50761032 C-59.58405131 254.7130058 -59.58405131 254.7130058 -62.79980469 259.41577148 C-65.54201491 263.51276333 -65.96747669 267.19391149 -66.16430664 272.05175781 C-66.22881012 273.2899678 -66.22881012 273.2899678 -66.2946167 274.55319214 C-66.40312061 277.18287643 -66.45430663 279.80673289 -66.48071289 282.43847656 C-66.49091461 283.32814117 -66.50111633 284.21780579 -66.5116272 285.13442993 C-66.87476049 296.82312912 -66.87476049 296.82312912 -61.68383789 306.71191406 C-57.97090255 309.27108834 -53.90264698 310.73113293 -49.6394043 312.1328125 C-45.12857913 313.8584131 -41.37521732 316.71437514 -37.41821289 319.43847656 C-16.84734687 332.69586279 4.02405613 335.2508649 27.95678711 330.12597656 C24.14064957 348.5903936 16.61885913 364.30719684 0.51928711 375.06347656 C-15.88345744 384.6570932 -33.26324296 388.05264288 -51.85571289 383.56347656 C-70.23635822 377.93354571 -83.00259576 366.7946144 -92.04321289 350.12597656 C-93.70292715 346.51892711 -94.98925629 342.95166432 -96.04321289 339.12597656 C-96.2662207 338.330625 -96.48922852 337.53527344 -96.71899414 336.71582031 C-100.0666702 322.71023681 -98.61171019 307.07736077 -91.43383789 294.50488281 C-88.19918555 288.22954951 -88.34072106 282.24874761 -88.48071289 275.31347656 C-88.46975586 274.11271484 -88.45879883 272.91195313 -88.44750977 271.67480469 C-88.50142123 265.22340004 -88.61429476 262.05697134 -93.04321289 257.12597656 C-95.35483405 251.34692366 -93.92767118 244.75799551 -92.55981445 238.91381836 C-92.39939069 238.2186313 -92.23896692 237.52344423 -92.07368183 236.8071909 C-91.53431881 234.47810655 -90.98403282 232.15174268 -90.43383789 229.82519531 C-90.03868007 228.12872395 -89.64424687 226.43208366 -89.25047302 224.73529053 C-88.39278163 221.04526675 -87.53047911 217.35636055 -86.66488647 213.66818237 C-85.27384228 207.73797483 -83.89730219 201.80445599 -82.52294922 195.87036133 C-77.98207458 176.27740867 -73.41292384 156.69113413 -68.81897902 137.11056173 C-66.06310721 125.36299846 -63.32266815 113.61189588 -60.59324837 101.85815907 C-58.85592503 94.37964876 -57.10583208 86.90435363 -55.33932012 79.43268335 C-53.96902276 73.63158037 -52.61984437 67.82568741 -51.27778816 62.01798248 C-50.72193251 59.62771853 -50.15931538 57.23901466 -49.58923149 54.85210419 C-45.54901801 38.09193714 -45.54901801 38.09193714 -45.11944866 20.94229031 C-45.54813148 14.1350649 -43.01160991 9.40517311 -38.66821289 4.37597656 C-26.56643291 -5.99697771 -14.69470943 -3.15354641 0 0 Z " fill="#FED047" transform="translate(113.043212890625,64.8740234375)"/>
<path d="M0 0 C1.48272304 0.30969847 2.96564446 0.61844847 4.44874573 0.92633057 C8.44670977 1.75930651 12.44163212 2.60607541 16.43602681 3.45598125 C20.63391035 4.34722219 24.83415072 5.22722847 29.03404236 6.10894775 C36.0839335 7.59085425 43.13187089 9.08178161 50.17871094 10.578125 C58.30425781 12.30340618 66.43273533 14.01428619 74.56293684 15.7174871 C82.41196315 17.36214074 90.25878533 19.01708842 98.10467339 20.67664337 C101.43106069 21.3800485 104.75816813 22.0798866 108.08592415 22.7767868 C112.0103798 23.59912987 115.93281369 24.43052766 119.85391808 25.26869965 C121.28585247 25.57331414 122.71843131 25.87491868 124.15171051 26.17314148 C137.50575205 28.95541895 149.46487193 31.66654202 157.32397461 43.61035156 C159.50553193 47.05279324 161.59466318 50.54924066 163.68774414 54.04589844 C165.62327057 57.21840425 167.68877149 60.29735025 169.76928711 63.37597656 C175.37208079 71.70859248 180.83087045 80.13284854 186.29223633 88.55859375 C188.96901187 92.68721968 191.65023652 96.81295099 194.33178711 100.93847656 C195.13024048 102.16703369 195.13024048 102.16703369 195.94482422 103.42041016 C202.60361623 113.66333049 209.28081484 123.89424944 215.95678711 134.12597656 C232.65616582 159.71977461 232.65616582 159.71977461 239.02124023 169.53955078 C241.9923494 174.11985809 244.98387788 178.68569771 247.99584961 183.23925781 C249.01582031 184.78709961 249.01582031 184.78709961 250.05639648 186.36621094 C251.37344986 188.36401706 252.69483596 190.35897589 254.02124023 192.35058594 C257.18330868 197.1565224 259.92085108 201.73891955 261.95678711 207.12597656 C260.95678711 208.12597656 260.95678711 208.12597656 258.25498962 208.24623108 C257.04919754 208.24401047 255.84340546 208.24178986 254.60107422 208.23950195 C253.58985048 208.23968276 253.58985048 208.23968276 252.55819798 208.23986721 C250.36680919 208.2391183 248.17550451 208.23149111 245.98413086 208.22363281 C244.63488811 208.22216333 243.2856448 208.22114266 241.93640137 208.22058105 C236.92235461 208.21532896 231.90832004 208.20136787 226.89428711 208.18847656 C215.69491211 208.16785156 204.49553711 208.14722656 192.95678711 208.12597656 C192.95678711 176.11597656 192.95678711 144.10597656 192.95678711 111.12597656 C170.14413926 111.44249495 170.14413926 111.44249495 147.33300781 111.84667969 C142.91223145 111.8828125 142.91223145 111.8828125 140.8400116 111.88952637 C139.39836354 111.90177998 137.95679559 111.92985585 136.51567078 111.97058105 C124.3302161 112.29759916 124.3302161 112.29759916 120.92607117 109.39364624 C119.61230107 107.32778169 118.75378632 105.43337705 117.95678711 103.12597656 C117.4347168 102.16949219 116.91264648 101.21300781 116.37475586 100.22753906 C115.96870117 99.41027344 115.56264648 98.59300781 115.14428711 97.75097656 C114.51586914 96.501875 114.51586914 96.501875 113.87475586 95.22753906 C112.95678711 93.12597656 112.95678711 93.12597656 112.95678711 91.12597656 C111.82120361 90.90917236 110.68562012 90.69236816 109.515625 90.46899414 C101.85549662 88.76056659 94.45390732 86.11231351 87.01538086 83.63769531 C85.36277334 83.09160783 83.71002506 82.54594613 82.05714417 82.00068665 C77.71708186 80.5678982 73.37868796 79.13012637 69.04071045 77.69104004 C62.12556016 75.39795139 55.20783171 73.11265188 48.29020882 70.8270359 C45.90167529 70.03710059 43.51381964 69.24514598 41.12608337 68.45280457 C31.43380885 65.24157726 21.71261979 62.13860523 11.95678711 59.12597656 C11.75066299 60.48893356 11.75066299 60.48893356 11.54037476 61.87942505 C11.07612512 64.46208828 10.54265446 66.63769274 9.61938477 69.07080078 C9.34510651 69.80196106 9.07082825 70.53312134 8.78823853 71.28643799 C8.33413101 72.4715799 8.33413101 72.4715799 7.87084961 73.68066406 C7.5469223 74.53972351 7.222995 75.39878296 6.88925171 76.28387451 C6.17380015 78.17920418 5.45579239 80.07357037 4.7355957 81.96710205 C3.54781859 85.09029486 2.36674071 88.21595188 1.18725586 91.34228516 C-0.58246829 96.0320413 -2.35465048 100.72085904 -4.12817383 105.40917969 C-8.6044896 117.24725689 -13.04758772 129.09783439 -17.49147415 140.9481144 C-19.19760595 145.49762633 -20.90532734 150.04653746 -22.61424637 154.59500313 C-28.6126004 170.56244567 -34.5786166 186.54096571 -40.46807098 202.54893112 C-41.3714697 205.00354494 -42.27600283 207.45773745 -43.18096924 209.91177368 C-43.47518894 210.70968763 -43.76940865 211.50760159 -44.0725441 212.32969475 C-44.65989293 213.92253028 -45.24728222 215.51535089 -45.83471298 217.1081562 C-47.53754321 221.72793163 -49.2320525 226.35065355 -50.92046165 230.97571754 C-51.96693912 233.83675276 -53.02078549 236.69503374 -54.07652664 239.5526619 C-54.56132254 240.86978584 -55.04298783 242.18806729 -55.52116013 243.50761032 C-59.58405131 254.7130058 -59.58405131 254.7130058 -62.79980469 259.41577148 C-65.54201491 263.51276333 -65.96747669 267.19391149 -66.16430664 272.05175781 C-66.22881012 273.2899678 -66.22881012 273.2899678 -66.2946167 274.55319214 C-66.40312061 277.18287643 -66.45430663 279.80673289 -66.48071289 282.43847656 C-66.49091461 283.32814117 -66.50111633 284.21780579 -66.5116272 285.13442993 C-66.87476049 296.82312912 -66.87476049 296.82312912 -61.68383789 306.71191406 C-57.97090255 309.27108834 -53.90264698 310.73113293 -49.6394043 312.1328125 C-45.12857913 313.8584131 -41.37521732 316.71437514 -37.41821289 319.43847656 C-16.84734687 332.69586279 4.02405613 335.2508649 27.95678711 330.12597656 C24.14064957 348.5903936 16.61885913 364.30719684 0.51928711 375.06347656 C-15.88345744 384.6570932 -33.26324296 388.05264288 -51.85571289 383.56347656 C-70.23635822 377.93354571 -83.00259576 366.7946144 -92.04321289 350.12597656 C-93.70292715 346.51892711 -94.98925629 342.95166432 -96.04321289 339.12597656 C-96.2662207 338.330625 -96.48922852 337.53527344 -96.71899414 336.71582031 C-100.0666702 322.71023681 -98.61171019 307.07736077 -91.43383789 294.50488281 C-88.19918555 288.22954951 -88.34072106 282.24874761 -88.48071289 275.31347656 C-88.46975586 274.11271484 -88.45879883 272.91195313 -88.44750977 271.67480469 C-88.50142123 265.22340004 -88.61429476 262.05697134 -93.04321289 257.12597656 C-95.35483405 251.34692366 -93.92767118 244.75799551 -92.55981445 238.91381836 C-92.39939069 238.2186313 -92.23896692 237.52344423 -92.07368183 236.8071909 C-91.53431881 234.47810655 -90.98403282 232.15174268 -90.43383789 229.82519531 C-90.03868007 228.12872395 -89.64424687 226.43208366 -89.25047302 224.73529053 C-88.39278163 221.04526675 -87.53047911 217.35636055 -86.66488647 213.66818237 C-85.27384228 207.73797483 -83.89730219 201.80445599 -82.52294922 195.87036133 C-77.98207458 176.27740867 -73.41292384 156.69113413 -68.81897902 137.11056173 C-66.06310721 125.36299846 -63.32266815 113.61189588 -60.59324837 101.85815907 C-58.85592503 94.37964876 -57.10583208 86.90435363 -55.33932012 79.43268335 C-53.96902276 73.63158037 -52.61984437 67.82568741 -51.27778816 62.01798248 C-50.72193251 59.62771853 -50.15931538 57.23901466 -49.58923149 54.85210419 C-45.54901801 38.09193714 -45.54901801 38.09193714 -45.11944866 20.94229031 C-45.54813148 14.1350649 -43.01160991 9.40517311 -38.66821289 4.37597656 C-26.56643291 -5.99697771 -14.69470943 -3.15354641 0 0 Z " fill="#FED146" transform="translate(113.043212890625,64.8740234375)"/>
<path d="M0 0 C64.35 0 128.7 0 195 0 C195 3.96 195 7.92 195 12 C196.37671875 11.96519531 197.7534375 11.93039062 199.171875 11.89453125 C214.71141115 11.61204559 226.99268749 11.92529429 239 23 C245.36342258 29.98677826 247.26909478 38.25717329 248.4375 47.4375 C247.04233223 58.79815188 243.18347227 67.93915782 234.3125 75.25 C226.34295227 80.70792255 218.01878268 82.60140279 208.48803711 82.50793457 C206.99100077 82.51729451 206.99100077 82.51729451 205.46372128 82.52684355 C202.15134823 82.54267669 198.839721 82.53020708 195.52734375 82.51757812 C193.13965428 82.52300353 190.75196815 82.53012853 188.36428833 82.53881836 C182.57142322 82.55511952 176.77879129 82.5527957 170.98591924 82.5411678 C166.27468369 82.53210547 161.56350618 82.53092152 156.8522644 82.53526306 C156.1797426 82.53587599 155.5072208 82.53648893 154.81431955 82.53712043 C153.44777145 82.53839943 152.08122337 82.53969629 150.71467531 82.5410108 C137.92397841 82.5523957 125.13339651 82.53933582 112.34271848 82.51780933 C101.38629905 82.49994021 90.43004919 82.50304491 79.47363281 82.52148438 C66.72627379 82.54292816 53.97901536 82.55129726 41.23164082 82.53903532 C39.87033909 82.53776123 38.50903735 82.53650374 37.1477356 82.53526306 C36.14326028 82.53433741 36.14326028 82.53433741 35.11849254 82.53339306 C30.41717628 82.52995065 25.71592423 82.53574444 21.01461792 82.54518127 C14.67793063 82.55676572 8.34156246 82.54866616 2.00490952 82.52560425 C-0.31578162 82.52033108 -2.63649977 82.52180695 -4.95718002 82.53065491 C-8.13449066 82.5416488 -11.31079021 82.52779972 -14.48803711 82.50793457 C-15.39788392 82.51685746 -16.30773073 82.52578034 -17.24514866 82.53497362 C-26.93431051 82.41814149 -35.53012761 79.276977 -42.9921875 73.05859375 C-49.82280273 66.05521977 -53.27261945 57.52841405 -53.375 47.8125 C-53.17004356 36.78800077 -50.3284362 29.21850484 -42.63671875 21.234375 C-32.83206938 12.9258425 -22.94530751 11.83416839 -10.625 11.9375 C-9.09166016 11.94426758 -9.09166016 11.94426758 -7.52734375 11.95117188 C-5.01820377 11.96289683 -2.50909414 11.98083035 0 12 C0 8.04 0 4.08 0 0 Z " fill="#3E3E3E" transform="translate(237,368)"/>
<path d="M0 0 C0.76965088 0.32452148 1.53930176 0.64904297 2.33227539 0.98339844 C5.2260475 2.08614091 7.35374058 2.26749651 10.4375 2.25 C11.34371094 2.25515625 12.24992187 2.2603125 13.18359375 2.265625 C16.35237343 1.96676644 19.00295352 1.04366761 22 0 C21.93603027 1.1238208 21.87206055 2.2476416 21.80615234 3.40551758 C19.97564855 23.1139271 19.97564855 23.1139271 24.5078125 41.73339844 C28.4307134 45.62603004 33.25299988 47.29556072 38.41992188 49.00683594 C42.91984841 50.7390181 46.67280543 53.59422466 50.625 56.3125 C71.19676566 69.56911441 92.06644218 72.1250654 116 67 C112.18386246 85.46441704 104.66207202 101.18122028 88.5625 111.9375 C72.15975545 121.53111664 54.77996993 124.92666631 36.1875 120.4375 C17.80685467 114.80756915 5.04061713 103.66863783 -4 87 C-5.65971426 83.39295055 -6.9460434 79.82568776 -8 76 C-8.22300781 75.20464844 -8.44601563 74.40929687 -8.67578125 73.58984375 C-12.0266769 59.5707905 -10.54908984 43.9679815 -3.40625 31.3671875 C-0.21038487 25.18217556 -0.22186048 19.224189 -0.1875 12.375 C-0.16236328 11.18003906 -0.13722656 9.98507812 -0.11132812 8.75390625 C-0.05296211 5.83560542 -0.01631143 2.91878722 0 0 Z " fill="#4E4E4E" transform="translate(25,328)"/>
<path d="M0 0 C0.85049423 0.00222061 1.70098846 0.00444122 2.57725525 0.00672913 C4.01863609 0.00684242 4.01863609 0.00684242 5.48913574 0.00695801 C7.05630592 0.01469994 7.05630592 0.01469994 8.65513611 0.02259827 C9.71913132 0.02401321 10.78312653 0.02542816 11.87936401 0.02688599 C15.29293069 0.03250388 18.70643286 0.04505941 22.11997986 0.05775452 C24.42792162 0.06276721 26.73586441 0.06733052 29.04380798 0.07142639 C34.71505412 0.08247912 40.38626238 0.09923465 46.05747986 0.12025452 C46.26657466 11.16018631 46.42620854 22.19964248 46.52378941 33.24115562 C46.57063915 38.36905026 46.63411803 43.4955843 46.73643494 48.62269592 C46.83466853 53.57654179 46.88812926 58.52908438 46.91137505 63.4838295 C46.92792663 65.3681298 46.96025004 67.2523636 47.00905037 69.13610458 C47.42160065 85.7302095 47.42160065 85.7302095 41.70176697 92.14027405 C40.18440266 93.5019763 38.638733 94.83329454 37.05747986 96.12025452 C35.97522981 97.25803971 34.90761159 98.41038638 33.86997986 99.58900452 C32.93296901 100.59987482 31.99547357 101.61029616 31.05747986 102.62025452 C26.7832003 107.23631369 22.55108756 111.88651745 18.35435486 116.57337952 C16.64522823 118.46853354 14.92755534 120.35318723 13.19810486 122.22962952 C12.70769714 122.76193176 12.21728943 123.29423401 11.71202087 123.84266663 C10.32204174 125.34922914 8.93005363 126.85393741 7.53794861 128.35853577 C5.04395461 130.99274195 5.04395461 130.99274195 3.33702087 133.76234436 C1.05747986 136.12025452 1.05747986 136.12025452 -2.15052795 136.68788147 C-3.38641663 136.66169739 -4.6223053 136.63551331 -5.89564514 136.60853577 C-6.88597748 136.59792366 -6.88597748 136.59792366 -7.89631653 136.58709717 C-9.99622506 136.55920178 -12.09342393 136.49648739 -14.19252014 136.43275452 C-15.61956484 136.40766469 -17.04665152 136.38485269 -18.47377014 136.36439514 C-21.96422763 136.30939572 -25.45310925 136.22316364 -28.94252014 136.12025452 C-28.2765198 129.25797774 -27.16309869 122.57808631 -25.83314514 115.81556702 C-25.62595352 114.74620911 -25.4187619 113.6768512 -25.20529175 112.5750885 C-24.53750196 109.13119335 -23.86499957 105.68823668 -23.19252014 102.24525452 C-22.27812832 97.53723699 -21.36614664 92.82875373 -20.45423889 88.12025452 C-20.12153236 86.40493027 -20.12153236 86.40493027 -19.78210449 84.654953 C-18.14307872 76.19324557 -16.5514248 67.72436056 -15.00502014 59.24525452 C-13.65178589 51.82863362 -12.19229765 44.46038522 -10.55580139 37.10072327 C-9.90338277 33.93005188 -9.40877164 30.7608644 -8.94252014 27.55775452 C-4.94964992 0.30641523 -4.94964992 0.30641523 0 0 Z " fill="#414140" transform="translate(211.94252014160156,186.87974548339844)"/>
<path d="M0 0 C9.9 0 19.8 0 30 0 C30 28.38 30 56.76 30 86 C20.1 86 10.2 86 0 86 C0 57.62 0 29.24 0 0 Z " fill="#403F3E" transform="translate(265,187)"/>
<path d="M0 0 C7.17535739 4.30521443 11.84948722 8.5894564 14.125 16.875 C15.41596032 24.51115209 13.47493418 30.55178741 9.125 36.875 C4.782591 41.66253065 0.37434361 44.50619756 -6.14453125 45.24609375 C-15.20020565 45.41582524 -20.07408471 44.40680569 -26.6171875 38.23046875 C-32.07502653 32.44620394 -33.39288424 26.17658897 -33.1796875 18.359375 C-32.29338393 11.13259208 -28.28408602 6.86309959 -22.875 2.3203125 C-16.42819367 -2.33851239 -7.47591965 -2.87797362 0 0 Z " fill="#E3E3E3" transform="translate(285.875,393.125)"/>
<path d="M0 0 C6.22281725 3.67327465 11.18511567 9.25035975 13.44921875 16.125 C14.39906143 23.41449037 13.61077227 29.96961025 9.44921875 36.125 C4.93297 41.0561025 0.40174817 44.71036136 -6.41796875 45.42578125 C-15.16320538 45.4598536 -21.413233 43.91209367 -27.97265625 37.9140625 C-32.56859904 32.70381052 -34.31678537 26.54927171 -33.99609375 19.67578125 C-32.72337639 12.38556691 -29.02505098 6.83204108 -23.296875 2.28125 C-16.6391302 -2.12745797 -7.56930565 -2.59651526 0 0 Z " fill="#E3E3E3" transform="translate(228.55078125,392.875)"/>
<path d="M0 0 C6.47648731 3.5532096 11.50498498 8.87333775 13.70703125 16.046875 C15.04423332 23.13548385 13.72965445 30.01421047 9.7109375 35.99609375 C5.91706541 40.63087563 2.0366742 43.76691068 -3.9296875 44.97265625 C-11.07244215 45.63402242 -17.2866034 45.95549702 -23.21484375 41.53125 C-28.50499598 36.7231162 -32.41011517 32.2440877 -33.30078125 24.921875 C-33.45094807 17.54603423 -32.99321574 12.5298785 -27.9296875 6.97265625 C-19.98010948 -0.95917718 -11.16058987 -3.91364685 0 0 Z " fill="#E3E3E3" transform="translate(343.9296875,393.02734375)"/>
<path d="M0 0 C5.52370358 4.13401917 10.20459386 9.01217868 11.5625 15.9375 C12.24910328 23.34033168 11.71969213 29.87475663 7.05078125 35.8828125 C1.35881543 41.99687915 -3.61929056 44.070291 -11.875 44.375 C-18.63737228 44.18887966 -23.27566144 42.98616313 -28.18359375 38.25390625 C-34.20987538 31.53395191 -35.13746825 25.79400303 -34.87890625 16.9375 C-34.39954489 10.50594315 -31.3308554 6.50729737 -26.62109375 2.32421875 C-19.45936358 -3.16695665 -7.99160203 -4.71458147 0 0 Z " fill="#E4E4E4" transform="translate(461.4375,394.0625)"/>
<path d="M0 0 C6.39058105 3.45305369 10.63635733 8.1376115 13.06640625 15.01171875 C14.33012252 22.52944694 13.54940529 29.19080497 9.765625 35.84765625 C6.20887978 40.37739614 1.4805357 43.20700893 -3.93359375 45.01171875 C-11.24919197 45.72098728 -17.67202576 45.76533415 -23.9921875 41.71484375 C-28.41898714 37.83137364 -32.65350622 32.02466037 -33.20703125 26.0703125 C-33.42822395 18.18394197 -33.20663746 12.16780806 -27.93359375 6.01171875 C-19.99729868 -1.27608528 -10.50186837 -3.53791305 0 0 Z " fill="#E4E4E4" transform="translate(401.93359375,392.98828125)"/>
<path d="M0 0 C64.35 0 128.7 0 195 0 C195 2.31 195 4.62 195 7 C193.27979849 8.72020151 191.08691709 8.12234357 188.79333442 8.12908131 C187.66543773 8.12471205 187.66543773 8.12471205 186.51475525 8.12025452 C185.72169167 8.12110894 184.92862808 8.12196337 184.11153227 8.12284368 C181.43362604 8.1245009 178.75578139 8.11897319 176.07788086 8.11352539 C174.16642763 8.11324354 172.25497429 8.1134012 170.34352112 8.1139679 C165.13712541 8.11425597 159.93075252 8.10835761 154.72436213 8.10139394 C149.28975841 8.09516208 143.85515423 8.09455674 138.42054749 8.09336853 C128.12161242 8.09025472 117.82268792 8.08204066 107.52375752 8.07201904 C95.80207243 8.06085945 84.08038685 8.05534784 72.35869777 8.05032361 C48.23912598 8.03985808 24.11956358 8.02225768 0 8 C0 5.36 0 2.72 0 0 Z " fill="#5B5B5B" transform="translate(237,368)"/>
<path d="M0 0 C64.35 0 128.7 0 195 0 C194.67 1.32 194.34 2.64 194 4 C129.98 4 65.96 4 0 4 C0 2.68 0 1.36 0 0 Z " fill="#6F6F6F" transform="translate(237,368)"/>
<path d="M0 0 C0 1.65 0 3.3 0 5 C6.93 5 13.86 5 21 5 C21 5.33 21 5.66 21 6 C13.74 6 6.48 6 -1 6 C-1 5.34 -1 4.68 -1 4 C-65.02 4 -129.04 4 -195 4 C-195 3.01 -195 2.02 -195 1 C-169.72281186 0.86958498 -144.44562357 0.73919921 -119.1684351 0.60884857 C-107.43268387 0.54832839 -95.6969327 0.48779852 -83.96118164 0.42724609 C-73.73628179 0.37448916 -63.51138185 0.32175015 -53.2864818 0.26903296 C-47.86890083 0.24110054 -42.4513199 0.21315895 -37.03373909 0.18519592 C-31.94082208 0.15890894 -26.84790495 0.13264581 -21.75498772 0.10640144 C-19.88000356 0.09673515 -18.00501946 0.08705994 -16.1300354 0.07737541 C-13.58177197 0.06421461 -11.03350838 0.0510851 -8.48524475 0.03796387 C-7.73331362 0.03407292 -6.9813825 0.03018197 -6.20666558 0.02617311 C-1.11412121 0 -1.11412121 0 0 0 Z " fill="#4A4A4A" transform="translate(432,375)"/>
<path d="M0 0 C3.74888388 0.76140122 5.35449878 2.52124678 7.51953125 5.578125 C9.03716824 8.51261839 9.20723147 10.27952772 8.51953125 13.51171875 C6.47959217 17.16954055 5.01533863 19.18118049 1.51953125 21.51171875 C-3.45556644 22.0826316 -5.51771891 22.05435957 -9.91796875 19.57421875 C-13.21177933 15.63771342 -13.89495225 12.58683888 -13.48046875 7.51171875 C-10.71594656 1.0150916 -6.61625482 -0.12593164 0 0 Z " fill="#333333" transform="translate(452.48046875,404.48828125)"/>
<path d="M0 0 C2.82424288 2.19022918 4.41508603 3.83017207 6 7 C6.44408691 10.9079648 6.13704844 12.74548146 4.25 16.25 C1.0615021 20.14705298 -0.46231167 20.83225218 -5.4375 21.375 C-9.62750939 20.93394638 -11.093893 19.98913863 -14 17 C-16.28582634 13.73453379 -16.40058025 10.92568648 -16 7 C-12.54132553 -0.24674652 -7.49359153 -1.20710167 0 0 Z " fill="#656565" transform="translate(397,405)"/>
<path d="M0 0 C3 2.4375 3 2.4375 5 5 C5.33 5.33 5.66 5.66 6 6 C6.38270052 10.9751068 6.17088582 14.06372795 3 18 C0.07104403 20.35943675 -1.74681503 20.96835188 -5.5 21.4375 C-9.5691036 20.92886205 -11.13345069 19.86654931 -14 17 C-15.87576257 13.24847486 -15.65264335 9.07582168 -15 5 C-10.9857027 -0.14653499 -6.41183425 -1.52325344 0 0 Z " fill="#4A4A4A" transform="translate(339,405)"/>
<path d="M0 0 C2.87029869 1.79393668 4.49131638 2.98263276 6 6 C6.64330802 10.6777683 6.66351687 13.97261904 4.0625 18 C0.08578822 20.59703626 -3.24850522 21.59289302 -8 21 C-11.12656275 19.34246674 -13.39678118 17.20643764 -15 14 C-15.5811138 6.91041162 -15.5811138 6.91041162 -13.125 3.0625 C-9.2120691 -0.73534469 -5.24715458 -0.67968324 0 0 Z " fill="#323232" transform="translate(223,405)"/>
<path d="M0 0 C3.20267069 0.82136087 5.448146 2.4168886 7.96484375 4.50390625 C9.69354154 7.96130182 9.4545127 11.72366193 8.96484375 15.50390625 C7.17090707 18.37420494 5.98221099 19.99522263 2.96484375 21.50390625 C-0.09436199 21.92462217 -2.98193085 21.98904742 -6.03515625 21.50390625 C-9.92341229 18.42570355 -11.79984799 16.21829497 -12.47265625 11.31640625 C-11.96514361 6.89379607 -10.90115374 4.99683759 -7.87890625 1.83203125 C-5.21381471 -0.08773808 -3.22522161 -0.29095089 0 0 Z " fill="#5F5E5B" transform="translate(106.03515625,78.49609375)"/>
<path d="M0 0 C2.87029869 1.79393668 4.49131638 2.98263276 6 6 C6.49337839 10.93378393 6.52463704 13.06919235 4.0625 17.4375 C0.12092028 20.7355565 -2.92088934 21.40559141 -8 21 C-10.95478038 19.80551431 -12.37655368 18.80157384 -14.3125 16.3125 C-15.34258338 12.84767407 -15.5914722 9.54883321 -15 6 C-11.03690229 -0.20885308 -7.02452124 -0.90991208 0 0 Z " fill="#1C1C1C" transform="translate(281,405)"/>
<path d="M0 0 C0.83272934 0.00222061 1.66545868 0.00444122 2.52342224 0.00672913 C3.46432205 0.00680466 4.40522186 0.00688019 5.37463379 0.00695801 C6.39754013 0.01211929 7.42044647 0.01728058 8.47434998 0.02259827 C9.51614914 0.02401321 10.5579483 0.02542816 11.63131714 0.02688599 C14.97355467 0.03250372 18.31572629 0.04505922 21.65794373 0.05775452 C23.91770839 0.06276723 26.17747409 0.06733053 28.4372406 0.07142639 C33.98999763 0.08247891 39.54271597 0.09923428 45.09544373 0.12025452 C45.65794373 2.05775452 45.65794373 2.05775452 46.09544373 4.12025452 C45.09544373 5.12025452 45.09544373 5.12025452 43.19088745 5.24050903 C42.35815811 5.23828842 41.52542877 5.23606781 40.66746521 5.23377991 C39.7265654 5.23370438 38.78566559 5.23362885 37.81625366 5.23355103 C36.79334732 5.22838974 35.77044098 5.22322845 34.71653748 5.21791077 C33.67473831 5.21649582 32.63293915 5.21508087 31.55957031 5.21362305 C28.21733279 5.20800531 24.87516116 5.19544982 21.53294373 5.18275452 C19.27317906 5.1777418 17.01341336 5.1731785 14.75364685 5.16908264 C9.20088982 5.15803013 3.64817148 5.14127476 -1.90455627 5.12025452 C-2.46705627 3.18275452 -2.46705627 3.18275452 -2.90455627 1.12025452 C-1.90455627 0.12025452 -1.90455627 0.12025452 0 0 Z " fill="#353020" transform="translate(437.90455627441406,347.87974548339844)"/>
<path d="M0 0 C0.83272934 0.00222061 1.66545868 0.00444122 2.52342224 0.00672913 C3.46432205 0.00680466 4.40522186 0.00688019 5.37463379 0.00695801 C6.39754013 0.01211929 7.42044647 0.01728058 8.47434998 0.02259827 C9.51614914 0.02401321 10.5579483 0.02542816 11.63131714 0.02688599 C14.97355467 0.03250372 18.31572629 0.04505922 21.65794373 0.05775452 C23.91770839 0.06276723 26.17747409 0.06733053 28.4372406 0.07142639 C33.98999763 0.08247891 39.54271597 0.09923428 45.09544373 0.12025452 C45.65794373 2.05775452 45.65794373 2.05775452 46.09544373 4.12025452 C45.09544373 5.12025452 45.09544373 5.12025452 43.19088745 5.24050903 C42.35815811 5.23828842 41.52542877 5.23606781 40.66746521 5.23377991 C39.7265654 5.23370438 38.78566559 5.23362885 37.81625366 5.23355103 C36.79334732 5.22838974 35.77044098 5.22322845 34.71653748 5.21791077 C33.67473831 5.21649582 32.63293915 5.21508087 31.55957031 5.21362305 C28.21733279 5.20800531 24.87516116 5.19544982 21.53294373 5.18275452 C19.27317906 5.1777418 17.01341336 5.1731785 14.75364685 5.16908264 C9.20088982 5.15803013 3.64817148 5.14127476 -1.90455627 5.12025452 C-2.46705627 3.18275452 -2.46705627 3.18275452 -2.90455627 1.12025452 C-1.90455627 0.12025452 -1.90455627 0.12025452 0 0 Z " fill="#403F3C" transform="translate(437.90455627441406,333.87974548339844)"/>
<path d="M0 0 C0.83272934 0.00222061 1.66545868 0.00444122 2.52342224 0.00672913 C3.46432205 0.00680466 4.40522186 0.00688019 5.37463379 0.00695801 C6.39754013 0.01211929 7.42044647 0.01728058 8.47434998 0.02259827 C9.51614914 0.02401321 10.5579483 0.02542816 11.63131714 0.02688599 C14.97355467 0.03250372 18.31572629 0.04505922 21.65794373 0.05775452 C23.91770839 0.06276723 26.17747409 0.06733053 28.4372406 0.07142639 C33.98999763 0.08247891 39.54271597 0.09923428 45.09544373 0.12025452 C45.65794373 2.05775452 45.65794373 2.05775452 46.09544373 4.12025452 C45.09544373 5.12025452 45.09544373 5.12025452 43.19088745 5.24050903 C42.35815811 5.23828842 41.52542877 5.23606781 40.66746521 5.23377991 C39.7265654 5.23370438 38.78566559 5.23362885 37.81625366 5.23355103 C36.79334732 5.22838974 35.77044098 5.22322845 34.71653748 5.21791077 C33.67473831 5.21649582 32.63293915 5.21508087 31.55957031 5.21362305 C28.21733279 5.20800531 24.87516116 5.19544982 21.53294373 5.18275452 C19.27317906 5.1777418 17.01341336 5.1731785 14.75364685 5.16908264 C9.20088982 5.15803013 3.64817148 5.14127476 -1.90455627 5.12025452 C-2.46705627 3.18275452 -2.46705627 3.18275452 -2.90455627 1.12025452 C-1.90455627 0.12025452 -1.90455627 0.12025452 0 0 Z " fill="#45443F" transform="translate(437.90455627441406,319.87974548339844)"/>
<path d="M0 0 C2.87029869 1.79393668 4.49131638 2.98263276 6 6 C6.13415472 8.6723621 6.04318541 11.32250488 6 14 C5.34 13.34 4.68 12.68 4 12 C1.93881243 11.37936617 -0.15036682 10.84957462 -2.25 10.375 C-3.36890625 10.11460937 -4.4878125 9.85421875 -5.640625 9.5859375 C-8.84216519 9.02752933 -11.75894614 8.89196487 -15 9 C-14.72608098 5.7129718 -14.18168017 4.21006769 -12 1.6875 C-7.93168729 -0.6009259 -4.57180554 -0.84479015 0 0 Z " fill="#4A4A4A" transform="translate(281,405)"/>
<path d="M0 0 C1.9375 1.0625 1.9375 1.0625 3 3 C3.50030235 6.93094707 3.5996142 9.1005787 1.375 12.4375 C-1.71685231 14.47161336 -3.36367425 14.60605429 -7 14 C-9.375 12.375 -9.375 12.375 -11 10 C-11.60605429 6.36367425 -11.47161336 4.71685231 -9.4375 1.625 C-6.1005787 -0.5996142 -3.93094707 -0.50030235 0 0 Z " fill="#575654" transform="translate(40,308)"/>
<path d="M0 0 C6.76215448 0.40939975 12.67162748 1.56953809 19 4 C18.265625 7.78125 18.265625 7.78125 15.875 9.75 C12.26283838 11.32050505 9.90648417 11.48831052 6 11 C3.125 9.4375 3.125 9.4375 1 7 C0.1875 3.25 0.1875 3.25 0 0 Z " fill="#313131" transform="translate(382,415)"/>
<path d="M0 0 C6.76215448 0.40939975 12.67162748 1.56953809 19 4 C18.265625 7.78125 18.265625 7.78125 15.875 9.75 C12.26283838 11.32050505 9.90648417 11.48831052 6 11 C3.125 9.4375 3.125 9.4375 1 7 C0.1875 3.25 0.1875 3.25 0 0 Z " fill="#303030" transform="translate(324,415)"/>
<path d="M0 0 C3.74460216 0.7605316 5.34067158 2.52802465 7.53515625 5.5546875 C8.91544135 8.29882573 8.95945932 10.5055436 8.51953125 13.51171875 C8.18953125 12.19171875 7.85953125 10.87171875 7.51953125 9.51171875 C5.60140625 9.32609375 5.60140625 9.32609375 3.64453125 9.13671875 C-1.46691096 8.5760041 -6.45653349 7.59202216 -11.48046875 6.51171875 C-11.81046875 7.50171875 -12.14046875 8.49171875 -12.48046875 9.51171875 C-12.81046875 8.85171875 -13.14046875 8.19171875 -13.48046875 7.51171875 C-10.28946105 1.12970335 -6.82594371 -0.12992279 0 0 Z " fill="#666666" transform="translate(452.48046875,404.48828125)"/>
<path d="M0 0 C3.43803208 1.93389305 4.69276462 2.9601264 5.8125 6.75 C5.874375 7.4925 5.93625 8.235 6 9 C4.72125 8.855625 3.4425 8.71125 2.125 8.5625 C1.31160156 8.47355469 0.49820313 8.38460938 -0.33984375 8.29296875 C-2.14530337 8.09412958 -3.94998888 7.88815734 -5.75390625 7.67578125 C-6.63949219 7.57652344 -7.52507812 7.47726562 -8.4375 7.375 C-9.26121094 7.27960938 -10.08492187 7.18421875 -10.93359375 7.0859375 C-13.0640482 6.83036053 -13.0640482 6.83036053 -15 8 C-14.1342843 5.33070993 -13.27808762 3.32258164 -11.4375 1.1875 C-7.66219867 -0.65174937 -4.11514543 -0.66018376 0 0 Z " fill="#575757" transform="translate(223,405)"/>
<path d="M0 0 C15.51 0 31.02 0 47 0 C47.495 0.99 47.495 0.99 48 2 C47.41562164 2.01030746 46.83124329 2.02061493 46.22915649 2.03123474 C40.16241997 2.13917841 34.09583564 2.25378606 28.02929688 2.37231445 C25.76337866 2.4157023 23.49742693 2.45737449 21.23144531 2.49731445 C17.97971482 2.55492385 14.72815364 2.61864502 11.4765625 2.68359375 C10.45881744 2.70030624 9.44107239 2.71701874 8.39248657 2.73423767 C7.45166229 2.75418289 6.51083801 2.77412811 5.54150391 2.79467773 C4.71099518 2.81022202 3.88048645 2.8257663 3.02481079 2.84178162 C0.93121564 2.87765197 0.93121564 2.87765197 -1 4 C-0.67 2.68 -0.34 1.36 0 0 Z " fill="#5B5B59" transform="translate(436,348)"/>
<path d="M0 0 C0.73839111 0.17805176 1.47678223 0.35610352 2.23754883 0.53955078 C3.03999023 0.72646484 3.84243164 0.91337891 4.66918945 1.10595703 C5.50256836 1.31349609 6.33594727 1.52103516 7.19458008 1.73486328 C8.03956055 1.93466797 8.88454102 2.13447266 9.75512695 2.34033203 C11.84183923 2.8354841 13.92484642 3.3462032 16.00708008 3.85986328 C16.00708008 5.83986328 16.00708008 7.81986328 16.00708008 9.85986328 C14.98227539 9.58271484 13.9574707 9.30556641 12.90161133 9.02001953 C11.54095677 8.65405037 10.18027842 8.28816963 8.81958008 7.92236328 C8.14604492 7.73996094 7.47250977 7.55755859 6.77856445 7.36962891 C3.2055955 6.41102748 -0.3544873 5.53103046 -3.99291992 4.85986328 C-4.32291992 5.84986328 -4.65291992 6.83986328 -4.99291992 7.85986328 C-5.18041992 4.98486328 -5.18041992 4.98486328 -4.99291992 1.85986328 C-1.99291992 -0.14013672 -1.99291992 -0.14013672 0 0 Z " fill="#464646" transform="translate(385.992919921875,410.14013671875)"/>
<path d="M0 0 C6.49850211 0.51553879 12.66226532 1.46667709 19 3 C19 4.98 19 6.96 19 9 C17.98679688 8.72285156 16.97359375 8.44570313 15.9296875 8.16015625 C14.57816606 7.79411919 13.22660124 7.42824228 11.875 7.0625 C11.20984375 6.88009766 10.5446875 6.69769531 9.859375 6.50976562 C5.92554773 5.44917494 2.03026435 4.59637868 -2 4 C-1.34 2.68 -0.68 1.36 0 0 Z " fill="#484848" transform="translate(210,411)"/>
<path d="M0 0 C6.71099849 0.05326189 12.77431221 1.60897498 19 4 C18.67 5.65 18.34 7.3 18 9 C17.67 8.34 17.34 7.68 17 7 C15.14353852 6.60505183 15.14353852 6.60505183 12.9375 6.5 C8.44604944 6.10411894 4.34678521 5.18548687 0 4 C-0.33 4.66 -0.66 5.32 -1 6 C-1.042721 4.33388095 -1.04063832 2.66617115 -1 1 C-0.67 0.67 -0.34 0.34 0 0 Z " fill="#313131" transform="translate(267,413)"/>
<path d="M0 0 C6.49850211 0.51553879 12.66226532 1.46667709 19 3 C19 4.98 19 6.96 19 9 C17.98679687 8.71125 16.97359375 8.4225 15.9296875 8.125 C14.57823687 7.74959705 13.22666799 7.37461959 11.875 7 C11.20984375 6.80921875 10.5446875 6.6184375 9.859375 6.421875 C5.8013795 5.30791545 2.20314026 4.79049768 -2 5 C-1.34 3.35 -0.68 1.7 0 0 Z " fill="#3E3E3E" transform="translate(441,411)"/>
<path d="M0 0 C3.0625 2.3125 3.0625 2.3125 5 5 C5 5.99 5 6.98 5 8 C4.19175781 7.7834375 3.38351562 7.566875 2.55078125 7.34375 C1.48214844 7.0653125 0.41351563 6.786875 -0.6875 6.5 C-1.74324219 6.2215625 -2.79898437 5.943125 -3.88671875 5.65625 C-6.75713946 5.05119269 -9.08687738 4.72208711 -12 5 C-12.99 5.66 -13.98 6.32 -15 7 C-12.13108253 0.06678279 -7.08308374 -1.37376535 0 0 Z " fill="#666666" transform="translate(339,405)"/>
<path d="M0 0 C3.2578612 0.64330955 4.97398126 1.97072891 7.15625 4.42578125 C7.78125 6.56640625 7.78125 6.56640625 8.15625 8.42578125 C6.87041016 8.1009375 6.87041016 8.1009375 5.55859375 7.76953125 C-3.05164078 5.66586774 -3.05164078 5.66586774 -11.84375 5.42578125 C-8.23098711 0.76415171 -5.6862398 -0.33169732 0 0 Z " fill="#666666" transform="translate(278.84375,404.57421875)"/>
<path d="M0 0 C1.9375 1.0625 1.9375 1.0625 3 3 C3.1875 6.6875 3.1875 6.6875 3 10 C2.175 9.360625 1.35 8.72125 0.5 8.0625 C-3.23191406 5.53586919 -6.55723303 5.30639772 -11 5 C-8.5075559 -0.51898335 -5.93599766 -0.41656124 0 0 Z " fill="#706F6A" transform="translate(40,308)"/>
<path d="M0 0 C4.95 0.99 9.9 1.98 15 3 C14.67 3.99 14.34 4.98 14 6 C10.39427296 7.20190901 7.7897565 7.32670315 4 7 C1.0625 5 1.0625 5 -1 3 C-0.67 2.01 -0.34 1.02 0 0 Z " fill="#1E1E1E" transform="translate(326,419)"/>
<path d="M0 0 C4.62 0.99 9.24 1.98 14 3 C14 3.99 14 4.98 14 6 C10.39427296 7.20190901 7.7897565 7.32670315 4 7 C1.0625 5 1.0625 5 -1 3 C-0.67 2.01 -0.34 1.02 0 0 Z " fill="#1B1B1B" transform="translate(384,419)"/>
<path d="M0 0 C4.62 0.99 9.24 1.98 14 3 C13.34 4.32 12.68 5.64 12 7 C4.73846154 7.49230769 4.73846154 7.49230769 1 5 C0.34 4.34 -0.32 3.68 -1 3 C-0.67 2.01 -0.34 1.02 0 0 Z " fill="#1A1A1A" transform="translate(442,419)"/>
<path d="M0 0 C4.95 0.99 9.9 1.98 15 3 C14.67 3.99 14.34 4.98 14 6 C6.04153226 7.59516129 6.04153226 7.59516129 1.9375 5.25 C0 3 0 3 0 0 Z " fill="#191919" transform="translate(210,419)"/>
<path d="M0 0 C1.21816406 0.16435547 1.21816406 0.16435547 2.4609375 0.33203125 C3.3375 0.44804687 4.2140625 0.5640625 5.1171875 0.68359375 C9.06807218 1.35342765 12.94083633 2.20216806 16.8359375 3.14453125 C16.8359375 5.12453125 16.8359375 7.10453125 16.8359375 9.14453125 C16.5059375 7.82453125 16.1759375 6.50453125 15.8359375 5.14453125 C13.9178125 4.95890625 13.9178125 4.95890625 11.9609375 4.76953125 C6.84949529 4.2088166 1.85987276 3.22483466 -3.1640625 2.14453125 C-3.4940625 3.13453125 -3.8240625 4.12453125 -4.1640625 5.14453125 C-4.4940625 4.48453125 -4.8240625 3.82453125 -5.1640625 3.14453125 C-3.48626962 1.04999627 -2.73734042 0.18281876 0 0 Z " fill="#5E5E5E" transform="translate(444.1640625,408.85546875)"/>
<path d="M0 0 C6.27 1.32 12.54 2.64 19 4 C19.33 5.65 19.66 7.3 20 9 C19.34 8.34 18.68 7.68 18 7 C16.07602728 6.35794362 16.07602728 6.35794362 13.8671875 5.9296875 C13.06152344 5.75566406 12.25585938 5.58164062 11.42578125 5.40234375 C10.58402344 5.22832031 9.74226563 5.05429687 8.875 4.875 C8.02550781 4.69324219 7.17601562 4.51148438 6.30078125 4.32421875 C4.20193215 3.87614984 2.10113866 3.43720663 0 3 C0 2.01 0 1.02 0 0 Z " fill="#3E3E3E" transform="translate(324,412)"/>
<path d="M0 0 C3.98671063 1.36687222 6.88494633 3.15195093 10 6 C10 6.66 10 7.32 10 8 C6.38102827 8.32899743 4.60496861 8.44576634 1.625 6.25 C0 4 0 4 0 0 Z " fill="#434036" transform="translate(29,314)"/>
<path d="M0 0 C6.49850211 0.51553879 12.66226532 1.46667709 19 3 C19.33 4.32 19.66 5.64 20 7 C17.60309083 6.3789141 15.20752506 5.75327634 12.8125 5.125 C12.13896484 4.95097656 11.46542969 4.77695312 10.77148438 4.59765625 C7.0649543 3.62130199 3.52089633 2.5177456 0 1 C0 0.67 0 0.34 0 0 Z " fill="#3E3E3E" transform="translate(209,413)"/>
<path d="M0 0 C6.49850211 0.51553879 12.66226532 1.46667709 19 3 C19 4.98 19 6.96 19 9 C18.67 7.68 18.34 6.36 18 5 C16.0509375 4.8453125 16.0509375 4.8453125 14.0625 4.6875 C9.09839647 4.151692 4.65751666 2.75069775 0 1 C0 0.67 0 0.34 0 0 Z " fill="#5B5B5B" transform="translate(384,409)"/>
<path d="M0 0 C1.89693861 0.28438952 3.79252027 0.57783792 5.6875 0.875 C6.74324219 1.03742188 7.79898437 1.19984375 8.88671875 1.3671875 C11.79794914 1.95893069 14.28955607 2.8031806 17 4 C16.67 4.99 16.34 5.98 16 7 C15.67 6.34 15.34 5.68 15 5 C13.05101648 4.70269743 11.09870578 4.41638926 9.13671875 4.22265625 C7.28788984 4.02999949 5.45276361 3.71347474 3.625 3.375 C1.02635231 2.74965302 1.02635231 2.74965302 -1 4 C-0.67 2.68 -0.34 1.36 0 0 Z " fill="#282828" transform="translate(441,417)"/>
<path d="M0 0 C1.89693861 0.28438952 3.79252027 0.57783792 5.6875 0.875 C6.74324219 1.03742188 7.79898438 1.19984375 8.88671875 1.3671875 C11.79794914 1.95893069 14.28955607 2.8031806 17 4 C16.67 4.99 16.34 5.98 16 7 C15.67 6.34 15.34 5.68 15 5 C13.07530912 4.60631483 13.07530912 4.60631483 10.8125 4.5 C6.9542318 4.16101478 3.63607776 3.39849145 0 2 C-0.33 2.66 -0.66 3.32 -1 4 C-0.67 2.68 -0.34 1.36 0 0 Z " fill="#282828" transform="translate(210,417)"/>
<path d="M0 0 C2.9287805 0.75970156 4.22133481 2.32827417 6.18359375 4.56640625 C5.219375 4.47101563 4.25515625 4.375625 3.26171875 4.27734375 C1.9984375 4.16648437 0.73515625 4.055625 -0.56640625 3.94140625 C-1.819375 3.82539063 -3.07234375 3.709375 -4.36328125 3.58984375 C-7.65227528 3.56752026 -9.12661401 3.78679623 -11.81640625 5.56640625 C-8.16478125 0.85463206 -5.6754129 0.00983607 0 0 Z " fill="#747474" transform="translate(220.81640625,404.43359375)"/>
<path d="M0 0 C1.89693861 0.28438952 3.79252027 0.57783792 5.6875 0.875 C6.74324219 1.03742188 7.79898437 1.19984375 8.88671875 1.3671875 C11.79794914 1.95893069 14.28955607 2.8031806 17 4 C16.67 4.99 16.34 5.98 16 7 C15.67 6.34 15.34 5.68 15 5 C12.31866963 4.57663205 9.69704455 4.25906431 7 4 C5.49942139 3.81718839 3.99937511 3.62993317 2.5 3.4375 C1.345 3.293125 0.19 3.14875 -1 3 C-0.67 2.01 -0.34 1.02 0 0 Z " fill="#262626" transform="translate(383,417)"/>
<path d="M0 0 C5.7809725 0.63065155 11.3443706 1.65155132 17 3 C16.67 3.99 16.34 4.98 16 6 C14.41058594 5.67515625 14.41058594 5.67515625 12.7890625 5.34375 C11.40106222 5.06239859 10.01304025 4.78115414 8.625 4.5 C7.57699219 4.28537109 7.57699219 4.28537109 6.5078125 4.06640625 C2.78369064 3.27896605 2.78369064 3.27896605 -1 3 C-0.67 2.01 -0.34 1.02 0 0 Z " fill="#262626" transform="translate(325,417)"/>
<path d="M0 0 C6.76215448 0.40939975 12.67162748 1.56953809 19 4 C18.67 4.66 18.34 5.32 18 6 C11.73 4.68 5.46 3.36 -1 2 C-0.67 1.34 -0.34 0.68 0 0 Z " fill="#3D3D3D" transform="translate(267,413)"/>
<path d="M0 0 C6.49850211 0.51553879 12.66226532 1.46667709 19 3 C18.67 3.99 18.34 4.98 18 6 C15.18494942 5.38504727 12.37335056 4.75862099 9.5625 4.125 C8.76005859 3.95097656 7.95761719 3.77695312 7.13085938 3.59765625 C5.0717622 3.12849487 3.03341657 2.57027241 1 2 C0.67 1.34 0.34 0.68 0 0 Z " fill="#494949" transform="translate(441,411)"/>
<path d="M0 0 C5.7809725 0.63065155 11.3443706 1.65155132 17 3 C16.67 3.99 16.34 4.98 16 6 C11.05 4.68 6.1 3.36 1 2 C0.67 2.66 0.34 3.32 0 4 C0 2.68 0 1.36 0 0 Z " fill="#242424" transform="translate(267,417)"/>
<path d="M0 0 C6.43681228 0.51085812 11.95942424 1.72942897 18 4 C17.67 4.66 17.34 5.32 17 6 C8.585 4.02 8.585 4.02 0 2 C0 1.34 0 0.68 0 0 Z " fill="#555555" transform="translate(327,409)"/>
<path d="M0 0 C6.55925943 0.38979206 11.94526627 1.42113193 18 4 C17.67 4.66 17.34 5.32 17 6 C8.585 4.02 8.585 4.02 0 2 C0 1.34 0 0.68 0 0 Z " fill="#555555" transform="translate(269,409)"/>
<path d="M0 0 C3.04846918 0.06381659 4.45549831 0.22154787 7.1875 1.6875 C8.625 3.3125 8.625 3.3125 8.625 5.3125 C3.675 4.3225 -1.275 3.3325 -6.375 2.3125 C-3.97049822 -0.09200178 -3.29266058 0.01640861 0 0 Z " fill="#757575" transform="translate(334.375,404.6875)"/>
<path d="M0 0 C5.0302076 0.52537724 10.01885239 1.10594786 15 2 C15.33 2.99 15.66 3.98 16 5 C10.2190275 4.36934845 4.6556294 3.34844868 -1 2 C-0.67 1.34 -0.34 0.68 0 0 Z " fill="#636363" transform="translate(213,407)"/>
<path d="M0 0 C1.58093717 -0.1357675 3.16526952 -0.23234745 4.75 -0.3125 C5.63171875 -0.37050781 6.5134375 -0.42851562 7.421875 -0.48828125 C10 0 10 0 14 5 C9.38 4.01 4.76 3.02 0 2 C0 1.34 0 0.68 0 0 Z " fill="#747474" transform="translate(445,405)"/>
<path d="M0 0 C3.47842253 0.05601325 4.34711316 0.15811271 7.1875 2.375 C7.661875 3.035 8.13625 3.695 8.625 4.375 C-1.93308656 3.41144647 -1.93308656 3.41144647 -6.375 2.375 C-3.98213116 -0.01786884 -3.28052906 0.05449384 0 0 Z " fill="#747474" transform="translate(276.375,404.625)"/>
<path d="M0 0 C9.17286652 -0.63019694 9.17286652 -0.63019694 12.625 2 C13.07875 2.66 13.5325 3.32 14 4 C11.12524262 5.43737869 9.49349643 4.52819784 6.4375 3.6875 C5.44621094 3.42324219 4.45492188 3.15898437 3.43359375 2.88671875 C1 2 1 2 0 0 Z " fill="#757575" transform="translate(387,405)"/>
<path d="M0 0 C2.625 0.25 2.625 0.25 4.4375 1.5625 C5.625 3.25 5.625 3.25 5.625 6.25 C1.84954612 5.15931332 -0.84543472 4.3416909 -3.375 1.25 C-2.375 0.25 -2.375 0.25 0 0 Z " fill="#807E78" transform="translate(37.375,307.75)"/>
<path d="M0 0 C1.45922693 0.11409593 2.91740598 0.24165544 4.375 0.375 C5.59316406 0.47941406 5.59316406 0.47941406 6.8359375 0.5859375 C9 1 9 1 11 3 C10 4 10 4 6.625 4.1875 C3 4 3 4 0 2 C0 1.34 0 0.68 0 0 Z " fill="#181818" transform="translate(327,422)"/>
<path d="M0 0 C1.43836751 0.11458693 2.87570966 0.24209116 4.3125 0.375 C5.51326172 0.47941406 5.51326172 0.47941406 6.73828125 0.5859375 C9 1 9 1 12 3 C9.2201184 4.3899408 7.0813674 4.18488204 4 4 C1.625 3 1.625 3 0 2 C0 1.34 0 0.68 0 0 Z " fill="#151515" transform="translate(269,422)"/>
<path d="M0 0 C1.258125 0.12375 2.51625 0.2475 3.8125 0.375 C4.87404297 0.47941406 4.87404297 0.47941406 5.95703125 0.5859375 C8 1 8 1 11 3 C8.22899606 4.38550197 6.0665294 4.1877467 3 4 C2.01 3.34 1.02 2.68 0 2 C0 1.34 0 0.68 0 0 Z " fill="#131313" transform="translate(212,422)"/>
</svg>
