<?xml version="1.0" encoding="UTF-8"?>
<svg version="1.1" xmlns="http://www.w3.org/2000/svg" width="11220" height="8858">
<path d="M0 0 C765.27 0 1530.54 0 2319 0 C2319 111.54 2319 223.08 2319 338 C2333.85 338 2348.7 338 2364 338 C2378.3457296 345.1728648 2378.3457296 345.1728648 2382 351 C2382.36326743 351.5419687 2382.72653487 352.0839374 2383.10081041 352.64232939 C2387.61194921 360.87929992 2386.5600084 370.42734399 2386.52139282 379.52790833 C2386.52743662 381.54003185 2386.53521598 383.55215079 2386.54457796 385.56426162 C2386.56514588 391.08480752 2386.56077241 396.60509377 2386.55221677 402.12566102 C2386.54728372 408.08287174 2386.56530883 414.04001983 2386.58029175 419.99720764 C2386.60579415 431.66478454 2386.60938369 443.33228871 2386.60469122 454.9998856 C2386.6010236 464.48375128 2386.60454881 473.96758995 2386.61314011 483.45145226 C2386.61434492 484.81477771 2386.61554731 486.17810316 2386.61674731 487.54142862 C2386.61856185 489.59592369 2386.62037919 491.65041876 2386.62221201 493.70491381 C2386.63906764 512.80305492 2386.64774487 531.90118587 2386.63939857 550.99933338 C2386.63908582 551.71907242 2386.63877307 552.43881146 2386.63845084 553.18036078 C2386.63683932 556.82814387 2386.63514777 560.47592692 2386.63342424 564.12370995 C2386.63308206 564.84814908 2386.63273989 565.57258822 2386.63238734 566.31898005 C2386.63169403 567.78397151 2386.63099697 569.24896298 2386.63029617 570.71395444 C2386.6195828 593.5070367 2386.63544091 616.29996419 2386.67236328 639.09301758 C2386.71381438 664.71166152 2386.73524657 690.3302096 2386.72721231 715.94888896 C2386.72642164 718.68162611 2386.72569854 721.41436327 2386.72501755 724.14710045 C2386.72474535 725.15637523 2386.72474535 725.15637523 2386.72446766 726.1860394 C2386.72213771 736.33430543 2386.73541703 746.48247451 2386.75664139 756.63071632 C2386.78076187 768.17536595 2386.78328894 779.71980623 2386.75906105 791.26446036 C2386.7472771 797.15360754 2386.74510172 803.04233801 2386.76906586 808.93145752 C2386.79076207 814.32597616 2386.78460375 819.71972967 2386.75654249 825.11421236 C2386.75124254 827.06232661 2386.75600089 829.01050062 2386.77201422 830.95855627 C2386.86182082 842.70180049 2386.39442173 852.49727367 2378.3767029 861.90465289 C2362.46350475 876.93367905 2338.8012866 870 2319 870 C2319 1045.56 2319 1221.12 2319 1402 C2337.48 1402 2355.96 1402 2375 1402 C2389.3457296 1409.1728648 2389.3457296 1409.1728648 2393 1415 C2393.36326743 1415.5419687 2393.72653487 1416.0839374 2394.10081041 1416.64232939 C2398.61194921 1424.87929992 2397.5600084 1434.42734399 2397.52139282 1443.52790833 C2397.52743662 1445.54003185 2397.53521598 1447.55215079 2397.54457796 1449.56426162 C2397.56514588 1455.08480752 2397.56077241 1460.60509377 2397.55221677 1466.12566102 C2397.54728372 1472.08287174 2397.56530883 1478.04001983 2397.58029175 1483.99720764 C2397.60579415 1495.66478454 2397.60938369 1507.33228871 2397.60469122 1518.9998856 C2397.6010236 1528.48375128 2397.60454881 1537.96758995 2397.61314011 1547.45145226 C2397.61434492 1548.81477771 2397.61554731 1550.17810316 2397.61674731 1551.54142862 C2397.61856185 1553.59592369 2397.62037919 1555.65041876 2397.62221201 1557.70491381 C2397.63906764 1576.80305492 2397.64774487 1595.90118587 2397.63939857 1614.99933338 C2397.63908582 1615.71907242 2397.63877307 1616.43881146 2397.63845084 1617.18036078 C2397.63683932 1620.82814387 2397.63514777 1624.47592692 2397.63342424 1628.12370995 C2397.63308206 1628.84814908 2397.63273989 1629.57258822 2397.63238734 1630.31898005 C2397.63169403 1631.78397151 2397.63099697 1633.24896298 2397.63029617 1634.71395444 C2397.6195828 1657.5070367 2397.63544091 1680.29996419 2397.67236328 1703.09301758 C2397.71381438 1728.71166152 2397.73524657 1754.3302096 2397.72721231 1779.94888896 C2397.72642164 1782.68162611 2397.72569854 1785.41436327 2397.72501755 1788.14710045 C2397.72474535 1789.15637523 2397.72474535 1789.15637523 2397.72446766 1790.1860394 C2397.72213771 1800.33430543 2397.73541703 1810.48247451 2397.75664139 1820.63071632 C2397.78076187 1832.17536595 2397.78328894 1843.71980623 2397.75906105 1855.26446036 C2397.7472771 1861.15360754 2397.74510172 1867.04233801 2397.76906586 1872.93145752 C2397.79076207 1878.32597616 2397.78460375 1883.71972967 2397.75654249 1889.11421236 C2397.75124254 1891.06232661 2397.75600089 1893.01050062 2397.77201422 1894.95855627 C2397.86182082 1906.70180049 2397.39442173 1916.49727367 2389.3767029 1925.90465289 C2371.29954489 1942.97740457 2338.73187434 1934 2319 1934 C2319 2180.18 2319 2426.36 2319 2680 C2332.86 2680 2346.72 2680 2361 2680 C2375.3457296 2687.1728648 2375.3457296 2687.1728648 2379 2693 C2379.36326743 2693.5419687 2379.72653487 2694.0839374 2380.10081041 2694.64232939 C2384.61194921 2702.87929992 2383.5600084 2712.42734399 2383.52139282 2721.52790833 C2383.52743662 2723.54003185 2383.53521598 2725.55215079 2383.54457796 2727.56426162 C2383.56514588 2733.08480752 2383.56077241 2738.60509377 2383.55221677 2744.12566102 C2383.54728372 2750.08287174 2383.56530883 2756.04001983 2383.58029175 2761.99720764 C2383.60579415 2773.66478454 2383.60938369 2785.33228871 2383.60469122 2796.9998856 C2383.6010236 2806.48375128 2383.60454881 2815.96758995 2383.61314011 2825.45145226 C2383.61434492 2826.81477771 2383.61554731 2828.17810316 2383.61674731 2829.54142862 C2383.61856185 2831.59592369 2383.62037919 2833.65041876 2383.62221201 2835.70491381 C2383.63906764 2854.80305492 2383.64774487 2873.90118587 2383.63939857 2892.99933338 C2383.63908582 2893.71907242 2383.63877307 2894.43881146 2383.63845084 2895.18036078 C2383.63683932 2898.82814387 2383.63514777 2902.47592692 2383.63342424 2906.12370995 C2383.63308206 2906.84814908 2383.63273989 2907.57258822 2383.63238734 2908.31898005 C2383.63169403 2909.78397151 2383.63099697 2911.24896298 2383.63029617 2912.71395444 C2383.6195828 2935.5070367 2383.63544091 2958.29996419 2383.67236328 2981.09301758 C2383.71381438 3006.71166152 2383.73524657 3032.3302096 2383.72721231 3057.94888896 C2383.72642164 3060.68162611 2383.72569854 3063.41436327 2383.72501755 3066.14710045 C2383.72474535 3067.15637523 2383.72474535 3067.15637523 2383.72446766 3068.1860394 C2383.72213771 3078.33430543 2383.73541703 3088.48247451 2383.75664139 3098.63071632 C2383.78076187 3110.17536595 2383.78328894 3121.71980623 2383.75906105 3133.26446036 C2383.7472771 3139.15360754 2383.74510172 3145.04233801 2383.76906586 3150.93145752 C2383.79076207 3156.32597616 2383.78460375 3161.71972967 2383.75654249 3167.11421236 C2383.75124254 3169.06232661 2383.75600089 3171.01050062 2383.77201422 3172.95855627 C2383.86174483 3184.69186295 2383.44768627 3194.67927354 2375.25838721 3203.9774335 C2369.28151362 3209.77045762 2361.751096 3212.45729628 2353.54211426 3212.45263672 C2352.25089661 3212.42194092 2352.25089661 3212.42194092 2350.93359375 3212.390625 C2350.11701294 3212.38659668 2349.30043213 3212.38256836 2348.45910645 3212.37841797 C2345.45167086 3212.35772236 2342.4445593 3212.30187949 2339.4375 3212.25 C2329.3209375 3212.12625 2329.3209375 3212.12625 2319 3212 C2319 3233.12 2319 3254.24 2319 3276 C2333.2697498 3275.76369759 2333.2697498 3275.76369759 2347.53808594 3275.45947266 C2359.35395825 3275.29165343 2368.53344459 3275.58674158 2377.89160156 3283.62475586 C2379.51313566 3285.32628366 2380.71364137 3287.03601746 2382 3289 C2382.36326743 3289.5419687 2382.72653487 3290.0839374 2383.10081041 3290.64232939 C2387.61194921 3298.87929992 2386.5600084 3308.42734399 2386.52139282 3317.52790833 C2386.52743662 3319.54003185 2386.53521598 3321.55215079 2386.54457796 3323.56426162 C2386.56514588 3329.08480752 2386.56077241 3334.60509377 2386.55221677 3340.12566102 C2386.54728372 3346.08287174 2386.56530883 3352.04001983 2386.58029175 3357.99720764 C2386.60579415 3369.66478454 2386.60938369 3381.33228871 2386.60469122 3392.9998856 C2386.6010236 3402.48375128 2386.60454881 3411.96758995 2386.61314011 3421.45145226 C2386.61434492 3422.81477771 2386.61554731 3424.17810316 2386.61674731 3425.54142862 C2386.61856185 3427.59592369 2386.62037919 3429.65041876 2386.62221201 3431.70491381 C2386.63906764 3450.80305492 2386.64774487 3469.90118587 2386.63939857 3488.99933338 C2386.63908582 3489.71907242 2386.63877307 3490.43881146 2386.63845084 3491.18036078 C2386.63683932 3494.82814387 2386.63514777 3498.47592692 2386.63342424 3502.12370995 C2386.63308206 3502.84814908 2386.63273989 3503.57258822 2386.63238734 3504.31898005 C2386.63169403 3505.78397151 2386.63099697 3507.24896298 2386.63029617 3508.71395444 C2386.6195828 3531.5070367 2386.63544091 3554.29996419 2386.67236328 3577.09301758 C2386.71381438 3602.71166152 2386.73524657 3628.3302096 2386.72721231 3653.94888896 C2386.72642164 3656.68162611 2386.72569854 3659.41436327 2386.72501755 3662.14710045 C2386.72474535 3663.15637523 2386.72474535 3663.15637523 2386.72446766 3664.1860394 C2386.72213771 3674.33430543 2386.73541703 3684.48247451 2386.75664139 3694.63071632 C2386.78076187 3706.17536595 2386.78328894 3717.71980623 2386.75906105 3729.26446036 C2386.7472771 3735.15360754 2386.74510172 3741.04233801 2386.76906586 3746.93145752 C2386.79076207 3752.32597616 2386.78460375 3757.71972967 2386.75654249 3763.11421236 C2386.75124254 3765.06232661 2386.75600089 3767.01050062 2386.77201422 3768.95855627 C2386.86182082 3780.70180049 2386.39442173 3790.49727367 2378.3767029 3799.90465289 C2362.46350475 3814.93367905 2338.8012866 3808 2319 3808 C2319 3885.55 2319 3963.1 2319 4043 C1553.73 4043 788.46 4043 0 4043 C0 3963.8 0 3884.6 0 3803 C-10.23 3803 -20.46 3803 -31 3803 C-45.3457296 3795.8271352 -45.3457296 3795.8271352 -49 3790 C-49.36326743 3789.4580313 -49.72653487 3788.9160626 -50.10081041 3788.35767061 C-54.61194921 3780.12070008 -53.5600084 3770.57265601 -53.52139282 3761.47209167 C-53.52743662 3759.45996815 -53.53521598 3757.44784921 -53.54457796 3755.43573838 C-53.56514588 3749.91519248 -53.56077241 3744.39490623 -53.55221677 3738.87433898 C-53.54728372 3732.91712826 -53.56530883 3726.95998017 -53.58029175 3721.00279236 C-53.60579415 3709.33521546 -53.60938369 3697.66771129 -53.60469122 3686.0001144 C-53.6010236 3676.51624872 -53.60454881 3667.03241005 -53.61314011 3657.54854774 C-53.61434492 3656.18522229 -53.61554731 3654.82189684 -53.61674731 3653.45857138 C-53.61856185 3651.40407631 -53.62037919 3649.34958124 -53.62221201 3647.29508619 C-53.63906764 3628.19694508 -53.64774487 3609.09881413 -53.63939857 3590.00066662 C-53.63908582 3589.28092758 -53.63877307 3588.56118854 -53.63845084 3587.81963922 C-53.63683932 3584.17185613 -53.63514777 3580.52407308 -53.63342424 3576.87629005 C-53.63308206 3576.15185092 -53.63273989 3575.42741178 -53.63238734 3574.68101995 C-53.63169403 3573.21602849 -53.63099697 3571.75103702 -53.63029617 3570.28604556 C-53.6195828 3547.4929633 -53.63544091 3524.70003581 -53.67236328 3501.90698242 C-53.71381438 3476.28833848 -53.73524657 3450.6697904 -53.72721231 3425.05111104 C-53.72642164 3422.31837389 -53.72569854 3419.58563673 -53.72501755 3416.85289955 C-53.72483608 3416.1800497 -53.72465462 3415.50719984 -53.72446766 3414.8139606 C-53.72213771 3404.66569457 -53.73541703 3394.51752549 -53.75664139 3384.36928368 C-53.78076187 3372.82463405 -53.78328894 3361.28019377 -53.75906105 3349.73553964 C-53.7472771 3343.84639246 -53.74510172 3337.95766199 -53.76906586 3332.06854248 C-53.79076207 3326.67402384 -53.78460375 3321.28027033 -53.75654249 3315.88578764 C-53.75124254 3313.93767339 -53.75600089 3311.98949938 -53.77201422 3310.04144373 C-53.86182082 3298.29819951 -53.39442173 3288.50272633 -45.3767029 3279.09534711 C-32.38550792 3266.82597125 -17.58891245 3271 0 3271 C0 3249.88 0 3228.76 0 3207 C-10.64988821 3207.23580953 -10.64988821 3207.23580953 -21.29785156 3207.54052734 C-31.55233773 3207.73506076 -39.78860861 3206.27524371 -47.91308594 3199.37524414 C-49.5147206 3197.67184408 -50.719247 3195.95337834 -52 3194 C-52.36326743 3193.4580313 -52.72653487 3192.9160626 -53.10081041 3192.35767061 C-57.61194921 3184.12070008 -56.5600084 3174.57265601 -56.52139282 3165.47209167 C-56.52743662 3163.45996815 -56.53521598 3161.44784921 -56.54457796 3159.43573838 C-56.56514588 3153.91519248 -56.56077241 3148.39490623 -56.55221677 3142.87433898 C-56.54728372 3136.91712826 -56.56530883 3130.95998017 -56.58029175 3125.00279236 C-56.60579415 3113.33521546 -56.60938369 3101.66771129 -56.60469122 3090.0001144 C-56.6010236 3080.51624872 -56.60454881 3071.03241005 -56.61314011 3061.54854774 C-56.61434492 3060.18522229 -56.61554731 3058.82189684 -56.61674731 3057.45857138 C-56.61856185 3055.40407631 -56.62037919 3053.34958124 -56.62221201 3051.29508619 C-56.63906764 3032.19694508 -56.64774487 3013.09881413 -56.63939857 2994.00066662 C-56.63908582 2993.28092758 -56.63877307 2992.56118854 -56.63845084 2991.81963922 C-56.63683932 2988.17185613 -56.63514777 2984.52407308 -56.63342424 2980.87629005 C-56.63308206 2980.15185092 -56.63273989 2979.42741178 -56.63238734 2978.68101995 C-56.63169403 2977.21602849 -56.63099697 2975.75103702 -56.63029617 2974.28604556 C-56.6195828 2951.4929633 -56.63544091 2928.70003581 -56.67236328 2905.90698242 C-56.71381438 2880.28833848 -56.73524657 2854.6697904 -56.72721231 2829.05111104 C-56.72642164 2826.31837389 -56.72569854 2823.58563673 -56.72501755 2820.85289955 C-56.72483608 2820.1800497 -56.72465462 2819.50719984 -56.72446766 2818.8139606 C-56.72213771 2808.66569457 -56.73541703 2798.51752549 -56.75664139 2788.36928368 C-56.78076187 2776.82463405 -56.78328894 2765.28019377 -56.75906105 2753.73553964 C-56.7472771 2747.84639246 -56.74510172 2741.95766199 -56.76906586 2736.06854248 C-56.79076207 2730.67402384 -56.78460375 2725.28027033 -56.75654249 2719.88578764 C-56.75124254 2717.93767339 -56.75600089 2715.98949938 -56.77201422 2714.04144373 C-56.86182082 2702.29819951 -56.39442173 2692.50272633 -48.3767029 2683.09534711 C-34.73353474 2670.21022312 -18.27998431 2675 0 2675 C0 2430.47 0 2185.94 0 1934 C-11.22 1934 -22.44 1934 -34 1934 C-48.3457296 1926.8271352 -48.3457296 1926.8271352 -52 1921 C-52.54490115 1920.18704695 -52.54490115 1920.18704695 -53.10081041 1919.35767061 C-57.61194921 1911.12070008 -56.5600084 1901.57265601 -56.52139282 1892.47209167 C-56.52743662 1890.45996815 -56.53521598 1888.44784921 -56.54457796 1886.43573838 C-56.56514588 1880.91519248 -56.56077241 1875.39490623 -56.55221677 1869.87433898 C-56.54728372 1863.91712826 -56.56530883 1857.95998017 -56.58029175 1852.00279236 C-56.60579415 1840.33521546 -56.60938369 1828.66771129 -56.60469122 1817.0001144 C-56.6010236 1807.51624872 -56.60454881 1798.03241005 -56.61314011 1788.54854774 C-56.61434492 1787.18522229 -56.61554731 1785.82189684 -56.61674731 1784.45857138 C-56.61856185 1782.40407631 -56.62037919 1780.34958124 -56.62221201 1778.29508619 C-56.63906764 1759.19694508 -56.64774487 1740.09881413 -56.63939857 1721.00066662 C-56.63908582 1720.28092758 -56.63877307 1719.56118854 -56.63845084 1718.81963922 C-56.63683932 1715.17185613 -56.63514777 1711.52407308 -56.63342424 1707.87629005 C-56.63308206 1707.15185092 -56.63273989 1706.42741178 -56.63238734 1705.68101995 C-56.63169403 1704.21602849 -56.63099697 1702.75103702 -56.63029617 1701.28604556 C-56.6195828 1678.4929633 -56.63544091 1655.70003581 -56.67236328 1632.90698242 C-56.71381438 1607.28833848 -56.73524657 1581.6697904 -56.72721231 1556.05111104 C-56.72642164 1553.31837389 -56.72569854 1550.58563673 -56.72501755 1547.85289955 C-56.72483608 1547.1800497 -56.72465462 1546.50719984 -56.72446766 1545.8139606 C-56.72213771 1535.66569457 -56.73541703 1525.51752549 -56.75664139 1515.36928368 C-56.78076187 1503.82463405 -56.78328894 1492.28019377 -56.75906105 1480.73553964 C-56.7472771 1474.84639246 -56.74510172 1468.95766199 -56.76906586 1463.06854248 C-56.79076207 1457.67402384 -56.78460375 1452.28027033 -56.75654249 1446.88578764 C-56.75124254 1444.93767339 -56.75600089 1442.98949938 -56.77201422 1441.04144373 C-56.86182082 1429.29819951 -56.39442173 1419.50272633 -48.3767029 1410.09534711 C-34.73353474 1397.21022312 -18.27998431 1402 0 1402 C0 1226.44 0 1050.88 0 870 C-10.56 870 -21.12 870 -32 870 C-46.3457296 862.8271352 -46.3457296 862.8271352 -50 857 C-50.36326743 856.4580313 -50.72653487 855.9160626 -51.10081041 855.35767061 C-55.61194921 847.12070008 -54.5600084 837.57265601 -54.52139282 828.47209167 C-54.52743662 826.45996815 -54.53521598 824.44784921 -54.54457796 822.43573838 C-54.56514588 816.91519248 -54.56077241 811.39490623 -54.55221677 805.87433898 C-54.54728372 799.91712826 -54.56530883 793.95998017 -54.58029175 788.00279236 C-54.60579415 776.33521546 -54.60938369 764.66771129 -54.60469122 753.0001144 C-54.6010236 743.51624872 -54.60454881 734.03241005 -54.61314011 724.54854774 C-54.61434492 723.18522229 -54.61554731 721.82189684 -54.61674731 720.45857138 C-54.61856185 718.40407631 -54.62037919 716.34958124 -54.62221201 714.29508619 C-54.63906764 695.19694508 -54.64774487 676.09881413 -54.63939857 657.00066662 C-54.63908582 656.28092758 -54.63877307 655.56118854 -54.63845084 654.81963922 C-54.63683932 651.17185613 -54.63514777 647.52407308 -54.63342424 643.87629005 C-54.63308206 643.15185092 -54.63273989 642.42741178 -54.63238734 641.68101995 C-54.63169403 640.21602849 -54.63099697 638.75103702 -54.63029617 637.28604556 C-54.6195828 614.4929633 -54.63544091 591.70003581 -54.67236328 568.90698242 C-54.71381438 543.28833848 -54.73524657 517.6697904 -54.72721231 492.05111104 C-54.72642164 489.31837389 -54.72569854 486.58563673 -54.72501755 483.85289955 C-54.72483608 483.1800497 -54.72465462 482.50719984 -54.72446766 481.8139606 C-54.72213771 471.66569457 -54.73541703 461.51752549 -54.75664139 451.36928368 C-54.78076187 439.82463405 -54.78328894 428.28019377 -54.75906105 416.73553964 C-54.7472771 410.84639246 -54.74510172 404.95766199 -54.76906586 399.06854248 C-54.79076207 393.67402384 -54.78460375 388.28027033 -54.75654249 382.88578764 C-54.75124254 380.93767339 -54.75600089 378.98949938 -54.77201422 377.04144373 C-54.86182082 365.29819951 -54.39442173 355.50272633 -46.3767029 346.09534711 C-33.16602343 333.6186818 -17.83237945 338 0 338 C0 226.46 0 114.92 0 0 Z " fill="#F5C228" transform="translate(4451,1940)"/>
<path d="M0 0 C765.27 0 1530.54 0 2319 0 C2319 111.54 2319 223.08 2319 338 C2333.85 338 2348.7 338 2364 338 C2378.3457296 345.1728648 2378.3457296 345.1728648 2382 351 C2382.36326743 351.5419687 2382.72653487 352.0839374 2383.10081041 352.64232939 C2387.61194921 360.87929992 2386.5600084 370.42734399 2386.52139282 379.52790833 C2386.52743662 381.54003185 2386.53521598 383.55215079 2386.54457796 385.56426162 C2386.56514588 391.08480752 2386.56077241 396.60509377 2386.55221677 402.12566102 C2386.54728372 408.08287174 2386.56530883 414.04001983 2386.58029175 419.99720764 C2386.60579415 431.66478454 2386.60938369 443.33228871 2386.60469122 454.9998856 C2386.6010236 464.48375128 2386.60454881 473.96758995 2386.61314011 483.45145226 C2386.61434492 484.81477771 2386.61554731 486.17810316 2386.61674731 487.54142862 C2386.61856185 489.59592369 2386.62037919 491.65041876 2386.62221201 493.70491381 C2386.63906764 512.80305492 2386.64774487 531.90118587 2386.63939857 550.99933338 C2386.63908582 551.71907242 2386.63877307 552.43881146 2386.63845084 553.18036078 C2386.63683932 556.82814387 2386.63514777 560.47592692 2386.63342424 564.12370995 C2386.63308206 564.84814908 2386.63273989 565.57258822 2386.63238734 566.31898005 C2386.63169403 567.78397151 2386.63099697 569.24896298 2386.63029617 570.71395444 C2386.6195828 593.5070367 2386.63544091 616.29996419 2386.67236328 639.09301758 C2386.71381438 664.71166152 2386.73524657 690.3302096 2386.72721231 715.94888896 C2386.72642164 718.68162611 2386.72569854 721.41436327 2386.72501755 724.14710045 C2386.72474535 725.15637523 2386.72474535 725.15637523 2386.72446766 726.1860394 C2386.72213771 736.33430543 2386.73541703 746.48247451 2386.75664139 756.63071632 C2386.78076187 768.17536595 2386.78328894 779.71980623 2386.75906105 791.26446036 C2386.7472771 797.15360754 2386.74510172 803.04233801 2386.76906586 808.93145752 C2386.79076207 814.32597616 2386.78460375 819.71972967 2386.75654249 825.11421236 C2386.75124254 827.06232661 2386.75600089 829.01050062 2386.77201422 830.95855627 C2386.86182082 842.70180049 2386.39442173 852.49727367 2378.3767029 861.90465289 C2362.46350475 876.93367905 2338.8012866 870 2319 870 C2319 1045.56 2319 1221.12 2319 1402 C2337.48 1402 2355.96 1402 2375 1402 C2389.3457296 1409.1728648 2389.3457296 1409.1728648 2393 1415 C2393.36326743 1415.5419687 2393.72653487 1416.0839374 2394.10081041 1416.64232939 C2398.61194921 1424.87929992 2397.5600084 1434.42734399 2397.52139282 1443.52790833 C2397.52743662 1445.54003185 2397.53521598 1447.55215079 2397.54457796 1449.56426162 C2397.56514588 1455.08480752 2397.56077241 1460.60509377 2397.55221677 1466.12566102 C2397.54728372 1472.08287174 2397.56530883 1478.04001983 2397.58029175 1483.99720764 C2397.60579415 1495.66478454 2397.60938369 1507.33228871 2397.60469122 1518.9998856 C2397.6010236 1528.48375128 2397.60454881 1537.96758995 2397.61314011 1547.45145226 C2397.61434492 1548.81477771 2397.61554731 1550.17810316 2397.61674731 1551.54142862 C2397.61856185 1553.59592369 2397.62037919 1555.65041876 2397.62221201 1557.70491381 C2397.63906764 1576.80305492 2397.64774487 1595.90118587 2397.63939857 1614.99933338 C2397.63908582 1615.71907242 2397.63877307 1616.43881146 2397.63845084 1617.18036078 C2397.63683932 1620.82814387 2397.63514777 1624.47592692 2397.63342424 1628.12370995 C2397.63308206 1628.84814908 2397.63273989 1629.57258822 2397.63238734 1630.31898005 C2397.63169403 1631.78397151 2397.63099697 1633.24896298 2397.63029617 1634.71395444 C2397.6195828 1657.5070367 2397.63544091 1680.29996419 2397.67236328 1703.09301758 C2397.71381438 1728.71166152 2397.73524657 1754.3302096 2397.72721231 1779.94888896 C2397.72642164 1782.68162611 2397.72569854 1785.41436327 2397.72501755 1788.14710045 C2397.72474535 1789.15637523 2397.72474535 1789.15637523 2397.72446766 1790.1860394 C2397.72213771 1800.33430543 2397.73541703 1810.48247451 2397.75664139 1820.63071632 C2397.78076187 1832.17536595 2397.78328894 1843.71980623 2397.75906105 1855.26446036 C2397.7472771 1861.15360754 2397.74510172 1867.04233801 2397.76906586 1872.93145752 C2397.79076207 1878.32597616 2397.78460375 1883.71972967 2397.75654249 1889.11421236 C2397.75124254 1891.06232661 2397.75600089 1893.01050062 2397.77201422 1894.95855627 C2397.86182082 1906.70180049 2397.39442173 1916.49727367 2389.3767029 1925.90465289 C2371.29954489 1942.97740457 2338.73187434 1934 2319 1934 C2319 2180.18 2319 2426.36 2319 2680 C2332.86 2680 2346.72 2680 2361 2680 C2375.3457296 2687.1728648 2375.3457296 2687.1728648 2379 2693 C2379.36326743 2693.5419687 2379.72653487 2694.0839374 2380.10081041 2694.64232939 C2384.61194921 2702.87929992 2383.5600084 2712.42734399 2383.52139282 2721.52790833 C2383.52743662 2723.54003185 2383.53521598 2725.55215079 2383.54457796 2727.56426162 C2383.56514588 2733.08480752 2383.56077241 2738.60509377 2383.55221677 2744.12566102 C2383.54728372 2750.08287174 2383.56530883 2756.04001983 2383.58029175 2761.99720764 C2383.60579415 2773.66478454 2383.60938369 2785.33228871 2383.60469122 2796.9998856 C2383.6010236 2806.48375128 2383.60454881 2815.96758995 2383.61314011 2825.45145226 C2383.61434492 2826.81477771 2383.61554731 2828.17810316 2383.61674731 2829.54142862 C2383.61856185 2831.59592369 2383.62037919 2833.65041876 2383.62221201 2835.70491381 C2383.63906764 2854.80305492 2383.64774487 2873.90118587 2383.63939857 2892.99933338 C2383.63908582 2893.71907242 2383.63877307 2894.43881146 2383.63845084 2895.18036078 C2383.63683932 2898.82814387 2383.63514777 2902.47592692 2383.63342424 2906.12370995 C2383.63308206 2906.84814908 2383.63273989 2907.57258822 2383.63238734 2908.31898005 C2383.63169403 2909.78397151 2383.63099697 2911.24896298 2383.63029617 2912.71395444 C2383.6195828 2935.5070367 2383.63544091 2958.29996419 2383.67236328 2981.09301758 C2383.71381438 3006.71166152 2383.73524657 3032.3302096 2383.72721231 3057.94888896 C2383.72642164 3060.68162611 2383.72569854 3063.41436327 2383.72501755 3066.14710045 C2383.72474535 3067.15637523 2383.72474535 3067.15637523 2383.72446766 3068.1860394 C2383.72213771 3078.33430543 2383.73541703 3088.48247451 2383.75664139 3098.63071632 C2383.78076187 3110.17536595 2383.78328894 3121.71980623 2383.75906105 3133.26446036 C2383.7472771 3139.15360754 2383.74510172 3145.04233801 2383.76906586 3150.93145752 C2383.79076207 3156.32597616 2383.78460375 3161.71972967 2383.75654249 3167.11421236 C2383.75124254 3169.06232661 2383.75600089 3171.01050062 2383.77201422 3172.95855627 C2383.86174483 3184.69186295 2383.44768627 3194.67927354 2375.25838721 3203.9774335 C2369.28151362 3209.77045762 2361.751096 3212.45729628 2353.54211426 3212.45263672 C2352.25089661 3212.42194092 2352.25089661 3212.42194092 2350.93359375 3212.390625 C2350.11701294 3212.38659668 2349.30043213 3212.38256836 2348.45910645 3212.37841797 C2345.45167086 3212.35772236 2342.4445593 3212.30187949 2339.4375 3212.25 C2329.3209375 3212.12625 2329.3209375 3212.12625 2319 3212 C2319 3233.12 2319 3254.24 2319 3276 C2333.2697498 3275.76369759 2333.2697498 3275.76369759 2347.53808594 3275.45947266 C2359.35395825 3275.29165343 2368.53344459 3275.58674158 2377.89160156 3283.62475586 C2379.51313566 3285.32628366 2380.71364137 3287.03601746 2382 3289 C2382.36326743 3289.5419687 2382.72653487 3290.0839374 2383.10081041 3290.64232939 C2387.61194921 3298.87929992 2386.5600084 3308.42734399 2386.52139282 3317.52790833 C2386.52743662 3319.54003185 2386.53521598 3321.55215079 2386.54457796 3323.56426162 C2386.56514588 3329.08480752 2386.56077241 3334.60509377 2386.55221677 3340.12566102 C2386.54728372 3346.08287174 2386.56530883 3352.04001983 2386.58029175 3357.99720764 C2386.60579415 3369.66478454 2386.60938369 3381.33228871 2386.60469122 3392.9998856 C2386.6010236 3402.48375128 2386.60454881 3411.96758995 2386.61314011 3421.45145226 C2386.61434492 3422.81477771 2386.61554731 3424.17810316 2386.61674731 3425.54142862 C2386.61856185 3427.59592369 2386.62037919 3429.65041876 2386.62221201 3431.70491381 C2386.63906764 3450.80305492 2386.64774487 3469.90118587 2386.63939857 3488.99933338 C2386.63908582 3489.71907242 2386.63877307 3490.43881146 2386.63845084 3491.18036078 C2386.63683932 3494.82814387 2386.63514777 3498.47592692 2386.63342424 3502.12370995 C2386.63308206 3502.84814908 2386.63273989 3503.57258822 2386.63238734 3504.31898005 C2386.63169403 3505.78397151 2386.63099697 3507.24896298 2386.63029617 3508.71395444 C2386.6195828 3531.5070367 2386.63544091 3554.29996419 2386.67236328 3577.09301758 C2386.71381438 3602.71166152 2386.73524657 3628.3302096 2386.72721231 3653.94888896 C2386.72642164 3656.68162611 2386.72569854 3659.41436327 2386.72501755 3662.14710045 C2386.72474535 3663.15637523 2386.72474535 3663.15637523 2386.72446766 3664.1860394 C2386.72213771 3674.33430543 2386.73541703 3684.48247451 2386.75664139 3694.63071632 C2386.78076187 3706.17536595 2386.78328894 3717.71980623 2386.75906105 3729.26446036 C2386.7472771 3735.15360754 2386.74510172 3741.04233801 2386.76906586 3746.93145752 C2386.79076207 3752.32597616 2386.78460375 3757.71972967 2386.75654249 3763.11421236 C2386.75124254 3765.06232661 2386.75600089 3767.01050062 2386.77201422 3768.95855627 C2386.86182082 3780.70180049 2386.39442173 3790.49727367 2378.3767029 3799.90465289 C2362.46350475 3814.93367905 2338.8012866 3808 2319 3808 C2319 3885.55 2319 3963.1 2319 4043 C1553.73 4043 788.46 4043 0 4043 C0 3963.8 0 3884.6 0 3803 C-10.23 3803 -20.46 3803 -31 3803 C-45.3457296 3795.8271352 -45.3457296 3795.8271352 -49 3790 C-49.36326743 3789.4580313 -49.72653487 3788.9160626 -50.10081041 3788.35767061 C-54.61194921 3780.12070008 -53.5600084 3770.57265601 -53.52139282 3761.47209167 C-53.52743662 3759.45996815 -53.53521598 3757.44784921 -53.54457796 3755.43573838 C-53.56514588 3749.91519248 -53.56077241 3744.39490623 -53.55221677 3738.87433898 C-53.54728372 3732.91712826 -53.56530883 3726.95998017 -53.58029175 3721.00279236 C-53.60579415 3709.33521546 -53.60938369 3697.66771129 -53.60469122 3686.0001144 C-53.6010236 3676.51624872 -53.60454881 3667.03241005 -53.61314011 3657.54854774 C-53.61434492 3656.18522229 -53.61554731 3654.82189684 -53.61674731 3653.45857138 C-53.61856185 3651.40407631 -53.62037919 3649.34958124 -53.62221201 3647.29508619 C-53.63906764 3628.19694508 -53.64774487 3609.09881413 -53.63939857 3590.00066662 C-53.63908582 3589.28092758 -53.63877307 3588.56118854 -53.63845084 3587.81963922 C-53.63683932 3584.17185613 -53.63514777 3580.52407308 -53.63342424 3576.87629005 C-53.63308206 3576.15185092 -53.63273989 3575.42741178 -53.63238734 3574.68101995 C-53.63169403 3573.21602849 -53.63099697 3571.75103702 -53.63029617 3570.28604556 C-53.6195828 3547.4929633 -53.63544091 3524.70003581 -53.67236328 3501.90698242 C-53.71381438 3476.28833848 -53.73524657 3450.6697904 -53.72721231 3425.05111104 C-53.72642164 3422.31837389 -53.72569854 3419.58563673 -53.72501755 3416.85289955 C-53.72483608 3416.1800497 -53.72465462 3415.50719984 -53.72446766 3414.8139606 C-53.72213771 3404.66569457 -53.73541703 3394.51752549 -53.75664139 3384.36928368 C-53.78076187 3372.82463405 -53.78328894 3361.28019377 -53.75906105 3349.73553964 C-53.7472771 3343.84639246 -53.74510172 3337.95766199 -53.76906586 3332.06854248 C-53.79076207 3326.67402384 -53.78460375 3321.28027033 -53.75654249 3315.88578764 C-53.75124254 3313.93767339 -53.75600089 3311.98949938 -53.77201422 3310.04144373 C-53.86182082 3298.29819951 -53.39442173 3288.50272633 -45.3767029 3279.09534711 C-32.38550792 3266.82597125 -17.58891245 3271 0 3271 C0 3249.88 0 3228.76 0 3207 C-10.64988821 3207.23580953 -10.64988821 3207.23580953 -21.29785156 3207.54052734 C-31.55233773 3207.73506076 -39.78860861 3206.27524371 -47.91308594 3199.37524414 C-49.5147206 3197.67184408 -50.719247 3195.95337834 -52 3194 C-52.36326743 3193.4580313 -52.72653487 3192.9160626 -53.10081041 3192.35767061 C-57.61194921 3184.12070008 -56.5600084 3174.57265601 -56.52139282 3165.47209167 C-56.52743662 3163.45996815 -56.53521598 3161.44784921 -56.54457796 3159.43573838 C-56.56514588 3153.91519248 -56.56077241 3148.39490623 -56.55221677 3142.87433898 C-56.54728372 3136.91712826 -56.56530883 3130.95998017 -56.58029175 3125.00279236 C-56.60579415 3113.33521546 -56.60938369 3101.66771129 -56.60469122 3090.0001144 C-56.6010236 3080.51624872 -56.60454881 3071.03241005 -56.61314011 3061.54854774 C-56.61434492 3060.18522229 -56.61554731 3058.82189684 -56.61674731 3057.45857138 C-56.61856185 3055.40407631 -56.62037919 3053.34958124 -56.62221201 3051.29508619 C-56.63906764 3032.19694508 -56.64774487 3013.09881413 -56.63939857 2994.00066662 C-56.63908582 2993.28092758 -56.63877307 2992.56118854 -56.63845084 2991.81963922 C-56.63683932 2988.17185613 -56.63514777 2984.52407308 -56.63342424 2980.87629005 C-56.63308206 2980.15185092 -56.63273989 2979.42741178 -56.63238734 2978.68101995 C-56.63169403 2977.21602849 -56.63099697 2975.75103702 -56.63029617 2974.28604556 C-56.6195828 2951.4929633 -56.63544091 2928.70003581 -56.67236328 2905.90698242 C-56.71381438 2880.28833848 -56.73524657 2854.6697904 -56.72721231 2829.05111104 C-56.72642164 2826.31837389 -56.72569854 2823.58563673 -56.72501755 2820.85289955 C-56.72483608 2820.1800497 -56.72465462 2819.50719984 -56.72446766 2818.8139606 C-56.72213771 2808.66569457 -56.73541703 2798.51752549 -56.75664139 2788.36928368 C-56.78076187 2776.82463405 -56.78328894 2765.28019377 -56.75906105 2753.73553964 C-56.7472771 2747.84639246 -56.74510172 2741.95766199 -56.76906586 2736.06854248 C-56.79076207 2730.67402384 -56.78460375 2725.28027033 -56.75654249 2719.88578764 C-56.75124254 2717.93767339 -56.75600089 2715.98949938 -56.77201422 2714.04144373 C-56.86182082 2702.29819951 -56.39442173 2692.50272633 -48.3767029 2683.09534711 C-34.73353474 2670.21022312 -18.27998431 2675 0 2675 C0 2430.47 0 2185.94 0 1934 C-11.22 1934 -22.44 1934 -34 1934 C-48.3457296 1926.8271352 -48.3457296 1926.8271352 -52 1921 C-52.54490115 1920.18704695 -52.54490115 1920.18704695 -53.10081041 1919.35767061 C-57.61194921 1911.12070008 -56.5600084 1901.57265601 -56.52139282 1892.47209167 C-56.52743662 1890.45996815 -56.53521598 1888.44784921 -56.54457796 1886.43573838 C-56.56514588 1880.91519248 -56.56077241 1875.39490623 -56.55221677 1869.87433898 C-56.54728372 1863.91712826 -56.56530883 1857.95998017 -56.58029175 1852.00279236 C-56.60579415 1840.33521546 -56.60938369 1828.66771129 -56.60469122 1817.0001144 C-56.6010236 1807.51624872 -56.60454881 1798.03241005 -56.61314011 1788.54854774 C-56.61434492 1787.18522229 -56.61554731 1785.82189684 -56.61674731 1784.45857138 C-56.61856185 1782.40407631 -56.62037919 1780.34958124 -56.62221201 1778.29508619 C-56.63906764 1759.19694508 -56.64774487 1740.09881413 -56.63939857 1721.00066662 C-56.63908582 1720.28092758 -56.63877307 1719.56118854 -56.63845084 1718.81963922 C-56.63683932 1715.17185613 -56.63514777 1711.52407308 -56.63342424 1707.87629005 C-56.63308206 1707.15185092 -56.63273989 1706.42741178 -56.63238734 1705.68101995 C-56.63169403 1704.21602849 -56.63099697 1702.75103702 -56.63029617 1701.28604556 C-56.6195828 1678.4929633 -56.63544091 1655.70003581 -56.67236328 1632.90698242 C-56.71381438 1607.28833848 -56.73524657 1581.6697904 -56.72721231 1556.05111104 C-56.72642164 1553.31837389 -56.72569854 1550.58563673 -56.72501755 1547.85289955 C-56.72483608 1547.1800497 -56.72465462 1546.50719984 -56.72446766 1545.8139606 C-56.72213771 1535.66569457 -56.73541703 1525.51752549 -56.75664139 1515.36928368 C-56.78076187 1503.82463405 -56.78328894 1492.28019377 -56.75906105 1480.73553964 C-56.7472771 1474.84639246 -56.74510172 1468.95766199 -56.76906586 1463.06854248 C-56.79076207 1457.67402384 -56.78460375 1452.28027033 -56.75654249 1446.88578764 C-56.75124254 1444.93767339 -56.75600089 1442.98949938 -56.77201422 1441.04144373 C-56.86182082 1429.29819951 -56.39442173 1419.50272633 -48.3767029 1410.09534711 C-34.73353474 1397.21022312 -18.27998431 1402 0 1402 C0 1226.44 0 1050.88 0 870 C-10.56 870 -21.12 870 -32 870 C-46.3457296 862.8271352 -46.3457296 862.8271352 -50 857 C-50.36326743 856.4580313 -50.72653487 855.9160626 -51.10081041 855.35767061 C-55.61194921 847.12070008 -54.5600084 837.57265601 -54.52139282 828.47209167 C-54.52743662 826.45996815 -54.53521598 824.44784921 -54.54457796 822.43573838 C-54.56514588 816.91519248 -54.56077241 811.39490623 -54.55221677 805.87433898 C-54.54728372 799.91712826 -54.56530883 793.95998017 -54.58029175 788.00279236 C-54.60579415 776.33521546 -54.60938369 764.66771129 -54.60469122 753.0001144 C-54.6010236 743.51624872 -54.60454881 734.03241005 -54.61314011 724.54854774 C-54.61434492 723.18522229 -54.61554731 721.82189684 -54.61674731 720.45857138 C-54.61856185 718.40407631 -54.62037919 716.34958124 -54.62221201 714.29508619 C-54.63906764 695.19694508 -54.64774487 676.09881413 -54.63939857 657.00066662 C-54.63908582 656.28092758 -54.63877307 655.56118854 -54.63845084 654.81963922 C-54.63683932 651.17185613 -54.63514777 647.52407308 -54.63342424 643.87629005 C-54.63308206 643.15185092 -54.63273989 642.42741178 -54.63238734 641.68101995 C-54.63169403 640.21602849 -54.63099697 638.75103702 -54.63029617 637.28604556 C-54.6195828 614.4929633 -54.63544091 591.70003581 -54.67236328 568.90698242 C-54.71381438 543.28833848 -54.73524657 517.6697904 -54.72721231 492.05111104 C-54.72642164 489.31837389 -54.72569854 486.58563673 -54.72501755 483.85289955 C-54.72483608 483.1800497 -54.72465462 482.50719984 -54.72446766 481.8139606 C-54.72213771 471.66569457 -54.73541703 461.51752549 -54.75664139 451.36928368 C-54.78076187 439.82463405 -54.78328894 428.28019377 -54.75906105 416.73553964 C-54.7472771 410.84639246 -54.74510172 404.95766199 -54.76906586 399.06854248 C-54.79076207 393.67402384 -54.78460375 388.28027033 -54.75654249 382.88578764 C-54.75124254 380.93767339 -54.75600089 378.98949938 -54.77201422 377.04144373 C-54.86182082 365.29819951 -54.39442173 355.50272633 -46.3767029 346.09534711 C-33.16602343 333.6186818 -17.83237945 338 0 338 C0 226.46 0 114.92 0 0 Z M100 1224 C100 2121.27 100 3018.54 100 3943 C799.27 3943 1498.54 3943 2219 3943 C2219 3045.73 2219 2148.46 2219 1224 C1519.73 1224 820.46 1224 100 1224 Z " fill="#171716" transform="translate(4451,1940)"/>
<path d="M0 0 C765.27 0 1530.54 0 2319 0 C2319 111.54 2319 223.08 2319 338 C2333.85 338 2348.7 338 2364 338 C2378.3457296 345.1728648 2378.3457296 345.1728648 2382 351 C2382.36326743 351.5419687 2382.72653487 352.0839374 2383.10081041 352.64232939 C2387.61194921 360.87929992 2386.5600084 370.42734399 2386.52139282 379.52790833 C2386.52743662 381.54003185 2386.53521598 383.55215079 2386.54457796 385.56426162 C2386.56514588 391.08480752 2386.56077241 396.60509377 2386.55221677 402.12566102 C2386.54728372 408.08287174 2386.56530883 414.04001983 2386.58029175 419.99720764 C2386.60579415 431.66478454 2386.60938369 443.33228871 2386.60469122 454.9998856 C2386.6010236 464.48375128 2386.60454881 473.96758995 2386.61314011 483.45145226 C2386.61434492 484.81477771 2386.61554731 486.17810316 2386.61674731 487.54142862 C2386.61856185 489.59592369 2386.62037919 491.65041876 2386.62221201 493.70491381 C2386.63906764 512.80305492 2386.64774487 531.90118587 2386.63939857 550.99933338 C2386.63908582 551.71907242 2386.63877307 552.43881146 2386.63845084 553.18036078 C2386.63683932 556.82814387 2386.63514777 560.47592692 2386.63342424 564.12370995 C2386.63308206 564.84814908 2386.63273989 565.57258822 2386.63238734 566.31898005 C2386.63169403 567.78397151 2386.63099697 569.24896298 2386.63029617 570.71395444 C2386.6195828 593.5070367 2386.63544091 616.29996419 2386.67236328 639.09301758 C2386.71381438 664.71166152 2386.73524657 690.3302096 2386.72721231 715.94888896 C2386.72642164 718.68162611 2386.72569854 721.41436327 2386.72501755 724.14710045 C2386.72474535 725.15637523 2386.72474535 725.15637523 2386.72446766 726.1860394 C2386.72213771 736.33430543 2386.73541703 746.48247451 2386.75664139 756.63071632 C2386.78076187 768.17536595 2386.78328894 779.71980623 2386.75906105 791.26446036 C2386.7472771 797.15360754 2386.74510172 803.04233801 2386.76906586 808.93145752 C2386.79076207 814.32597616 2386.78460375 819.71972967 2386.75654249 825.11421236 C2386.75124254 827.06232661 2386.75600089 829.01050062 2386.77201422 830.95855627 C2386.86182082 842.70180049 2386.39442173 852.49727367 2378.3767029 861.90465289 C2362.46350475 876.93367905 2338.8012866 870 2319 870 C2319 1045.56 2319 1221.12 2319 1402 C2337.48 1402 2355.96 1402 2375 1402 C2389.3457296 1409.1728648 2389.3457296 1409.1728648 2393 1415 C2393.36326743 1415.5419687 2393.72653487 1416.0839374 2394.10081041 1416.64232939 C2398.61194921 1424.87929992 2397.5600084 1434.42734399 2397.52139282 1443.52790833 C2397.52743662 1445.54003185 2397.53521598 1447.55215079 2397.54457796 1449.56426162 C2397.56514588 1455.08480752 2397.56077241 1460.60509377 2397.55221677 1466.12566102 C2397.54728372 1472.08287174 2397.56530883 1478.04001983 2397.58029175 1483.99720764 C2397.60579415 1495.66478454 2397.60938369 1507.33228871 2397.60469122 1518.9998856 C2397.6010236 1528.48375128 2397.60454881 1537.96758995 2397.61314011 1547.45145226 C2397.61434492 1548.81477771 2397.61554731 1550.17810316 2397.61674731 1551.54142862 C2397.61856185 1553.59592369 2397.62037919 1555.65041876 2397.62221201 1557.70491381 C2397.63906764 1576.80305492 2397.64774487 1595.90118587 2397.63939857 1614.99933338 C2397.63908582 1615.71907242 2397.63877307 1616.43881146 2397.63845084 1617.18036078 C2397.63683932 1620.82814387 2397.63514777 1624.47592692 2397.63342424 1628.12370995 C2397.63308206 1628.84814908 2397.63273989 1629.57258822 2397.63238734 1630.31898005 C2397.63169403 1631.78397151 2397.63099697 1633.24896298 2397.63029617 1634.71395444 C2397.6195828 1657.5070367 2397.63544091 1680.29996419 2397.67236328 1703.09301758 C2397.71381438 1728.71166152 2397.73524657 1754.3302096 2397.72721231 1779.94888896 C2397.72642164 1782.68162611 2397.72569854 1785.41436327 2397.72501755 1788.14710045 C2397.72474535 1789.15637523 2397.72474535 1789.15637523 2397.72446766 1790.1860394 C2397.72213771 1800.33430543 2397.73541703 1810.48247451 2397.75664139 1820.63071632 C2397.78076187 1832.17536595 2397.78328894 1843.71980623 2397.75906105 1855.26446036 C2397.7472771 1861.15360754 2397.74510172 1867.04233801 2397.76906586 1872.93145752 C2397.79076207 1878.32597616 2397.78460375 1883.71972967 2397.75654249 1889.11421236 C2397.75124254 1891.06232661 2397.75600089 1893.01050062 2397.77201422 1894.95855627 C2397.86182082 1906.70180049 2397.39442173 1916.49727367 2389.3767029 1925.90465289 C2371.29954489 1942.97740457 2338.73187434 1934 2319 1934 C2319 2180.18 2319 2426.36 2319 2680 C2332.86 2680 2346.72 2680 2361 2680 C2375.3457296 2687.1728648 2375.3457296 2687.1728648 2379 2693 C2379.36326743 2693.5419687 2379.72653487 2694.0839374 2380.10081041 2694.64232939 C2384.61194921 2702.87929992 2383.5600084 2712.42734399 2383.52139282 2721.52790833 C2383.52743662 2723.54003185 2383.53521598 2725.55215079 2383.54457796 2727.56426162 C2383.56514588 2733.08480752 2383.56077241 2738.60509377 2383.55221677 2744.12566102 C2383.54728372 2750.08287174 2383.56530883 2756.04001983 2383.58029175 2761.99720764 C2383.60579415 2773.66478454 2383.60938369 2785.33228871 2383.60469122 2796.9998856 C2383.6010236 2806.48375128 2383.60454881 2815.96758995 2383.61314011 2825.45145226 C2383.61434492 2826.81477771 2383.61554731 2828.17810316 2383.61674731 2829.54142862 C2383.61856185 2831.59592369 2383.62037919 2833.65041876 2383.62221201 2835.70491381 C2383.63906764 2854.80305492 2383.64774487 2873.90118587 2383.63939857 2892.99933338 C2383.63908582 2893.71907242 2383.63877307 2894.43881146 2383.63845084 2895.18036078 C2383.63683932 2898.82814387 2383.63514777 2902.47592692 2383.63342424 2906.12370995 C2383.63308206 2906.84814908 2383.63273989 2907.57258822 2383.63238734 2908.31898005 C2383.63169403 2909.78397151 2383.63099697 2911.24896298 2383.63029617 2912.71395444 C2383.6195828 2935.5070367 2383.63544091 2958.29996419 2383.67236328 2981.09301758 C2383.71381438 3006.71166152 2383.73524657 3032.3302096 2383.72721231 3057.94888896 C2383.72642164 3060.68162611 2383.72569854 3063.41436327 2383.72501755 3066.14710045 C2383.72474535 3067.15637523 2383.72474535 3067.15637523 2383.72446766 3068.1860394 C2383.72213771 3078.33430543 2383.73541703 3088.48247451 2383.75664139 3098.63071632 C2383.78076187 3110.17536595 2383.78328894 3121.71980623 2383.75906105 3133.26446036 C2383.7472771 3139.15360754 2383.74510172 3145.04233801 2383.76906586 3150.93145752 C2383.79076207 3156.32597616 2383.78460375 3161.71972967 2383.75654249 3167.11421236 C2383.75124254 3169.06232661 2383.75600089 3171.01050062 2383.77201422 3172.95855627 C2383.86174483 3184.69186295 2383.44768627 3194.67927354 2375.25838721 3203.9774335 C2369.28151362 3209.77045762 2361.751096 3212.45729628 2353.54211426 3212.45263672 C2352.25089661 3212.42194092 2352.25089661 3212.42194092 2350.93359375 3212.390625 C2350.11701294 3212.38659668 2349.30043213 3212.38256836 2348.45910645 3212.37841797 C2345.45167086 3212.35772236 2342.4445593 3212.30187949 2339.4375 3212.25 C2329.3209375 3212.12625 2329.3209375 3212.12625 2319 3212 C2319 3233.12 2319 3254.24 2319 3276 C2333.2697498 3275.76369759 2333.2697498 3275.76369759 2347.53808594 3275.45947266 C2359.35395825 3275.29165343 2368.53344459 3275.58674158 2377.89160156 3283.62475586 C2379.51313566 3285.32628366 2380.71364137 3287.03601746 2382 3289 C2382.36326743 3289.5419687 2382.72653487 3290.0839374 2383.10081041 3290.64232939 C2387.61194921 3298.87929992 2386.5600084 3308.42734399 2386.52139282 3317.52790833 C2386.52743662 3319.54003185 2386.53521598 3321.55215079 2386.54457796 3323.56426162 C2386.56514588 3329.08480752 2386.56077241 3334.60509377 2386.55221677 3340.12566102 C2386.54728372 3346.08287174 2386.56530883 3352.04001983 2386.58029175 3357.99720764 C2386.60579415 3369.66478454 2386.60938369 3381.33228871 2386.60469122 3392.9998856 C2386.6010236 3402.48375128 2386.60454881 3411.96758995 2386.61314011 3421.45145226 C2386.61434492 3422.81477771 2386.61554731 3424.17810316 2386.61674731 3425.54142862 C2386.61856185 3427.59592369 2386.62037919 3429.65041876 2386.62221201 3431.70491381 C2386.63906764 3450.80305492 2386.64774487 3469.90118587 2386.63939857 3488.99933338 C2386.63908582 3489.71907242 2386.63877307 3490.43881146 2386.63845084 3491.18036078 C2386.63683932 3494.82814387 2386.63514777 3498.47592692 2386.63342424 3502.12370995 C2386.63308206 3502.84814908 2386.63273989 3503.57258822 2386.63238734 3504.31898005 C2386.63169403 3505.78397151 2386.63099697 3507.24896298 2386.63029617 3508.71395444 C2386.6195828 3531.5070367 2386.63544091 3554.29996419 2386.67236328 3577.09301758 C2386.71381438 3602.71166152 2386.73524657 3628.3302096 2386.72721231 3653.94888896 C2386.72642164 3656.68162611 2386.72569854 3659.41436327 2386.72501755 3662.14710045 C2386.72474535 3663.15637523 2386.72474535 3663.15637523 2386.72446766 3664.1860394 C2386.72213771 3674.33430543 2386.73541703 3684.48247451 2386.75664139 3694.63071632 C2386.78076187 3706.17536595 2386.78328894 3717.71980623 2386.75906105 3729.26446036 C2386.7472771 3735.15360754 2386.74510172 3741.04233801 2386.76906586 3746.93145752 C2386.79076207 3752.32597616 2386.78460375 3757.71972967 2386.75654249 3763.11421236 C2386.75124254 3765.06232661 2386.75600089 3767.01050062 2386.77201422 3768.95855627 C2386.86182082 3780.70180049 2386.39442173 3790.49727367 2378.3767029 3799.90465289 C2362.46350475 3814.93367905 2338.8012866 3808 2319 3808 C2319 3885.55 2319 3963.1 2319 4043 C1553.73 4043 788.46 4043 0 4043 C0 3963.8 0 3884.6 0 3803 C-10.23 3803 -20.46 3803 -31 3803 C-45.3457296 3795.8271352 -45.3457296 3795.8271352 -49 3790 C-49.36326743 3789.4580313 -49.72653487 3788.9160626 -50.10081041 3788.35767061 C-54.61194921 3780.12070008 -53.5600084 3770.57265601 -53.52139282 3761.47209167 C-53.52743662 3759.45996815 -53.53521598 3757.44784921 -53.54457796 3755.43573838 C-53.56514588 3749.91519248 -53.56077241 3744.39490623 -53.55221677 3738.87433898 C-53.54728372 3732.91712826 -53.56530883 3726.95998017 -53.58029175 3721.00279236 C-53.60579415 3709.33521546 -53.60938369 3697.66771129 -53.60469122 3686.0001144 C-53.6010236 3676.51624872 -53.60454881 3667.03241005 -53.61314011 3657.54854774 C-53.61434492 3656.18522229 -53.61554731 3654.82189684 -53.61674731 3653.45857138 C-53.61856185 3651.40407631 -53.62037919 3649.34958124 -53.62221201 3647.29508619 C-53.63906764 3628.19694508 -53.64774487 3609.09881413 -53.63939857 3590.00066662 C-53.63908582 3589.28092758 -53.63877307 3588.56118854 -53.63845084 3587.81963922 C-53.63683932 3584.17185613 -53.63514777 3580.52407308 -53.63342424 3576.87629005 C-53.63308206 3576.15185092 -53.63273989 3575.42741178 -53.63238734 3574.68101995 C-53.63169403 3573.21602849 -53.63099697 3571.75103702 -53.63029617 3570.28604556 C-53.6195828 3547.4929633 -53.63544091 3524.70003581 -53.67236328 3501.90698242 C-53.71381438 3476.28833848 -53.73524657 3450.6697904 -53.72721231 3425.05111104 C-53.72642164 3422.31837389 -53.72569854 3419.58563673 -53.72501755 3416.85289955 C-53.72483608 3416.1800497 -53.72465462 3415.50719984 -53.72446766 3414.8139606 C-53.72213771 3404.66569457 -53.73541703 3394.51752549 -53.75664139 3384.36928368 C-53.78076187 3372.82463405 -53.78328894 3361.28019377 -53.75906105 3349.73553964 C-53.7472771 3343.84639246 -53.74510172 3337.95766199 -53.76906586 3332.06854248 C-53.79076207 3326.67402384 -53.78460375 3321.28027033 -53.75654249 3315.88578764 C-53.75124254 3313.93767339 -53.75600089 3311.98949938 -53.77201422 3310.04144373 C-53.86182082 3298.29819951 -53.39442173 3288.50272633 -45.3767029 3279.09534711 C-32.38550792 3266.82597125 -17.58891245 3271 0 3271 C0 3249.88 0 3228.76 0 3207 C-10.64988821 3207.23580953 -10.64988821 3207.23580953 -21.29785156 3207.54052734 C-31.55233773 3207.73506076 -39.78860861 3206.27524371 -47.91308594 3199.37524414 C-49.5147206 3197.67184408 -50.719247 3195.95337834 -52 3194 C-52.36326743 3193.4580313 -52.72653487 3192.9160626 -53.10081041 3192.35767061 C-57.61194921 3184.12070008 -56.5600084 3174.57265601 -56.52139282 3165.47209167 C-56.52743662 3163.45996815 -56.53521598 3161.44784921 -56.54457796 3159.43573838 C-56.56514588 3153.91519248 -56.56077241 3148.39490623 -56.55221677 3142.87433898 C-56.54728372 3136.91712826 -56.56530883 3130.95998017 -56.58029175 3125.00279236 C-56.60579415 3113.33521546 -56.60938369 3101.66771129 -56.60469122 3090.0001144 C-56.6010236 3080.51624872 -56.60454881 3071.03241005 -56.61314011 3061.54854774 C-56.61434492 3060.18522229 -56.61554731 3058.82189684 -56.61674731 3057.45857138 C-56.61856185 3055.40407631 -56.62037919 3053.34958124 -56.62221201 3051.29508619 C-56.63906764 3032.19694508 -56.64774487 3013.09881413 -56.63939857 2994.00066662 C-56.63908582 2993.28092758 -56.63877307 2992.56118854 -56.63845084 2991.81963922 C-56.63683932 2988.17185613 -56.63514777 2984.52407308 -56.63342424 2980.87629005 C-56.63308206 2980.15185092 -56.63273989 2979.42741178 -56.63238734 2978.68101995 C-56.63169403 2977.21602849 -56.63099697 2975.75103702 -56.63029617 2974.28604556 C-56.6195828 2951.4929633 -56.63544091 2928.70003581 -56.67236328 2905.90698242 C-56.71381438 2880.28833848 -56.73524657 2854.6697904 -56.72721231 2829.05111104 C-56.72642164 2826.31837389 -56.72569854 2823.58563673 -56.72501755 2820.85289955 C-56.72483608 2820.1800497 -56.72465462 2819.50719984 -56.72446766 2818.8139606 C-56.72213771 2808.66569457 -56.73541703 2798.51752549 -56.75664139 2788.36928368 C-56.78076187 2776.82463405 -56.78328894 2765.28019377 -56.75906105 2753.73553964 C-56.7472771 2747.84639246 -56.74510172 2741.95766199 -56.76906586 2736.06854248 C-56.79076207 2730.67402384 -56.78460375 2725.28027033 -56.75654249 2719.88578764 C-56.75124254 2717.93767339 -56.75600089 2715.98949938 -56.77201422 2714.04144373 C-56.86182082 2702.29819951 -56.39442173 2692.50272633 -48.3767029 2683.09534711 C-34.73353474 2670.21022312 -18.27998431 2675 0 2675 C0 2430.47 0 2185.94 0 1934 C-11.22 1934 -22.44 1934 -34 1934 C-48.3457296 1926.8271352 -48.3457296 1926.8271352 -52 1921 C-52.54490115 1920.18704695 -52.54490115 1920.18704695 -53.10081041 1919.35767061 C-57.61194921 1911.12070008 -56.5600084 1901.57265601 -56.52139282 1892.47209167 C-56.52743662 1890.45996815 -56.53521598 1888.44784921 -56.54457796 1886.43573838 C-56.56514588 1880.91519248 -56.56077241 1875.39490623 -56.55221677 1869.87433898 C-56.54728372 1863.91712826 -56.56530883 1857.95998017 -56.58029175 1852.00279236 C-56.60579415 1840.33521546 -56.60938369 1828.66771129 -56.60469122 1817.0001144 C-56.6010236 1807.51624872 -56.60454881 1798.03241005 -56.61314011 1788.54854774 C-56.61434492 1787.18522229 -56.61554731 1785.82189684 -56.61674731 1784.45857138 C-56.61856185 1782.40407631 -56.62037919 1780.34958124 -56.62221201 1778.29508619 C-56.63906764 1759.19694508 -56.64774487 1740.09881413 -56.63939857 1721.00066662 C-56.63908582 1720.28092758 -56.63877307 1719.56118854 -56.63845084 1718.81963922 C-56.63683932 1715.17185613 -56.63514777 1711.52407308 -56.63342424 1707.87629005 C-56.63308206 1707.15185092 -56.63273989 1706.42741178 -56.63238734 1705.68101995 C-56.63169403 1704.21602849 -56.63099697 1702.75103702 -56.63029617 1701.28604556 C-56.6195828 1678.4929633 -56.63544091 1655.70003581 -56.67236328 1632.90698242 C-56.71381438 1607.28833848 -56.73524657 1581.6697904 -56.72721231 1556.05111104 C-56.72642164 1553.31837389 -56.72569854 1550.58563673 -56.72501755 1547.85289955 C-56.72483608 1547.1800497 -56.72465462 1546.50719984 -56.72446766 1545.8139606 C-56.72213771 1535.66569457 -56.73541703 1525.51752549 -56.75664139 1515.36928368 C-56.78076187 1503.82463405 -56.78328894 1492.28019377 -56.75906105 1480.73553964 C-56.7472771 1474.84639246 -56.74510172 1468.95766199 -56.76906586 1463.06854248 C-56.79076207 1457.67402384 -56.78460375 1452.28027033 -56.75654249 1446.88578764 C-56.75124254 1444.93767339 -56.75600089 1442.98949938 -56.77201422 1441.04144373 C-56.86182082 1429.29819951 -56.39442173 1419.50272633 -48.3767029 1410.09534711 C-34.73353474 1397.21022312 -18.27998431 1402 0 1402 C0 1226.44 0 1050.88 0 870 C-10.56 870 -21.12 870 -32 870 C-46.3457296 862.8271352 -46.3457296 862.8271352 -50 857 C-50.36326743 856.4580313 -50.72653487 855.9160626 -51.10081041 855.35767061 C-55.61194921 847.12070008 -54.5600084 837.57265601 -54.52139282 828.47209167 C-54.52743662 826.45996815 -54.53521598 824.44784921 -54.54457796 822.43573838 C-54.56514588 816.91519248 -54.56077241 811.39490623 -54.55221677 805.87433898 C-54.54728372 799.91712826 -54.56530883 793.95998017 -54.58029175 788.00279236 C-54.60579415 776.33521546 -54.60938369 764.66771129 -54.60469122 753.0001144 C-54.6010236 743.51624872 -54.60454881 734.03241005 -54.61314011 724.54854774 C-54.61434492 723.18522229 -54.61554731 721.82189684 -54.61674731 720.45857138 C-54.61856185 718.40407631 -54.62037919 716.34958124 -54.62221201 714.29508619 C-54.63906764 695.19694508 -54.64774487 676.09881413 -54.63939857 657.00066662 C-54.63908582 656.28092758 -54.63877307 655.56118854 -54.63845084 654.81963922 C-54.63683932 651.17185613 -54.63514777 647.52407308 -54.63342424 643.87629005 C-54.63308206 643.15185092 -54.63273989 642.42741178 -54.63238734 641.68101995 C-54.63169403 640.21602849 -54.63099697 638.75103702 -54.63029617 637.28604556 C-54.6195828 614.4929633 -54.63544091 591.70003581 -54.67236328 568.90698242 C-54.71381438 543.28833848 -54.73524657 517.6697904 -54.72721231 492.05111104 C-54.72642164 489.31837389 -54.72569854 486.58563673 -54.72501755 483.85289955 C-54.72483608 483.1800497 -54.72465462 482.50719984 -54.72446766 481.8139606 C-54.72213771 471.66569457 -54.73541703 461.51752549 -54.75664139 451.36928368 C-54.78076187 439.82463405 -54.78328894 428.28019377 -54.75906105 416.73553964 C-54.7472771 410.84639246 -54.74510172 404.95766199 -54.76906586 399.06854248 C-54.79076207 393.67402384 -54.78460375 388.28027033 -54.75654249 382.88578764 C-54.75124254 380.93767339 -54.75600089 378.98949938 -54.77201422 377.04144373 C-54.86182082 365.29819951 -54.39442173 355.50272633 -46.3767029 346.09534711 C-33.16602343 333.6186818 -17.83237945 338 0 338 C0 226.46 0 114.92 0 0 Z M100 100 C100 432.64 100 765.28 100 1108 C799.27 1108 1498.54 1108 2219 1108 C2219 775.36 2219 442.72 2219 100 C1519.73 100 820.46 100 100 100 Z M100 1224 C100 2121.27 100 3018.54 100 3943 C799.27 3943 1498.54 3943 2219 3943 C2219 3045.73 2219 2148.46 2219 1224 C1519.73 1224 820.46 1224 100 1224 Z " fill="#0B4761" transform="translate(4451,1940)"/>
<path d="M0 0 C61.66037736 0 61.66037736 0 71.5 9.3125 C72.3751995 10.51221704 73.21102861 11.74189854 74 13 C74.36326743 13.5419687 74.72653487 14.0839374 75.10081041 14.64232939 C79.61194921 22.87929992 78.5600084 32.42734399 78.52139282 41.52790833 C78.52743662 43.54003185 78.53521598 45.55215079 78.54457796 47.56426162 C78.56514588 53.08480752 78.56077241 58.60509377 78.55221677 64.12566102 C78.54728372 70.08287174 78.56530883 76.04001983 78.58029175 81.99720764 C78.60579415 93.66478454 78.60938369 105.33228871 78.60469122 116.9998856 C78.6010236 126.48375128 78.60454881 135.96758995 78.61314011 145.45145226 C78.61434492 146.81477771 78.61554731 148.17810316 78.61674731 149.54142862 C78.61856185 151.59592369 78.62037919 153.65041876 78.62221201 155.70491381 C78.63906764 174.80305492 78.64774487 193.90118587 78.63939857 212.99933338 C78.63908582 213.71907242 78.63877307 214.43881146 78.63845084 215.18036078 C78.63683932 218.82814387 78.63514777 222.47592692 78.63342424 226.12370995 C78.63308206 226.84814908 78.63273989 227.57258822 78.63238734 228.31898005 C78.63169403 229.78397151 78.63099697 231.24896298 78.63029617 232.71395444 C78.6195828 255.5070367 78.63544091 278.29996419 78.67236328 301.09301758 C78.71381438 326.71166152 78.73524657 352.3302096 78.72721231 377.94888896 C78.72642164 380.68162611 78.72569854 383.41436327 78.72501755 386.14710045 C78.72483608 386.8199503 78.72465462 387.49280016 78.72446766 388.1860394 C78.72213771 398.33430543 78.73541703 408.48247451 78.75664139 418.63071632 C78.78076187 430.17536595 78.78328894 441.71980623 78.75906105 453.26446036 C78.7472771 459.15360754 78.74510172 465.04233801 78.76906586 470.93145752 C78.79076207 476.32597616 78.78460375 481.71972967 78.75654249 487.11421236 C78.75124254 489.06232661 78.75600089 491.01050062 78.77201422 492.95855627 C78.86182082 504.70180049 78.39442173 514.49727367 70.3767029 523.90465289 C52.29954489 540.97740457 19.73187434 532 0 532 C0 356.44 0 180.88 0 0 Z " fill="#000000" transform="translate(6770,3342)"/>
<path d="M0 0 C50.66037736 0 50.66037736 0 60.5 9.3125 C61.3751995 10.51221704 62.21102861 11.74189854 63 13 C63.36326743 13.5419687 63.72653487 14.0839374 64.10081041 14.64232939 C68.61194921 22.87929992 67.5600084 32.42734399 67.52139282 41.52790833 C67.52743662 43.54003185 67.53521598 45.55215079 67.54457796 47.56426162 C67.56514588 53.08480752 67.56077241 58.60509377 67.55221677 64.12566102 C67.54728372 70.08287174 67.56530883 76.04001983 67.58029175 81.99720764 C67.60579415 93.66478454 67.60938369 105.33228871 67.60469122 116.9998856 C67.6010236 126.48375128 67.60454881 135.96758995 67.61314011 145.45145226 C67.61434492 146.81477771 67.61554731 148.17810316 67.61674731 149.54142862 C67.61856185 151.59592369 67.62037919 153.65041876 67.62221201 155.70491381 C67.63906764 174.80305492 67.64774487 193.90118587 67.63939857 212.99933338 C67.63908582 213.71907242 67.63877307 214.43881146 67.63845084 215.18036078 C67.63683932 218.82814387 67.63514777 222.47592692 67.63342424 226.12370995 C67.63308206 226.84814908 67.63273989 227.57258822 67.63238734 228.31898005 C67.63169403 229.78397151 67.63099697 231.24896298 67.63029617 232.71395444 C67.6195828 255.5070367 67.63544091 278.29996419 67.67236328 301.09301758 C67.71381438 326.71166152 67.73524657 352.3302096 67.72721231 377.94888896 C67.72642164 380.68162611 67.72569854 383.41436327 67.72501755 386.14710045 C67.72483608 386.8199503 67.72465462 387.49280016 67.72446766 388.1860394 C67.72213771 398.33430543 67.73541703 408.48247451 67.75664139 418.63071632 C67.78076187 430.17536595 67.78328894 441.71980623 67.75906105 453.26446036 C67.7472771 459.15360754 67.74510172 465.04233801 67.76906586 470.93145752 C67.79076207 476.32597616 67.78460375 481.71972967 67.75654249 487.11421236 C67.75124254 489.06232661 67.75600089 491.01050062 67.77201422 492.95855627 C67.86182082 504.70180049 67.39442173 514.49727367 59.3767029 523.90465289 C43.46350475 538.93367905 19.8012866 532 0 532 C0 356.44 0 180.88 0 0 Z " fill="#000000" transform="translate(6770,5216)"/>
<path d="M0 0 C50.66037736 0 50.66037736 0 60.5 9.3125 C61.3751995 10.51221704 62.21102861 11.74189854 63 13 C63.36326743 13.5419687 63.72653487 14.0839374 64.10081041 14.64232939 C68.61194921 22.87929992 67.5600084 32.42734399 67.52139282 41.52790833 C67.52743662 43.54003185 67.53521598 45.55215079 67.54457796 47.56426162 C67.56514588 53.08480752 67.56077241 58.60509377 67.55221677 64.12566102 C67.54728372 70.08287174 67.56530883 76.04001983 67.58029175 81.99720764 C67.60579415 93.66478454 67.60938369 105.33228871 67.60469122 116.9998856 C67.6010236 126.48375128 67.60454881 135.96758995 67.61314011 145.45145226 C67.61434492 146.81477771 67.61554731 148.17810316 67.61674731 149.54142862 C67.61856185 151.59592369 67.62037919 153.65041876 67.62221201 155.70491381 C67.63906764 174.80305492 67.64774487 193.90118587 67.63939857 212.99933338 C67.63908582 213.71907242 67.63877307 214.43881146 67.63845084 215.18036078 C67.63683932 218.82814387 67.63514777 222.47592692 67.63342424 226.12370995 C67.63308206 226.84814908 67.63273989 227.57258822 67.63238734 228.31898005 C67.63169403 229.78397151 67.63099697 231.24896298 67.63029617 232.71395444 C67.6195828 255.5070367 67.63544091 278.29996419 67.67236328 301.09301758 C67.71381438 326.71166152 67.73524657 352.3302096 67.72721231 377.94888896 C67.72642164 380.68162611 67.72569854 383.41436327 67.72501755 386.14710045 C67.72483608 386.8199503 67.72465462 387.49280016 67.72446766 388.1860394 C67.72213771 398.33430543 67.73541703 408.48247451 67.75664139 418.63071632 C67.78076187 430.17536595 67.78328894 441.71980623 67.75906105 453.26446036 C67.7472771 459.15360754 67.74510172 465.04233801 67.76906586 470.93145752 C67.79076207 476.32597616 67.78460375 481.71972967 67.75654249 487.11421236 C67.75124254 489.06232661 67.75600089 491.01050062 67.77201422 492.95855627 C67.86182082 504.70180049 67.39442173 514.49727367 59.3767029 523.90465289 C43.46350475 538.93367905 19.8012866 532 0 532 C0 356.44 0 180.88 0 0 Z " fill="#000000" transform="translate(6770,2278)"/>
<path d="M0 0 C47.66037736 0 47.66037736 0 57.5 9.3125 C58.3751995 10.51221704 59.21102861 11.74189854 60 13 C60.36326743 13.5419687 60.72653487 14.0839374 61.10081041 14.64232939 C65.61194921 22.87929992 64.5600084 32.42734399 64.52139282 41.52790833 C64.52743662 43.54003185 64.53521598 45.55215079 64.54457796 47.56426162 C64.56514588 53.08480752 64.56077241 58.60509377 64.55221677 64.12566102 C64.54728372 70.08287174 64.56530883 76.04001983 64.58029175 81.99720764 C64.60579415 93.66478454 64.60938369 105.33228871 64.60469122 116.9998856 C64.6010236 126.48375128 64.60454881 135.96758995 64.61314011 145.45145226 C64.61434492 146.81477771 64.61554731 148.17810316 64.61674731 149.54142862 C64.61856185 151.59592369 64.62037919 153.65041876 64.62221201 155.70491381 C64.63906764 174.80305492 64.64774487 193.90118587 64.63939857 212.99933338 C64.63908582 213.71907242 64.63877307 214.43881146 64.63845084 215.18036078 C64.63683932 218.82814387 64.63514777 222.47592692 64.63342424 226.12370995 C64.63308206 226.84814908 64.63273989 227.57258822 64.63238734 228.31898005 C64.63169403 229.78397151 64.63099697 231.24896298 64.63029617 232.71395444 C64.6195828 255.5070367 64.63544091 278.29996419 64.67236328 301.09301758 C64.71381438 326.71166152 64.73524657 352.3302096 64.72721231 377.94888896 C64.72642164 380.68162611 64.72569854 383.41436327 64.72501755 386.14710045 C64.72483608 386.8199503 64.72465462 387.49280016 64.72446766 388.1860394 C64.72213771 398.33430543 64.73541703 408.48247451 64.75664139 418.63071632 C64.78076187 430.17536595 64.78328894 441.71980623 64.75906105 453.26446036 C64.7472771 459.15360754 64.74510172 465.04233801 64.76906586 470.93145752 C64.79076207 476.32597616 64.78460375 481.71972967 64.75654249 487.11421236 C64.75124254 489.06232661 64.75600089 491.01050062 64.77201422 492.95855627 C64.86182082 504.70180049 64.39442173 514.49727367 56.3767029 523.90465289 C41.06857451 538.36222828 19.54432916 532 0 532 C0 356.44 0 180.88 0 0 Z " fill="#000000" transform="translate(6770,4620)"/>
<path d="M0 0 C0 175.56 0 351.12 0 532 C-39.66037736 532 -39.66037736 532 -49.5 522.6875 C-50.3751995 521.48778296 -51.21102861 520.25810146 -52 519 C-52.36326743 518.4580313 -52.72653487 517.9160626 -53.10081041 517.35767061 C-57.61194921 509.12070008 -56.5600084 499.57265601 -56.52139282 490.47209167 C-56.52743662 488.45996815 -56.53521598 486.44784921 -56.54457796 484.43573838 C-56.56514588 478.91519248 -56.56077241 473.39490623 -56.55221677 467.87433898 C-56.54728372 461.91712826 -56.56530883 455.95998017 -56.58029175 450.00279236 C-56.60579415 438.33521546 -56.60938369 426.66771129 -56.60469122 415.0001144 C-56.6010236 405.51624872 -56.60454881 396.03241005 -56.61314011 386.54854774 C-56.61434492 385.18522229 -56.61554731 383.82189684 -56.61674731 382.45857138 C-56.61856185 380.40407631 -56.62037919 378.34958124 -56.62221201 376.29508619 C-56.63906764 357.19694508 -56.64774487 338.09881413 -56.63939857 319.00066662 C-56.63908582 318.28092758 -56.63877307 317.56118854 -56.63845084 316.81963922 C-56.63683932 313.17185613 -56.63514777 309.52407308 -56.63342424 305.87629005 C-56.63308206 305.15185092 -56.63273989 304.42741178 -56.63238734 303.68101995 C-56.63169403 302.21602849 -56.63099697 300.75103702 -56.63029617 299.28604556 C-56.6195828 276.4929633 -56.63544091 253.70003581 -56.67236328 230.90698242 C-56.71381438 205.28833848 -56.73524657 179.6697904 -56.72721231 154.05111104 C-56.72642164 151.31837389 -56.72569854 148.58563673 -56.72501755 145.85289955 C-56.72483608 145.1800497 -56.72465462 144.50719984 -56.72446766 143.8139606 C-56.72213771 133.66569457 -56.73541703 123.51752549 -56.75664139 113.36928368 C-56.78076187 101.82463405 -56.78328894 90.28019377 -56.75906105 78.73553964 C-56.7472771 72.84639246 -56.74510172 66.95766199 -56.76906586 61.06854248 C-56.79076207 55.67402384 -56.78460375 50.28027033 -56.75654249 44.88578764 C-56.75124254 42.93767339 -56.75600089 40.98949938 -56.77201422 39.04144373 C-56.86182082 27.29819951 -56.39442173 17.50272633 -48.3767029 8.09534711 C-34.73353474 -4.78977688 -18.27998431 0 0 0 Z " fill="#000000" transform="translate(4451,4615)"/>
<path d="M0 0 C0 175.56 0 351.12 0 532 C-39.66037736 532 -39.66037736 532 -49.5 522.6875 C-50.3751995 521.48778296 -51.21102861 520.25810146 -52 519 C-52.36326743 518.4580313 -52.72653487 517.9160626 -53.10081041 517.35767061 C-57.61194921 509.12070008 -56.5600084 499.57265601 -56.52139282 490.47209167 C-56.52743662 488.45996815 -56.53521598 486.44784921 -56.54457796 484.43573838 C-56.56514588 478.91519248 -56.56077241 473.39490623 -56.55221677 467.87433898 C-56.54728372 461.91712826 -56.56530883 455.95998017 -56.58029175 450.00279236 C-56.60579415 438.33521546 -56.60938369 426.66771129 -56.60469122 415.0001144 C-56.6010236 405.51624872 -56.60454881 396.03241005 -56.61314011 386.54854774 C-56.61434492 385.18522229 -56.61554731 383.82189684 -56.61674731 382.45857138 C-56.61856185 380.40407631 -56.62037919 378.34958124 -56.62221201 376.29508619 C-56.63906764 357.19694508 -56.64774487 338.09881413 -56.63939857 319.00066662 C-56.63908582 318.28092758 -56.63877307 317.56118854 -56.63845084 316.81963922 C-56.63683932 313.17185613 -56.63514777 309.52407308 -56.63342424 305.87629005 C-56.63308206 305.15185092 -56.63273989 304.42741178 -56.63238734 303.68101995 C-56.63169403 302.21602849 -56.63099697 300.75103702 -56.63029617 299.28604556 C-56.6195828 276.4929633 -56.63544091 253.70003581 -56.67236328 230.90698242 C-56.71381438 205.28833848 -56.73524657 179.6697904 -56.72721231 154.05111104 C-56.72642164 151.31837389 -56.72569854 148.58563673 -56.72501755 145.85289955 C-56.72483608 145.1800497 -56.72465462 144.50719984 -56.72446766 143.8139606 C-56.72213771 133.66569457 -56.73541703 123.51752549 -56.75664139 113.36928368 C-56.78076187 101.82463405 -56.78328894 90.28019377 -56.75906105 78.73553964 C-56.7472771 72.84639246 -56.74510172 66.95766199 -56.76906586 61.06854248 C-56.79076207 55.67402384 -56.78460375 50.28027033 -56.75654249 44.88578764 C-56.75124254 42.93767339 -56.75600089 40.98949938 -56.77201422 39.04144373 C-56.86182082 27.29819951 -56.39442173 17.50272633 -48.3767029 8.09534711 C-34.73353474 -4.78977688 -18.27998431 0 0 0 Z " fill="#000000" transform="translate(4451,3342)"/>
<path d="M0 0 C0 175.56 0 351.12 0 532 C-37.66037736 532 -37.66037736 532 -47.5 522.6875 C-48.3751995 521.48778296 -49.21102861 520.25810146 -50 519 C-50.36326743 518.4580313 -50.72653487 517.9160626 -51.10081041 517.35767061 C-55.61194921 509.12070008 -54.5600084 499.57265601 -54.52139282 490.47209167 C-54.52743662 488.45996815 -54.53521598 486.44784921 -54.54457796 484.43573838 C-54.56514588 478.91519248 -54.56077241 473.39490623 -54.55221677 467.87433898 C-54.54728372 461.91712826 -54.56530883 455.95998017 -54.58029175 450.00279236 C-54.60579415 438.33521546 -54.60938369 426.66771129 -54.60469122 415.0001144 C-54.6010236 405.51624872 -54.60454881 396.03241005 -54.61314011 386.54854774 C-54.61434492 385.18522229 -54.61554731 383.82189684 -54.61674731 382.45857138 C-54.61856185 380.40407631 -54.62037919 378.34958124 -54.62221201 376.29508619 C-54.63906764 357.19694508 -54.64774487 338.09881413 -54.63939857 319.00066662 C-54.63908582 318.28092758 -54.63877307 317.56118854 -54.63845084 316.81963922 C-54.63683932 313.17185613 -54.63514777 309.52407308 -54.63342424 305.87629005 C-54.63308206 305.15185092 -54.63273989 304.42741178 -54.63238734 303.68101995 C-54.63169403 302.21602849 -54.63099697 300.75103702 -54.63029617 299.28604556 C-54.6195828 276.4929633 -54.63544091 253.70003581 -54.67236328 230.90698242 C-54.71381438 205.28833848 -54.73524657 179.6697904 -54.72721231 154.05111104 C-54.72642164 151.31837389 -54.72569854 148.58563673 -54.72501755 145.85289955 C-54.72483608 145.1800497 -54.72465462 144.50719984 -54.72446766 143.8139606 C-54.72213771 133.66569457 -54.73541703 123.51752549 -54.75664139 113.36928368 C-54.78076187 101.82463405 -54.78328894 90.28019377 -54.75906105 78.73553964 C-54.7472771 72.84639246 -54.74510172 66.95766199 -54.76906586 61.06854248 C-54.79076207 55.67402384 -54.78460375 50.28027033 -54.75654249 44.88578764 C-54.75124254 42.93767339 -54.75600089 40.98949938 -54.77201422 39.04144373 C-54.86182082 27.29819951 -54.39442173 17.50272633 -46.3767029 8.09534711 C-33.16602343 -4.3813182 -17.83237945 0 0 0 Z " fill="#000000" transform="translate(4451,2278)"/>
<path d="M0 0 C0 175.56 0 351.12 0 532 C-36.66037736 532 -36.66037736 532 -46.5 522.6875 C-47.3751995 521.48778296 -48.21102861 520.25810146 -49 519 C-49.36326743 518.4580313 -49.72653487 517.9160626 -50.10081041 517.35767061 C-54.61194921 509.12070008 -53.5600084 499.57265601 -53.52139282 490.47209167 C-53.52743662 488.45996815 -53.53521598 486.44784921 -53.54457796 484.43573838 C-53.56514588 478.91519248 -53.56077241 473.39490623 -53.55221677 467.87433898 C-53.54728372 461.91712826 -53.56530883 455.95998017 -53.58029175 450.00279236 C-53.60579415 438.33521546 -53.60938369 426.66771129 -53.60469122 415.0001144 C-53.6010236 405.51624872 -53.60454881 396.03241005 -53.61314011 386.54854774 C-53.61434492 385.18522229 -53.61554731 383.82189684 -53.61674731 382.45857138 C-53.61856185 380.40407631 -53.62037919 378.34958124 -53.62221201 376.29508619 C-53.63906764 357.19694508 -53.64774487 338.09881413 -53.63939857 319.00066662 C-53.63908582 318.28092758 -53.63877307 317.56118854 -53.63845084 316.81963922 C-53.63683932 313.17185613 -53.63514777 309.52407308 -53.63342424 305.87629005 C-53.63308206 305.15185092 -53.63273989 304.42741178 -53.63238734 303.68101995 C-53.63169403 302.21602849 -53.63099697 300.75103702 -53.63029617 299.28604556 C-53.6195828 276.4929633 -53.63544091 253.70003581 -53.67236328 230.90698242 C-53.71381438 205.28833848 -53.73524657 179.6697904 -53.72721231 154.05111104 C-53.72642164 151.31837389 -53.72569854 148.58563673 -53.72501755 145.85289955 C-53.72483608 145.1800497 -53.72465462 144.50719984 -53.72446766 143.8139606 C-53.72213771 133.66569457 -53.73541703 123.51752549 -53.75664139 113.36928368 C-53.78076187 101.82463405 -53.78328894 90.28019377 -53.75906105 78.73553964 C-53.7472771 72.84639246 -53.74510172 66.95766199 -53.76906586 61.06854248 C-53.79076207 55.67402384 -53.78460375 50.28027033 -53.75654249 44.88578764 C-53.75124254 42.93767339 -53.75600089 40.98949938 -53.77201422 39.04144373 C-53.86182082 27.29819951 -53.39442173 17.50272633 -45.3767029 8.09534711 C-32.38550792 -4.17402875 -17.58891245 0 0 0 Z " fill="#000000" transform="translate(4451,5211)"/>
</svg>
