<?xml version="1.0" encoding="UTF-8"?>
<svg version="1.1" xmlns="http://www.w3.org/2000/svg" width="512" height="512">
<path d="M0 0 C1.1019722 -0.00990463 2.2039444 -0.01980927 3.33930969 -0.03001404 C5.14573189 -0.02326157 5.14573189 -0.02326157 6.98864746 -0.01637268 C8.26052414 -0.02323593 9.53240082 -0.03009918 10.84281921 -0.03717041 C14.32835005 -0.0551126 17.81362928 -0.05393172 21.29919243 -0.04822803 C24.20935394 -0.0451381 27.11946699 -0.05122632 30.0296216 -0.05726677 C36.89442252 -0.07131345 43.75909899 -0.06974918 50.62390137 -0.05836487 C57.70633623 -0.04687921 64.78839262 -0.0609662 71.87077761 -0.08776134 C77.95242623 -0.10990896 84.03395597 -0.116558 90.11564207 -0.11068493 C93.74762251 -0.10731236 97.37936023 -0.10975015 101.01130676 -0.12693596 C105.05998767 -0.14525779 109.10793049 -0.13122791 113.15661621 -0.11402893 C114.36089767 -0.1236969 115.56517914 -0.13336487 116.80595398 -0.14332581 C117.90792618 -0.13349167 119.00989838 -0.12365753 120.14526367 -0.11352539 C121.10242027 -0.11331611 122.05957687 -0.11310682 123.04573822 -0.1128912 C126.31007112 0.53376491 127.50646361 1.83743622 129.57263184 4.38768005 C130.08729553 6.32237244 130.08729553 6.32237244 130.1060791 8.35838318 C130.12191544 9.12597961 130.13775177 9.89357605 130.15406799 10.68443298 C130.14662819 11.91425903 130.14662819 11.91425903 130.13903809 13.16893005 C130.14523666 14.01942932 130.15143524 14.86992859 130.15782166 15.74620056 C130.16491488 17.5415584 130.16175443 19.33698208 130.14904785 21.13230896 C130.13517659 23.87881952 130.16926231 26.62192575 130.20739746 29.3681488 C130.20834865 31.11424339 130.20648987 32.86034223 130.20153809 34.60643005 C130.2147963 35.42631409 130.2280545 36.24619812 130.24171448 37.09092712 C130.22918137 37.85852356 130.21664825 38.62612 130.20373535 39.41697693 C130.20277359 40.08886047 130.20181183 40.76074402 130.20082092 41.45298767 C129.1542466 44.67622 127.44918248 45.68124377 124.57263184 47.38768005 C121.56220098 47.7550158 118.93004509 47.8953797 115.92687988 47.84178162 C114.61756736 47.84250483 114.61756736 47.84250483 113.28180408 47.84324265 C110.46556667 47.84026488 107.65039771 47.80984208 104.83435059 47.77830505 C103.0920462 47.77242146 101.34973475 47.76834226 99.60742188 47.76609802 C93.15821714 47.74515491 86.70916391 47.68930978 80.26013184 47.63768005 C65.84325684 47.55518005 51.42638184 47.47268005 36.57263184 47.38768005 C36.57263184 93.25768005 36.57263184 139.12768005 36.57263184 186.38768005 C41.52263184 186.38768005 46.47263184 186.38768005 51.57263184 186.38768005 C51.56152878 184.90794205 51.55042572 183.42820404 51.53898621 181.90362549 C51.43769605 167.96906505 51.36240694 154.03455242 51.31357098 140.09972095 C51.28779521 132.93538433 51.25265728 125.77132263 51.19543457 118.60716248 C51.14557966 112.36245451 51.11333624 106.11794564 51.10218936 99.87304419 C51.09567383 96.56662728 51.07774969 93.26091241 51.04398155 89.95464516 C51.00776641 86.26246272 51.00268365 82.57146615 51.00500488 78.87913513 C50.9870285 77.78437363 50.96905212 76.68961212 50.95053101 75.56167603 C50.9831091 70.78322069 51.00272981 68.20840313 53.7792511 64.2098999 C56.80018986 62.239236 58.2685324 61.75651049 61.83435059 61.7407074 C62.85891357 61.72494659 63.88347656 61.70918579 64.93908691 61.69294739 C66.03503174 61.70306854 67.13097656 61.7131897 68.26013184 61.72361755 C69.39539307 61.71883392 70.5306543 61.71405029 71.70031738 61.7091217 C74.0975483 61.70572333 76.49482559 61.71492114 78.89196777 61.73582458 C82.56001178 61.76258797 86.22499545 61.73607137 89.89294434 61.7040863 C92.22368025 61.70739041 94.55441427 61.71379665 96.88513184 61.72361755 C98.52904907 61.70843582 98.52904907 61.70843582 100.20617676 61.69294739 C108.6702707 61.82315014 108.6702707 61.82315014 111.80310059 64.80418396 C113.57263184 67.38768005 113.57263184 67.38768005 113.57263184 69.38768005 C119.18263184 69.38768005 124.79263184 69.38768005 130.57263184 69.38768005 C130.90263184 68.06768005 131.23263184 66.74768005 131.57263184 65.38768005 C133.23375465 63.07923869 134.09109037 62.46725782 136.91856384 62 C137.8413765 61.99459702 138.76418915 61.98919403 139.71496582 61.98362732 C141.28690956 61.96460106 141.28690956 61.96460106 142.89060974 61.94519043 C144.02188797 61.94812607 145.1531662 61.95106171 146.31872559 61.9540863 C148.06271385 61.94622353 148.06271385 61.94622353 149.8419342 61.9382019 C152.30237021 61.93177429 154.76283691 61.9331282 157.2232666 61.94163513 C160.99197038 61.95013907 164.75915626 61.92140103 168.52770996 61.88963318 C170.91638138 61.888021 173.30505549 61.88859901 175.69372559 61.8915863 C176.82297958 61.88035233 177.95223358 61.86911835 179.1157074 61.85754395 C180.16682205 61.8669249 181.21793671 61.87630585 182.30090332 61.88597107 C183.22451157 61.88613724 184.14811981 61.88630341 185.09971619 61.88647461 C188.34321013 62.54385927 189.50984979 63.85323948 191.57263184 66.38768005 C192.84265137 69.28953552 192.84265137 69.28953552 193.95544434 72.75486755 C194.16741959 73.40206757 194.37939484 74.04926758 194.59779358 74.71607971 C195.308827 76.89484795 196.00293101 79.07865464 196.69763184 81.26268005 C197.20124676 82.81520172 197.70625218 84.36727289 198.21252441 85.91893005 C199.0472949 88.47827768 199.88093149 91.03795451 200.71034241 93.5990448 C203.20473194 101.29612444 205.75894605 108.9725545 208.32653809 116.64549255 C208.73390198 117.86324371 209.14126587 119.08099487 209.56097412 120.33564758 C210.79372955 124.01975792 212.026921 127.70372213 213.26013184 131.38768005 C214.82882233 136.07442059 216.39510871 140.76195302 217.95935059 145.45018005 C218.30985977 146.49658661 218.66036896 147.54299316 219.02149963 148.62110901 C219.34347824 149.58692902 219.66545685 150.55274902 219.99719238 151.5478363 C220.27854538 152.38967468 220.55989838 153.23151306 220.84977722 154.09886169 C222.12179907 158.12654153 222.70084268 161.56842633 222.71980286 165.81504822 C222.73053581 167.46800652 222.73053581 167.46800652 222.7414856 169.15435791 C222.74551895 170.96078011 222.74551895 170.96078011 222.74963379 172.80369568 C222.75949059 174.7115107 222.75949059 174.7115107 222.76954651 176.65786743 C222.79053486 180.86987558 222.80093984 185.08188391 222.81091309 189.29393005 C222.81496175 190.74504617 222.81907871 192.1961621 222.82326317 193.64727783 C222.84229858 200.46135975 222.85653646 207.27543091 222.86487514 214.08953428 C222.87466003 221.95509125 222.90101873 229.82036774 222.94137603 237.68582582 C222.97151076 243.76744976 222.98634124 249.84899312 222.98965615 255.93069029 C222.99200849 259.56270529 223.00099316 263.19442005 223.02611732 266.82635498 C223.05367428 270.87497228 223.04957513 274.92295941 223.04260254 278.97166443 C223.0554126 280.17594589 223.06822266 281.38022736 223.0814209 282.6210022 C223.07100517 284.27396049 223.07100517 284.27396049 223.06037903 285.96031189 C223.06276738 286.91746849 223.06515574 287.87462509 223.06761646 288.86078644 C222.421099 292.16125428 221.20302742 293.35091359 218.57263184 295.38768005 C215.18103027 295.84178162 215.18103027 295.84178162 211.18200684 295.77830505 C210.47739319 295.77264526 209.77277954 295.76698547 209.04681396 295.76115417 C206.80471756 295.73883084 204.56424196 295.68864759 202.32263184 295.63768005 C200.79921748 295.61760957 199.27577798 295.59935975 197.75231934 295.58299255 C194.02523353 295.53898123 190.29909097 295.46998377 186.57263184 295.38768005 C186.27872559 296.15338318 185.98481934 296.9190863 185.68200684 297.70799255 C181.11934828 308.72906217 171.93413699 317.06644285 161.21325684 321.90330505 C145.7813637 327.97830371 130.058262 328.49320641 114.59216309 322.16893005 C103.9215007 317.30018676 95.02923019 309.91831083 89.57263184 299.38768005 C89.21921985 298.05952763 88.8828701 296.72657553 88.57263184 295.38768005 C87.9926947 295.3965625 87.41275757 295.40544495 86.81524658 295.41459656 C80.78086195 295.50307034 74.74666146 295.56341427 68.71179199 295.60740662 C66.45943722 295.62752562 64.2071347 295.65482413 61.95495605 295.68943787 C58.71800853 295.73794215 55.48175137 295.7606461 52.24450684 295.77830505 C51.23708435 295.7989502 50.22966187 295.81959534 49.19171143 295.84086609 C42.23385144 295.8431008 42.23385144 295.8431008 38.90563965 293.55076599 C37.57263184 291.38768005 37.57263184 291.38768005 37.57263184 288.38768005 C31.96263184 288.38768005 26.35263184 288.38768005 20.57263184 288.38768005 C19.91263184 290.03768005 19.25263184 291.68768005 18.57263184 293.38768005 C16.57263184 295.38768005 16.57263184 295.38768005 14.59492493 295.59213257 C13.78552963 295.57227798 12.97613434 295.5524234 12.14221191 295.53196716 C11.22398148 295.51633224 10.30575104 295.50069733 9.35969543 295.48458862 C8.36390976 295.46163223 7.36812408 295.43867584 6.34216309 295.4150238 C4.23866369 295.40121201 2.13514412 295.39023475 0.03161621 295.38182068 C-3.29006906 295.3614603 -6.60788373 295.32535861 -9.92858887 295.24046326 C-22.36127146 294.3417495 -22.36127146 294.3417495 -33.34265137 298.75608826 C-35.1158227 301.5863198 -36.2390619 304.27871393 -37.42736816 307.38768005 C-45.72775927 317.73467065 -58.35909037 324.38878042 -71.42736816 326.38768005 C-88.03002861 327.38449333 -103.28765667 325.02521207 -116.38049316 313.87205505 C-123.80053089 306.90064234 -123.80053089 306.90064234 -125.39001465 303.06419373 C-126.50074801 300.39404467 -127.43711049 298.49861771 -129.42736816 296.38768005 C-133.86297077 295.11156423 -138.15188276 295.21905667 -142.73986816 295.32518005 C-143.9573877 295.31809021 -145.17490723 295.31100037 -146.42932129 295.30369568 C-149.43103037 295.29192427 -152.42653591 295.32131946 -155.42736816 295.38768005 C-155.72755859 296.33006531 -156.02774902 297.27245056 -156.33703613 298.24339294 C-159.97865564 308.74505386 -169.79852276 316.33518408 -179.36486816 321.20018005 C-193.5078281 328.01359031 -209.35932782 328.56971412 -224.31018066 323.6493988 C-236.39114929 318.75948293 -245.8950194 310.69148358 -252.42736816 299.38768005 C-252.78842667 298.06158592 -253.12666497 296.72874921 -253.42736816 295.38768005 C-254.3757959 295.40862732 -255.32422363 295.42957458 -256.3013916 295.45115662 C-259.82753241 295.51941565 -263.35296915 295.56951934 -266.8795166 295.60740662 C-268.40436902 295.62749604 -269.92914464 295.65477321 -271.45373535 295.68943787 C-273.64826415 295.73807801 -275.84177285 295.76067401 -278.03674316 295.77830505 C-279.3564209 295.79925232 -280.67609863 295.82019958 -282.0357666 295.84178162 C-285.42736816 295.38768005 -285.42736816 295.38768005 -287.85388184 293.91209412 C-290.17181734 290.19332715 -290.01981842 286.91159746 -289.99377441 282.60643005 C-289.99997299 281.75593079 -290.00617157 280.90543152 -290.01255798 280.02915955 C-290.01965121 278.23380171 -290.01649076 276.43837803 -290.00378418 274.64305115 C-289.98991291 271.89654058 -290.02399864 269.15343436 -290.06213379 266.4072113 C-290.06308497 264.66111672 -290.0612262 262.91501787 -290.05627441 261.16893005 C-290.07616173 259.939104 -290.07616173 259.939104 -290.09645081 258.68443298 C-290.0307094 254.65806928 -289.94057828 252.97667111 -287.22009277 249.85447693 C-284.18304174 248.25935475 -282.5081058 247.95670738 -279.11486816 248.13768005 C-278.23186035 248.1737738 -277.34885254 248.20986755 -276.43908691 248.24705505 C-275.77521973 248.2934613 -275.11135254 248.33986755 -274.42736816 248.38768005 C-274.45355225 247.62624695 -274.47973633 246.86481384 -274.50671387 246.08030701 C-274.61083831 242.62047571 -274.67574546 239.1609742 -274.73986816 235.70018005 C-274.7817627 234.50199646 -274.82365723 233.30381287 -274.86682129 232.06932068 C-274.9894559 223.26415584 -274.9894559 223.26415584 -272.58361816 219.51268005 C-271.54205566 218.81143005 -270.50049316 218.11018005 -269.42736816 217.38768005 C-268.24920532 216.55949768 -268.24920532 216.55949768 -267.04724121 215.71458435 C-264.26782758 213.78303377 -261.44991961 211.92396108 -258.61486816 210.07518005 C-257.6358252 209.43000427 -256.65678223 208.78482849 -255.64807129 208.12010193 C-253.24458628 206.53731912 -250.83766789 204.96005759 -248.42736816 203.38768005 C-250.02391235 203.3736615 -250.02391235 203.3736615 -251.65270996 203.35935974 C-255.61341728 203.31939348 -259.57335323 203.25361706 -263.53356934 203.18016052 C-265.24538236 203.15198919 -266.95732454 203.13075553 -268.66931152 203.11668396 C-271.13490735 203.09520041 -273.59895677 203.04852589 -276.06408691 202.99705505 C-276.82573654 202.99582642 -277.58738617 202.99459778 -278.37211609 202.99333191 C-281.61617656 202.90453244 -284.17889431 202.50282346 -287.12994385 201.13529968 C-290.9207202 196.60169593 -290.1135895 191.60101195 -290.05847168 185.87986755 C-290.06562698 184.5982373 -290.07278229 183.31660706 -290.08015442 181.99613953 C-290.09867216 178.48355967 -290.08572852 174.97173865 -290.06606412 171.45919037 C-290.04967885 167.78283809 -290.05849033 164.10653393 -290.06358337 160.43016052 C-290.06810451 154.25637184 -290.05223361 148.08288612 -290.02429199 141.90916443 C-289.9922397 134.77217157 -289.99225556 127.63572512 -290.00950676 120.49869347 C-290.02537243 113.63221258 -290.01863813 106.76593196 -290.00156975 99.89945984 C-289.99469838 96.97765266 -289.99573248 94.05600597 -290.0031147 91.13420105 C-290.01220076 87.05432294 -289.98824126 82.97528845 -289.96081543 78.89549255 C-289.96734131 77.68186035 -289.97386719 76.46822815 -289.98059082 75.21781921 C-289.96786636 74.10743286 -289.95514191 72.99704651 -289.94203186 71.85301208 C-289.93922494 70.88848114 -289.93641802 69.9239502 -289.93352604 68.93019104 C-289.26328246 65.56345161 -288.18440894 64.39923929 -285.42736816 62.38768005 C-282.83800507 61.88431549 -282.83800507 61.88431549 -279.84814453 61.87974548 C-278.14470131 61.86282654 -278.14470131 61.86282654 -276.40684509 61.8455658 C-275.16516068 61.85366272 -273.92347626 61.86175964 -272.64416504 61.87010193 C-270.6778286 61.85958801 -270.6778286 61.85958801 -268.67176819 61.84886169 C-265.07872536 61.83062955 -261.48614204 61.83769504 -257.8930912 61.85037804 C-254.13265369 61.86050643 -250.37225547 61.85111281 -246.61181641 61.84483337 C-240.29684384 61.83755647 -233.98205841 61.84714567 -227.66711426 61.86619568 C-220.36654333 61.88796468 -213.06641923 61.88091332 -205.76585913 61.85889006 C-199.49736376 61.84073716 -193.2290029 61.83817714 -186.96048975 61.84864473 C-183.2167443 61.85488034 -179.47320887 61.85571366 -175.72947693 61.84249878 C-171.55623926 61.82879674 -167.38377167 61.84778801 -163.21057129 61.87010193 C-161.34804466 61.85795654 -161.34804466 61.85795654 -159.44789124 61.8455658 C-158.31226242 61.85684509 -157.17663361 61.86812439 -156.0065918 61.87974548 C-155.01993782 61.88125359 -154.03328384 61.88276169 -153.01673126 61.88431549 C-149.70499829 62.52810663 -148.53504056 63.81334369 -146.42736816 66.38768005 C-146.09736816 67.04768005 -145.76736816 67.70768005 -145.42736816 68.38768005 C-139.81736816 68.71768005 -134.20736816 69.04768005 -128.42736816 69.38768005 C-128.09736816 67.73768005 -127.76736816 66.08768005 -127.42736816 64.38768005 C-123.63776036 61.86127485 -120.58533978 62.08079375 -116.19226074 62.0688324 C-115.35301559 62.05878677 -114.51377045 62.04874115 -113.64909363 62.03839111 C-110.87336923 62.00748496 -108.09774161 61.99050338 -105.32189941 61.97361755 C-103.39803734 61.95491188 -101.47418352 61.93533892 -99.55033875 61.91493225 C-94.48528911 61.86354159 -89.42021285 61.82395299 -84.3550415 61.78678894 C-79.18702573 61.74679274 -74.01912136 61.69568042 -68.85119629 61.64549255 C-58.70999842 61.54865117 -48.56873776 61.46427268 -38.42736816 61.38768005 C-38.0729364 60.66771347 -37.71850464 59.94774689 -37.35333252 59.20596313 C-34.00934118 52.41774371 -30.65572453 45.63440906 -27.29122543 38.85633373 C-25.56189227 35.37158807 -23.83632443 31.88508256 -22.1192627 28.39427185 C-20.46168048 25.02473158 -18.79433912 21.66018891 -17.12015533 18.29886818 C-16.48354268 17.01641327 -15.85045 15.73220474 -15.22097015 14.44623375 C-14.33787836 12.64369244 -13.44100981 10.84792044 -12.5435791 9.05247498 C-12.03727966 8.02877304 -11.53098022 7.00507111 -11.00933838 5.9503479 C-8.1166569 1.26443047 -5.4402804 0.01381102 0 0 Z " fill="#000000" transform="translate(289.4273681640625,92.61231994628906)"/>
<path d="M0 0 C1.23750708 0.00138269 1.23750708 0.00138269 2.50001431 0.00279331 C3.44377422 0.00141865 4.38753414 0.00004398 5.35989285 -0.00137234 C6.40358028 0.00222294 7.44726772 0.00581821 8.52258205 0.00952244 C9.61512798 0.00937641 10.70767391 0.00923038 11.83332729 0.00907993 C15.46405899 0.00977961 19.09474012 0.01757454 22.72546291 0.02539158 C25.2351011 0.02725557 27.74473964 0.02867956 30.25437832 0.0296793 C36.1971526 0.03311435 42.1399105 0.0410051 48.08267635 0.05102879 C55.50982591 0.0632853 62.93697771 0.06866991 70.36413479 0.0742197 C83.61870167 0.08495972 96.87325236 0.10203797 110.12780666 0.12304783 C110.12780666 5.40304783 110.12780666 10.68304783 110.12780666 16.12304783 C108.48742428 16.13184719 108.48742428 16.13184719 106.81390285 16.14082432 C96.51370248 16.19800843 86.2137141 16.27074745 75.91372967 16.35876274 C70.61824213 16.40351246 65.32283234 16.44275847 60.02722073 16.46948338 C54.91776358 16.49547038 49.80860493 16.53584018 44.69933224 16.58623409 C42.74891526 16.60293397 40.79844661 16.61442877 38.8479681 16.62066174 C36.11833727 16.63026889 33.38947549 16.65828734 30.66003323 16.69067478 C29.4473074 16.68852215 29.4473074 16.68852215 28.21008205 16.68632603 C25.14497747 16.73784561 22.67237411 16.84126151 19.92137814 18.26476383 C17.38073328 20.89707582 17.62077051 22.63176139 17.60882473 26.25431919 C17.59491192 27.5373946 17.58099911 28.82047001 17.5666647 30.14242649 C17.57137797 31.56720193 17.57647195 32.99197614 17.58190823 34.416749 C17.57317569 35.91472035 17.56269103 37.41268237 17.55058193 38.91063023 C17.52266167 42.98064457 17.51931856 47.05035547 17.52030182 51.12045169 C17.51717786 55.37263277 17.49157051 59.62467614 17.4683218 63.87678623 C17.42771847 71.93027543 17.40741095 79.98368358 17.39434791 88.0372594 C17.37849249 97.20530475 17.34008308 106.37321187 17.29975462 115.54117715 C17.21729632 134.40178174 17.16621892 153.26229855 17.12780666 172.12304783 C6.56780666 172.12304783 -3.99219334 172.12304783 -14.87219334 172.12304783 C-13.74739824 161.99989193 -13.74739824 161.99989193 -13.10363865 158.61425877 C-12.95952549 157.84665226 -12.81541233 157.07904575 -12.66693211 156.28817844 C-12.51294956 155.48602909 -12.35896702 154.68387974 -12.20031834 153.85742283 C-12.03747349 152.99347904 -11.87462864 152.12953526 -11.7068491 151.23941135 C-11.35993946 149.39933298 -11.01170408 147.55950412 -10.6622324 145.71991062 C-9.74895913 140.90551132 -8.85006051 136.0884286 -7.95031834 131.27148533 C-7.7717429 130.31621952 -7.59316746 129.36095371 -7.40918064 128.37674046 C-5.86185834 120.0898889 -4.33822086 111.79967594 -2.87219334 103.49804783 C-2.56136814 101.78826756 -2.56136814 101.78826756 -2.24426365 100.04394627 C-1.19226874 94.00920408 -0.18872701 88.23763047 -0.87219334 82.12304783 C-5.37233658 77.88098596 -11.36312988 78.67333622 -17.15734959 78.68945408 C-18.79721081 78.6815913 -18.79721081 78.6815913 -20.47020054 78.67356968 C-22.77744797 78.66715565 -25.08472813 78.66847842 -27.39196873 78.67700291 C-30.92567996 78.68552609 -34.45778181 78.65671957 -37.99133396 78.62500095 C-40.23417202 78.62338919 -42.47701294 78.62396599 -44.71984959 78.62695408 C-46.30588741 78.61010311 -46.30588741 78.61010311 -47.92396641 78.59291172 C-53.52054187 78.57049787 -53.52054187 78.57049787 -58.48474216 80.83105564 C-60.03303941 83.3887566 -60.6875303 85.3490294 -61.22375584 88.29101658 C-61.53385593 89.93251682 -61.53385593 89.93251682 -61.85022068 91.60717869 C-62.06372166 92.8292905 -62.27722263 94.05140232 -62.49719334 95.31054783 C-62.7351865 96.60162449 -62.97317966 97.89270115 -63.21838474 99.22290134 C-63.94725798 103.19477088 -64.65025662 107.17092558 -65.34899998 111.14819431 C-65.93649089 114.48864078 -66.52820923 117.82832494 -67.12024021 121.1679697 C-70.06879057 137.81430498 -72.97897119 154.46700808 -75.87219334 171.12304783 C-86.10219334 171.12304783 -96.33219334 171.12304783 -106.87219334 171.12304783 C-105.747194 158.74805517 -105.747194 158.74805517 -104.88830662 154.17114353 C-104.6978577 153.14249683 -104.50740879 152.11385014 -104.3111887 151.05403233 C-104.10702335 149.97981525 -103.90285801 148.90559818 -103.69250584 147.79882908 C-103.47907536 146.65375385 -103.26564487 145.50867863 -103.0457468 144.32890415 C-102.3676401 140.69687837 -101.6825527 137.06621124 -100.99719334 133.43554783 C-100.54490581 131.01961914 -100.09307913 128.60360412 -99.64172459 126.18750095 C-99.20043269 123.8287556 -98.75902822 121.4700313 -98.31750584 119.11132908 C-98.10370274 117.96914921 -97.88989964 116.82696934 -97.66961765 115.65017796 C-96.75855625 110.79550449 -95.8421039 105.94258884 -94.88293552 101.09716892 C-94.66841236 99.99987713 -94.66841236 99.99987713 -94.4495554 98.88041782 C-94.08744296 97.03477263 -93.71824005 95.19052216 -93.34826756 93.3464365 C-92.66310376 88.70735056 -92.3798433 84.60009793 -93.87219334 80.12304783 C-96.80452888 78.99268665 -99.71983275 78.97655677 -102.83679295 78.93017673 C-104.31368847 78.90608234 -104.31368847 78.90608234 -105.82042027 78.8815012 C-110.30080405 78.83690753 -114.78104396 78.7960217 -119.26159763 78.77295017 C-121.62530435 78.75636047 -123.98896029 78.72903133 -126.35241795 78.69091892 C-129.76422173 78.6362159 -133.17485416 78.61428936 -136.58703709 78.59961033 C-137.64237141 78.57694096 -138.69770573 78.55427158 -139.78501987 78.53091526 C-144.22662062 78.54373099 -147.05488637 78.63964784 -150.92346287 80.92773533 C-153.80472131 85.65210397 -154.48099227 90.35266888 -155.33703709 95.77148533 C-155.53597065 96.92516605 -155.73490421 98.07884678 -155.93986607 99.26748753 C-156.5812307 103.00818809 -157.19534355 106.75282532 -157.80969334 110.49804783 C-158.2434774 113.05181664 -158.67951529 115.60520363 -159.11779881 118.15820408 C-159.76942121 121.95523826 -160.41974972 125.75242881 -161.06256199 129.55096531 C-163.41816611 143.46152929 -166.13297922 157.28280808 -168.87219334 171.12304783 C-178.77219334 171.12304783 -188.67219334 171.12304783 -198.87219334 171.12304783 C-198.21766007 162.6141153 -197.42842737 154.55912144 -195.91125584 146.22461033 C-195.7200214 145.14658146 -195.52878696 144.06855259 -195.33175755 142.95785618 C-194.72614533 139.55350076 -194.11164947 136.15081671 -193.49719334 132.74804783 C-193.09300227 130.47731148 -192.6893526 128.20647869 -192.28625584 125.93554783 C-190.44760089 115.61976742 -188.57823501 105.31807852 -186.41467381 95.06494236 C-185.14075148 88.57122618 -185.14075148 88.57122618 -185.87219334 82.12304783 C-190.61304023 77.99510531 -196.22324729 78.6729471 -202.15734959 78.68945408 C-203.79721081 78.6815913 -203.79721081 78.6815913 -205.47020054 78.67356968 C-207.77744797 78.66715565 -210.08472813 78.66847842 -212.39196873 78.67700291 C-215.92567996 78.68552609 -219.45778181 78.65671957 -222.99133396 78.62500095 C-225.23417202 78.62338919 -227.47701294 78.62396599 -229.71984959 78.62695408 C-231.30588741 78.61010311 -231.30588741 78.61010311 -232.92396641 78.59291172 C-233.90856342 78.60229267 -234.89316044 78.61167362 -235.90759373 78.62133884 C-236.77187489 78.62150501 -237.63615604 78.62167118 -238.52662754 78.62184238 C-241.72757792 79.30582821 -242.87957248 80.56277829 -244.87219334 83.12304783 C-245.78519593 85.46354095 -245.78519593 85.46354095 -246.19177341 88.057374 C-246.47464458 89.52645962 -246.47464458 89.52645962 -246.76323032 91.02522373 C-246.95000843 92.08231037 -247.13678654 93.13939701 -247.32922459 94.22851658 C-247.53707081 95.33478901 -247.74491703 96.44106144 -247.95906162 97.58085728 C-248.61361877 101.09206578 -249.24478075 104.60689653 -249.87219334 108.12304783 C-250.2746748 110.33486295 -250.67749971 112.54661561 -251.08068943 114.75830173 C-252.26662196 121.31284666 -253.41509694 127.87368121 -254.55969334 134.43554783 C-254.95331555 136.67712961 -255.34719521 138.91866619 -255.74133396 141.1601572 C-257.49316165 151.14127873 -259.21542703 161.12563863 -260.87219334 171.12304783 C-266.81219334 171.12304783 -272.75219334 171.12304783 -278.87219334 171.12304783 C-278.87219334 135.15304783 -278.87219334 99.18304783 -278.87219334 62.12304783 C-265.49752537 62.06697361 -265.49752537 62.06697361 -251.85266209 62.00976658 C-245.49872845 61.975656 -239.1448272 61.9396709 -232.79092216 61.90097046 C-224.55297384 61.85104526 -216.31507881 61.80559242 -208.07702732 61.77661228 C-201.55610955 61.75365864 -195.03534309 61.72029042 -188.51454526 61.67434627 C-185.06089987 61.65037818 -181.60740465 61.63167305 -178.15367794 61.62543392 C-174.3008117 61.61827881 -170.44832245 61.58787513 -166.59558201 61.55542088 C-164.87252338 61.55757351 -164.87252338 61.55757351 -163.11465549 61.55976963 C-162.0671764 61.54723148 -161.0196973 61.53469334 -159.94047642 61.52177525 C-159.02882316 61.51716628 -158.1171699 61.51255732 -157.17789078 61.50780869 C-154.36704115 61.03875108 -153.57707364 60.37116088 -151.87219334 58.12304783 C-151.21219334 56.80304783 -150.55219334 55.48304783 -149.87219334 54.12304783 C-144.26219334 54.12304783 -138.65219334 54.12304783 -132.87219334 54.12304783 C-131.88219334 57.09304783 -131.88219334 57.09304783 -130.87219334 60.12304783 C-127.52695596 61.79566652 -123.75932687 61.28861802 -120.07971287 61.30004978 C-118.7136591 61.30990658 -118.7136591 61.30990658 -117.32000828 61.3199625 C-114.29834002 61.33971633 -111.27672148 61.35136172 -108.25500584 61.36132908 C-106.70965467 61.36744237 -106.70965467 61.36744237 -105.1330843 61.37367916 C-99.68202762 61.39454715 -94.23099618 61.40884665 -88.77990818 61.41821384 C-83.14153749 61.4292898 -77.5035602 61.46370142 -71.86532879 61.50338554 C-67.53652287 61.52949105 -63.20781163 61.5379002 -58.87893391 61.54149532 C-56.80006212 61.5463757 -54.72119496 61.55803067 -52.64239979 61.57653332 C-49.73576721 61.60079941 -46.83016505 61.59998286 -43.92346287 61.59301853 C-43.06201664 61.60582859 -42.20057041 61.61863865 -41.31301975 61.63183689 C-36.59241304 61.60149376 -36.59241304 61.60149376 -32.49452305 59.44235325 C-30.70360151 56.88202658 -29.24827971 54.3473863 -27.86364841 51.54419041 C-27.02807156 49.86774197 -27.02807156 49.86774197 -26.17561436 48.15742588 C-25.58087216 46.94419865 -24.98624493 45.73091505 -24.39172459 44.51757908 C-23.77283001 43.26978069 -23.15316384 42.02236474 -22.53276157 40.77531528 C-20.90688919 37.502698 -19.29034521 34.22556433 -17.67608738 30.94720554 C-15.08434034 25.68823918 -12.47746517 20.43674714 -9.87241268 15.18436337 C-8.96312607 13.34805566 -8.05721524 11.51011459 -7.15193272 9.67183018 C-6.60433796 8.56365437 -6.0567432 7.45547855 -5.49255466 6.31372166 C-5.0094231 5.3331731 -4.52629154 4.35262455 -4.02851963 3.3423624 C-2.36814826 0.15564392 -2.36814826 0.15564392 0 0 Z " fill="#000000" transform="translate(293.8721933364868,107.87695217132568)"/>
<path d="M0 0 C5.61 0 11.22 0 17 0 C17.99 1.98 18.98 3.96 20 6 C21.54230977 7.54230977 23.0040971 7.16247487 25.15258789 7.20532227 C26.03342545 7.22526749 26.914263 7.24521271 27.8217926 7.26576233 C28.77907761 7.28247482 29.73636261 7.29918732 30.72265625 7.31640625 C31.69786728 7.33718735 32.67307831 7.35796844 33.67784119 7.37937927 C36.8059863 7.44498412 39.93421822 7.50381028 43.0625 7.5625 C45.1777435 7.60567483 47.29297809 7.64928877 49.40820312 7.69335938 C54.60537587 7.80067655 59.80263577 7.9024222 65 8 C65.65601744 9.51646821 66.2992664 11.03846175 66.9375 12.5625 C67.47697266 13.83287109 67.47697266 13.83287109 68.02734375 15.12890625 C69.1374509 18.40572856 69.59726139 21.57036278 70 25 C68.18382675 25.00879936 68.18382675 25.00879936 66.33096313 25.01777649 C54.94115762 25.07489723 43.551545 25.14760255 32.16193581 25.23571491 C26.30588776 25.28051358 20.44991082 25.31974857 14.59375 25.34643555 C8.94615634 25.37237399 3.29883495 25.41270866 -2.34859085 25.46318626 C-4.50720467 25.47991922 -6.66586566 25.49139328 -8.82453537 25.49761391 C-11.83953398 25.50718533 -14.85382584 25.53516031 -17.86865234 25.56762695 C-18.76848343 25.56619186 -19.66831451 25.56475677 -20.59541321 25.5632782 C-23.3225959 25.56950679 -23.3225959 25.56950679 -27 26 C-29.3977202 29.59658029 -29.26310933 31.24205839 -29.29052734 35.51928711 C-29.29724457 36.17654282 -29.30396179 36.83379852 -29.31088257 37.51097107 C-29.32987698 39.68317223 -29.33378729 41.85506472 -29.3359375 44.02734375 C-29.34236402 45.53805163 -29.34909227 47.04875825 -29.35610962 48.5594635 C-29.36808567 51.72611375 -29.37179007 54.89265487 -29.37060547 58.05932617 C-29.37040216 62.1160439 -29.39771424 66.172062 -29.43214989 70.22861385 C-29.45439198 73.34875194 -29.45844387 76.46872087 -29.45738602 79.58893013 C-29.45974566 81.08446224 -29.46858973 82.57999876 -29.48405075 84.0754528 C-29.5036597 86.16790601 -29.49789507 88.25884042 -29.48583984 90.35131836 C-29.4901149 92.13644081 -29.4901149 92.13644081 -29.49447632 93.95762634 C-28.89998941 97.61533702 -27.89265923 98.76122862 -25 101 C-22.59051627 101.96714355 -22.59051627 101.96714355 -19.90625 102.45703125 C-18.38136963 102.78985107 -18.38136963 102.78985107 -16.82568359 103.12939453 C-15.72820801 103.35481934 -14.63073242 103.58024414 -13.5 103.8125 C-11.14789111 104.32431836 -8.79634609 104.83873349 -6.4453125 105.35546875 C-5.22360352 105.62149902 -4.00189453 105.8875293 -2.74316406 106.16162109 C3.40719995 107.53915501 9.51500454 109.07969136 15.625 110.625 C16.8109375 110.92365967 17.996875 111.22231934 19.21875 111.5300293 C21.47971271 112.09987446 23.74046661 112.67054894 26.00097656 113.2421875 C29.83220868 114.21028783 33.66587007 115.16845824 37.5 116.125 C38.70398438 116.42664063 39.90796875 116.72828125 41.1484375 117.0390625 C44.06920651 117.76777363 46.99109599 118.49114436 49.9140625 119.2109375 C58.5931459 121.35456653 67.21920537 123.58138311 75.80078125 126.08984375 C80.03383876 127.29412018 84.29728718 128.35076374 88.57421875 129.38671875 C90.40351139 129.84919692 92.20997825 130.40332608 94 131 C94 147.17 94 163.34 94 180 C87.07 180 80.14 180 73 180 C69.12986706 175.58407908 67.36338965 173.03010203 65 168 C56.72760595 156.99730841 43.20272464 151.92572193 30 150 C15.8740127 148.33811914 2.5929176 151.36372095 -8.79296875 160.125 C-14.39346428 164.88294311 -18.45217548 168.59841608 -21.1875 175.5 C-22.445625 176.985 -23.70375 178.47 -25 180 C-31.93 180 -38.86 180 -46 180 C-46 123.57 -46 67.14 -46 9 C-32.8 8.67 -19.6 8.34 -6 8 C-1.89459074 4.31622777 -1.89459074 4.31622777 0 0 Z " fill="#F7CF40" transform="translate(403,162)"/>
<path d="M0 0 C3.25941108 0.02408383 6.51720516 -0.01218078 9.77643746 -0.04692703 C17.49541923 -0.12811349 25.2099299 -0.11404225 32.92881846 -0.03486657 C39.90919306 0.03537802 46.87915352 0.00004951 53.85850596 -0.13740563 C126.44161819 -1.53497095 126.44161819 -1.53497095 151.94393706 22.52554393 C152.7099966 23.26283937 152.7099966 23.26283937 153.49153209 24.01502967 C159.8591334 30.15741258 159.8591334 30.15741258 167.95248485 32.9582212 C170.49006539 32.90055236 170.49006539 32.90055236 172.66246104 31.09184241 C174.84201209 28.02432612 174.7723377 26.41967782 174.34996104 22.71684241 C172.78931988 20.6398137 172.78931988 20.6398137 170.41246104 19.02934241 C169.51914073 18.36418616 168.62582042 17.69902991 167.70542979 17.01371741 C162.85992918 13.64162299 157.88539526 10.45313289 152.88926768 7.30985999 C152.17246837 6.85764075 151.45566905 6.40542151 150.71714854 5.93949866 C150.06858897 5.5348136 149.4200294 5.13012855 148.75181651 4.7131803 C148.05789805 4.21999305 148.05789805 4.21999305 147.34996104 3.71684241 C147.34996104 3.38684241 147.34996104 3.05684241 147.34996104 2.71684241 C177.37996104 2.71684241 207.40996104 2.71684241 238.34996104 2.71684241 C238.34996104 18.22684241 238.34996104 33.73684241 238.34996104 49.71684241 C217.66718503 50.15803932 217.66718503 50.15803932 208.83238292 50.25395179 C202.80940383 50.31964896 196.78826857 50.39724803 190.76670909 50.5466764 C185.91006485 50.66643878 181.05539742 50.73201409 176.19739032 50.76049209 C174.3467865 50.78077699 172.49628794 50.82039475 170.64652896 50.87987304 C156.10255587 51.32881438 156.10255587 51.32881438 151.72255015 47.30024695 C149.95119801 44.50286413 148.66409212 41.74710452 147.34996104 38.71684241 C146.37094256 37.69629216 145.3764285 36.68965512 144.34996104 35.71684241 C144.34996104 35.05684241 144.34996104 34.39684241 144.34996104 33.71684241 C143.78535167 33.45645179 143.22074229 33.19606116 142.63902354 32.92777991 C140.13380038 31.60249121 137.99609259 30.0359438 135.72496104 28.34184241 C123.4094916 19.62292599 110.03259877 18.56912611 95.34996104 19.71684241 C83.15331831 22.05977598 70.6096433 29.35736452 63.33433604 39.53715491 C61.19950416 42.86089723 59.11751681 46.18173088 57.34996104 49.71684241 C52.99751983 50.03776594 48.64811617 50.23206409 44.28746104 50.40434241 C43.05833995 50.49651038 41.82921885 50.58867835 40.56285167 50.68363929 C36.8673679 50.79320889 33.90850619 50.73982935 30.34996104 49.71684241 C27.84636171 47.16920791 26.37337959 44.75374268 24.78794932 41.56278968 C19.76522824 31.62223625 10.14493444 26.87126216 0.34996104 22.71684241 C-0.48277333 22.35461585 -1.31550771 21.99238929 -2.17347646 21.61918616 C-14.41695225 17.12712593 -29.73455069 18.87480879 -41.47816396 23.93559241 C-52.37357876 29.41373393 -59.71112718 36.89239917 -65.76332021 47.40824866 C-67.65003896 49.71684241 -67.65003896 49.71684241 -70.38050771 50.05668616 C-71.12945302 49.94453773 -71.87839833 49.83238929 -72.65003896 49.71684241 C-72.97324283 46.5526087 -73.16581536 43.39261388 -73.33753896 40.21684241 C-73.42970693 39.32996741 -73.5218749 38.44309241 -73.61683583 37.52934241 C-73.73560871 34.59241313 -73.54328839 32.52495703 -72.65003896 29.71684241 C-70.59583879 27.80893397 -70.59583879 27.80893397 -67.89526296 26.00903296 C-63.62937409 23.09046174 -59.52405795 20.07316256 -55.46377492 16.87423682 C-37.35138085 3.11374193 -22.4599963 -0.24470141 0 0 Z " fill="#365075" transform="translate(103.65003895759583,292.2831575870514)"/>
<path d="M0 0 C29.7 0 59.4 0 90 0 C94.51203229 10.15207265 94.51203229 10.15207265 95.83105469 13.8034668 C96.13106384 14.63271164 96.431073 15.46195648 96.74017334 16.31632996 C98.08050423 20.10396106 99.40294839 23.89744437 100.71044922 27.6965332 C101.39705366 29.67201254 102.09702688 31.64290189 102.81103516 33.60864258 C108.05995454 48.08031522 110.01000132 60.61825927 109 76 C102.40131373 75.40294907 96.21265374 74.22700206 89.79858398 72.59155273 C88.82191269 72.34756744 87.84524139 72.10358215 86.838974 71.85220337 C83.63991924 71.05157509 80.44302513 70.24265504 77.24609375 69.43359375 C75.01706132 68.8740021 72.78789768 68.31493288 70.55860901 67.75636292 C64.71302609 66.29021181 58.86924504 64.81700112 53.02581787 63.34228516 C46.00275588 61.57143807 38.97747508 59.80941658 31.95256805 58.04590607 C21.30000218 55.37067419 10.65030631 52.6842863 0 50 C0 33.5 0 17 0 0 Z " fill="#7BB8FA" transform="translate(388,201)"/>
<path d="M0 0 C8.10944954 5.76125877 13.85797804 13.86591963 16.5078125 23.4609375 C18.27430592 35.39637182 16.55034 46.23674504 9.59375 56.203125 C2.66554176 64.69332928 -7.73832974 70.66233658 -18.75390625 71.796875 C-32.4349764 71.95287352 -41.33371834 68.17338557 -51.20703125 58.83984375 C-58.81668566 50.76547762 -61.91198505 40.38137519 -61.765625 29.4921875 C-60.83784225 19.20705301 -56.1015182 9.67682817 -48.54296875 2.6484375 C-33.63297405 -9.06865067 -16.12838136 -9.96016028 0 0 Z " fill="#445E86" transform="translate(231.4921875,332.5390625)"/>
<path d="M0 0 C7.09774787 4.06966179 12.24281362 8.48882795 16.58203125 15.48046875 C17.31486328 16.64835937 17.31486328 16.64835937 18.0625 17.83984375 C22.85702793 26.7036769 23.07213063 36.75749096 20.91796875 46.4765625 C16.92921146 57.59305563 8.19630749 66.54800578 -2.328125 71.62109375 C-11.46202305 75.37708921 -20.82225744 76.02558132 -30.29296875 72.85546875 C-41.13513609 68.29953606 -49.77614684 60.07010358 -54.41796875 49.23046875 C-58.26796355 38.08369327 -57.24801483 27.40305627 -52.1640625 16.88671875 C-41.85210337 -1.77034083 -19.32993693 -9.44020176 0 0 Z " fill="#445E86" transform="translate(102.41796875,329.51953125)"/>
<path d="M0 0 C9.67346833 6.08713988 16.88840388 15.07438805 19.55078125 26.328125 C21.28936913 36.66894334 20.02868975 45.76315263 15 55 C8.06480876 64.7119506 -1.08521946 71.93749865 -13 74 C-23.86649148 75.09612181 -32.89960597 73.28314559 -41.75 66.75 C-50.56344513 59.30578653 -57.41916366 50.96459969 -58.4453125 39.0234375 C-58.99360586 27.15449883 -55.99120924 17.86524775 -48 9 C-34.94583412 -4.69157632 -17.31737273 -8.73248199 0 0 Z " fill="#445E86" transform="translate(446,330)"/>
<path d="M0 0 C1.29349365 0.00523682 2.5869873 0.01047363 3.91967773 0.01586914 C4.9496714 0.01799156 4.9496714 0.01799156 6.00047302 0.02015686 C8.20144949 0.0257706 10.40232557 0.03832532 12.60327148 0.05102539 C14.09220231 0.05603863 15.58113473 0.06060184 17.07006836 0.06469727 C20.72700223 0.07574446 24.38387707 0.09301826 28.04077148 0.11352539 C27.26655285 5.75767485 26.33917201 11.36720257 25.36889648 16.98071289 C25.20605164 17.92555542 25.04320679 18.87039795 24.87542725 19.84387207 C24.34893079 22.89239089 23.82018442 25.94051177 23.29077148 28.98852539 C23.02248535 30.53555145 23.02248535 30.53555145 22.7487793 32.11383057 C20.07546175 47.5019047 17.21850006 62.82070664 14.04077148 78.11352539 C3.81077148 78.11352539 -6.41922852 78.11352539 -16.95922852 78.11352539 C-16.33041429 70.56775467 -15.6427544 63.43412221 -14.25219727 56.05493164 C-14.00219719 54.69016945 -14.00219719 54.69016945 -13.74714661 53.2978363 C-13.21909201 50.422869 -12.68302303 47.54946563 -12.14672852 44.67602539 C-11.79920511 42.78875095 -11.45219705 40.90138153 -11.10571289 39.01391602 C-10.24425778 34.33177835 -9.37147164 29.6518465 -8.49383545 24.97271729 C-7.93838629 22.00205671 -7.38937805 19.03024473 -6.84057617 16.05834961 C-6.48062953 14.12747763 -6.12044923 12.19664919 -5.76000977 10.26586914 C-5.59381638 9.35986465 -5.42762299 8.45386017 -5.25639343 7.520401 C-3.8701971 0.14847303 -3.8701971 0.14847303 0 0 Z " fill="#C88E21" transform="translate(64.959228515625,200.886474609375)"/>
<path d="M0 0 C1.29349365 0.00523682 2.5869873 0.01047363 3.91967773 0.01586914 C4.9496714 0.01799156 4.9496714 0.01799156 6.00047302 0.02015686 C8.20144949 0.0257706 10.40232557 0.03832532 12.60327148 0.05102539 C14.09220231 0.05603863 15.58113473 0.06060184 17.07006836 0.06469727 C20.72700223 0.07574446 24.38387707 0.09301826 28.04077148 0.11352539 C25.66287108 17.33583776 22.5685843 34.40617479 19.35327148 51.48852539 C19.04741623 53.11588623 19.04741623 53.11588623 18.73538208 54.77612305 C18.14789605 57.89680925 17.55796189 61.01701797 16.96655273 64.13696289 C16.78751404 65.08389008 16.60847534 66.03081726 16.42401123 67.00643921 C16.25669495 67.88401886 16.08937866 68.76159851 15.91699219 69.66577148 C15.77139359 70.43118256 15.62579498 71.19659363 15.4757843 71.98519897 C15.05564941 74.04073423 14.549619 76.07813533 14.04077148 78.11352539 C3.81077148 78.11352539 -6.41922852 78.11352539 -16.95922852 78.11352539 C-15.8341724 66.86296427 -15.8341724 66.86296427 -15.06713867 62.55053711 C-14.89671051 61.58187714 -14.72628235 60.61321716 -14.5506897 59.61520386 C-14.36839813 58.60144684 -14.18610657 57.58768982 -13.99829102 56.54321289 C-13.80705658 55.46331085 -13.61582214 54.38340881 -13.41879272 53.27078247 C-12.81075845 49.84273303 -12.19749197 46.41564275 -11.58422852 42.98852539 C-11.18025757 40.71254141 -10.7766091 38.43650016 -10.37329102 36.16040039 C-9.41697389 30.77267489 -8.45219419 25.38653211 -7.48034668 20.00158691 C-7.14612826 18.14933263 -6.81294611 16.29689089 -6.4810791 14.44421387 C-6.0690811 12.14831175 -5.6519759 9.85341405 -5.23266602 7.55883789 C-5.00756348 6.3189209 -4.78246094 5.07900391 -4.55053711 3.80151367 C-3.74588544 0.14370404 -3.74588544 0.14370404 0 0 Z " fill="#C88E21" transform="translate(249.959228515625,200.886474609375)"/>
<path d="M0 0 C10.23 0 20.46 0 31 0 C29.87494733 11.2505267 29.87494733 11.2505267 29.21557617 15.00878906 C29.06839645 15.85797913 28.92121674 16.70716919 28.76957703 17.58209229 C28.6122963 18.46765808 28.45501556 19.35322388 28.29296875 20.265625 C28.04296867 21.69766266 28.04296867 21.69766266 27.78791809 23.15863037 C27.25782357 26.1896904 26.7226774 29.2198338 26.1875 32.25 C25.84017915 34.23431978 25.49317184 36.21869446 25.14648438 38.203125 C22.82187599 51.47935809 20.42206783 64.74121971 18 78 C7.77 78 -2.46 78 -13 78 C-13 67.87541312 -13 67.87541312 -12.22143555 63.84179688 C-12.05093185 62.93635132 -11.88042816 62.03090576 -11.70475769 61.09802246 C-11.51730484 60.14786255 -11.32985199 59.19770264 -11.13671875 58.21875 C-10.84774467 56.70021423 -10.84774467 56.70021423 -10.55293274 55.15100098 C-9.9388514 51.93246165 -9.31357576 48.71622541 -8.6875 45.5 C-8.07641188 42.32127608 -7.46766095 39.14211096 -6.85916138 35.96289062 C-6.46306885 33.89496272 -6.06584439 31.82725129 -5.66744995 29.75976562 C-4.34899257 22.90076286 -3.09202497 16.03367287 -1.91593933 9.14880371 C-1.38366892 6.05324088 -0.76292478 3.05169912 0 0 Z " fill="#C88E21" transform="translate(154,201)"/>
<path d="M0 0 C36.3 0 72.6 0 110 0 C110 5.28 110 10.56 110 16 C108.11510864 16.02187378 108.11510864 16.02187378 106.19213867 16.04418945 C101.53462108 16.10211604 96.87758984 16.17934911 92.22045898 16.26245117 C90.20393765 16.2957271 88.18732258 16.32375068 86.1706543 16.34643555 C83.273519 16.37993256 80.37724482 16.43224544 77.48046875 16.48828125 C76.57725388 16.49467117 75.674039 16.5010611 74.74345398 16.50764465 C73.4824865 16.53733589 73.4824865 16.53733589 72.19604492 16.56762695 C71.08684944 16.58428154 71.08684944 16.58428154 69.95524597 16.60127258 C67.4122638 17.11985527 66.5530661 17.94200927 65 20 C64.67 21.32 64.34 22.64 64 24 C58.06 24 52.12 24 46 24 C45.34 22.35 44.68 20.7 44 19 C41.63366992 16.63366992 41.13363844 16.73892764 37.91748047 16.68115234 C37.07675995 16.66128265 36.23603943 16.64141296 35.36984253 16.62094116 C34.46146637 16.60938995 33.55309021 16.59783875 32.6171875 16.5859375 C31.22308151 16.55688828 31.22308151 16.55688828 29.80081177 16.5272522 C26.8256352 16.46736315 23.85042012 16.4210339 20.875 16.375 C18.86066 16.33682879 16.84633646 16.29777757 14.83203125 16.2578125 C9.88815425 16.161654 4.94420083 16.0776576 0 16 C0 10.72 0 5.44 0 0 Z " fill="#FBB229" transform="translate(263,357)"/>
<path d="M0 0 C29.7 0 59.4 0 90 0 C94.51203229 10.15207265 94.51203229 10.15207265 95.83105469 13.8034668 C96.13106384 14.63271164 96.431073 15.46195648 96.74017334 16.31632996 C98.08050423 20.10396106 99.40294839 23.89744437 100.71044922 27.6965332 C101.39705366 29.67201254 102.09702688 31.64290189 102.81103516 33.60864258 C108.05077714 48.05501241 110.07170684 60.63408344 109 76 C107.59090784 75.8567035 106.18220966 75.70953042 104.77368164 75.56079102 C103.9891713 75.47926285 103.20466095 75.39773468 102.39637756 75.31373596 C98.66340424 74.82501165 95.07170632 73.90139914 91.4375 72.9375 C90.71498047 72.75123047 89.99246094 72.56496094 89.24804688 72.37304688 C87.49726953 71.92085935 85.74841475 71.46123825 84 71 C84.66 70.67 85.32 70.34 86 70 C86.32664155 54.54677334 82.0742219 41.50524065 76.9375 27.0625 C75.79739585 23.79237227 74.66380703 20.52008422 73.53382874 17.2464447 C72.83445512 15.2272688 72.12805273 13.2105103 71.4138031 11.19654846 C71.09669876 10.29387741 70.77959442 9.39120636 70.45288086 8.46118164 C70.03104774 7.27353966 70.03104774 7.27353966 69.60069275 6.06190491 C69 4 69 4 69 1 C46.23 1 23.46 1 0 1 C0 0.67 0 0.34 0 0 Z " fill="#4B94F5" transform="translate(388,201)"/>
<path d="M0 0 C5.50127258 3.27982847 9.5107819 7.78827554 11.41015625 13.9375 C12.97034904 21.65488219 12.18882496 28.43659172 7.84765625 35.1015625 C3.4767539 40.05669437 -1.84881105 43.44730922 -8.46484375 44.453125 C-15.27131261 44.85725909 -20.62095916 43.06890042 -26.15234375 39.1015625 C-31.17984262 33.9494149 -34.15228126 28.62823389 -34.58984375 21.4140625 C-34.4302123 14.71951844 -31.92791128 9.16164151 -27.4375 4.2109375 C-19.7381615 -2.73026045 -9.5935872 -4.21566255 0 0 Z " fill="#010102" transform="translate(96.15234375,343.8984375)"/>
<path d="M0 0 C6.27111366 3.75737612 10.44198353 9.48691823 12.5625 16.4375 C13.72185402 24.06347308 12.0357561 30.17061948 7.5625 36.4375 C2.10181624 41.96672791 -3.58179885 43.99504249 -11.25 44.875 C-17.3409859 44.68576549 -22.83335265 41.74158099 -27.3359375 37.7578125 C-32.50829993 32.08082935 -33.88434476 26.54071972 -33.6796875 18.95703125 C-33.0152553 12.044793 -30.35757503 7.55640345 -25.23828125 2.9140625 C-18.26259398 -2.80569843 -8.32874416 -3.72306098 0 0 Z " fill="#010102" transform="translate(437.4375,343.5625)"/>
<path d="M0 0 C5.97253314 3.14343849 9.50879841 7.55496559 11.70703125 13.8984375 C12.62604985 20.33156773 12.94273855 26.69972499 9.58203125 32.4609375 C5.3531662 38.02023201 0.42640216 41.73457229 -6.29296875 43.8984375 C-13.72849347 44.87820881 -19.59560527 43.04806743 -25.98046875 39.3359375 C-31.40176446 33.62159878 -33.62383397 27.69039402 -33.98046875 19.8359375 C-33.71587062 13.07398529 -32.00501352 8.74423027 -27.29296875 3.8984375 C-19.3969901 -3.01470836 -9.63114807 -4.27615128 0 0 Z " fill="#010102" transform="translate(220.29296875,344.1015625)"/>
<path d="M0 0 C2.52121432 0.62349358 5.04196931 1.24875361 7.5625 1.875 C8.26697266 2.04902344 8.97144531 2.22304688 9.69726562 2.40234375 C10.74624023 2.66337891 10.74624023 2.66337891 11.81640625 2.9296875 C12.45006104 3.08679199 13.08371582 3.24389648 13.73657227 3.40576172 C16.83807558 4.22002761 19.91676709 5.11907631 23 6 C23 22.17 23 38.34 23 55 C16.07 55 9.14 55 2 55 C0.08152523 51.16305047 -0.247146 49.92349249 -0.22705078 45.86425781 C-0.22689972 44.84350159 -0.22674866 43.82274536 -0.22659302 42.77105713 C-0.21627045 41.67613953 -0.20594788 40.58122192 -0.1953125 39.453125 C-0.1924826 38.3267865 -0.18965271 37.200448 -0.18673706 36.03997803 C-0.17554374 32.44321054 -0.15044037 28.84669221 -0.125 25.25 C-0.11496912 22.81120151 -0.10584346 20.37239912 -0.09765625 17.93359375 C-0.07560716 11.95564418 -0.04213784 5.97783989 0 0 Z " fill="#FCB229" transform="translate(474,287)"/>
<path d="M0 0 C4.62 0 9.24 0 14 0 C13.44361797 7.82425731 12.53969201 15.37993806 11.0390625 23.07421875 C10.84782806 24.08233109 10.65659363 25.09044342 10.45956421 26.12910461 C9.85381393 29.31636996 9.2397574 32.50196098 8.625 35.6875 C8.02089546 38.8464431 7.41855504 42.00571827 6.81658936 45.16506958 C6.42636106 47.21311215 6.03546218 49.26102708 5.64385986 51.30880737 C4.01329711 59.85845501 2.47839121 68.42284509 1 77 C-3.62 77 -8.24 77 -13 77 C-12.35804885 69.72593775 -11.3310355 62.61458767 -10.0390625 55.4296875 C-9.84782806 54.34978546 -9.65659363 53.26988342 -9.45956421 52.15725708 C-8.85152994 48.72920764 -8.23826345 45.30211736 -7.625 41.875 C-7.22102905 39.59901601 -6.81738058 37.32297477 -6.4140625 35.046875 C-4.33763204 23.35255609 -2.21384179 11.66908868 0 0 Z " fill="#F9B129" transform="translate(246,202)"/>
<path d="M0 0 C4.62 0 9.24 0 14 0 C13.35804885 7.27406225 12.3310355 14.38541233 11.0390625 21.5703125 C10.84782806 22.65021454 10.65659363 23.73011658 10.45956421 24.84274292 C9.85152994 28.27079236 9.23826345 31.69788264 8.625 35.125 C8.22102905 37.40098399 7.81738058 39.67702523 7.4140625 41.953125 C5.33763204 53.64744391 3.21384179 65.33091132 1 77 C-3.62 77 -8.24 77 -13 77 C-12.36363303 65.66886868 -10.26664419 54.70245471 -8.1875 43.5625 C-7.8399766 41.67522556 -7.49296853 39.78785614 -7.14648438 37.90039062 C-4.8192785 25.25651941 -2.41796422 12.62678599 0 0 Z " fill="#F9B129" transform="translate(61,202)"/>
<path d="M0 0 C4.62 0 9.24 0 14 0 C11.11674307 18.64151831 7.92056045 37.19195613 4.32397461 55.7097168 C4.17719772 56.46955872 4.03042084 57.22940063 3.87919617 58.01226807 C3.60621673 59.42343575 3.33096373 60.83416669 3.05281067 62.24432373 C2.39740946 65.63055003 1.86343609 68.99934314 1.47167969 72.42407227 C1 76 1 76 0 77 C-2.18639453 77.07258946 -4.37500389 77.08373783 -6.5625 77.0625 C-7.76003906 77.05347656 -8.95757812 77.04445313 -10.19140625 77.03515625 C-11.58166016 77.01775391 -11.58166016 77.01775391 -13 77 C-13.20877151 70.14073967 -12.46253442 63.93903673 -11.13671875 57.21875 C-10.84774467 55.70021423 -10.84774467 55.70021423 -10.55293274 54.15100098 C-9.9388514 50.93246165 -9.31357576 47.71622541 -8.6875 44.5 C-8.07639678 41.32119752 -7.46763056 38.14195408 -6.85916138 34.96264648 C-6.4631893 32.89550922 -6.06596694 30.82861104 -5.66744995 28.76196289 C-4.34266642 21.87395279 -3.08311581 14.97743981 -1.91593933 8.06091309 C-1.43889686 5.27228927 -0.89693261 2.69079784 0 0 Z " fill="#F9B129" transform="translate(154,202)"/>
<path d="M0 0 C13.86 0 27.72 0 42 0 C46 10 46 10 47 17 C15.65 17 -15.7 17 -48 17 C-48 16.67 -48 16.34 -48 16 C-23.91 16 0.18 16 25 16 C23.35 11.71 21.7 7.42 20 3 C20 2.34 20 1.68 20 1 C13.4 1 6.8 1 0 1 C0 0.67 0 0.34 0 0 Z " fill="#D79C26" transform="translate(426,170)"/>
<path d="M0 0 C0.88945312 -0.01546875 1.77890625 -0.0309375 2.6953125 -0.046875 C6.91296442 -0.02169499 9.39378796 0.14439648 13.08984375 2.3125 C15 4.5 15 4.5 15.5625 8 C15 11.5 15 11.5 13.65234375 13.6875 C9.39111696 16.59944291 5.03511687 16.07806383 0 16 C-0.99773437 16.01546875 -1.99546875 16.0309375 -3.0234375 16.046875 C-10.25647752 16.00809194 -10.25647752 16.00809194 -13.65234375 13.6875 C-15.66681245 10.41763777 -15.60322302 8.25338767 -15 4.5 C-10.68558527 -0.44084304 -6.10686188 -0.10620629 0 0 Z " fill="#060501" transform="translate(388,284.5)"/>
<path d="M0 0 C5.61 0 11.22 0 17 0 C17 5.28 17 10.56 17 16 C11.39 16 5.78 16 0 16 C0 10.72 0 5.44 0 0 Z " fill="#F3AC28" transform="translate(139,357)"/>
<path d="M0 0 C5.28 0 10.56 0 16 0 C16 5.28 16 10.56 16 16 C10.72 16 5.44 16 0 16 C0 10.72 0 5.44 0 0 Z " fill="#FBB229" transform="translate(481,357)"/>
<path d="M0 0 C5.28 0 10.56 0 16 0 C16 5.28 16 10.56 16 16 C10.72 16 5.44 16 0 16 C0 10.72 0 5.44 0 0 Z " fill="#FBB229" transform="translate(15,357)"/>
<path d="M0 0 C3 2.0625 3 2.0625 5 5 C5.1506132 9.29247606 4.66257079 11.22050496 1.875 14.5 C-1.93532871 16.48799759 -3.91964404 16.20899436 -8 15 C-10.81972931 12.63506574 -10.97850831 11.1719335 -11.4375 7.5 C-11 4 -11 4 -9.4375 1.5625 C-6.01685857 -0.63021887 -3.99048721 -0.63007693 0 0 Z " fill="#697DB0" transform="translate(430,357)"/>
<path d="M0 0 C2.875 1.5625 2.875 1.5625 5 4 C5.625 7.4375 5.625 7.4375 5 11 C2.55804571 14.37564269 1.0769435 15.75320045 -3 16.6875 C-6.42905924 15.90167392 -8.06237136 14.62880414 -10.1484375 11.7890625 C-11.67373104 8.58454672 -11.04902601 6.27049287 -10 3 C-7.07633177 -0.35680426 -4.30565927 -0.61509418 0 0 Z " fill="#697DAF" transform="translate(88,357)"/>
<path d="M0 0 C2.875 1.5625 2.875 1.5625 5 4 C5.80740332 8.44071826 5.50331836 10.26790056 2.9375 14 C0 16 0 16 -3.625 16 C-8.61768902 14.52068474 -8.61768902 14.52068474 -10 12 C-10.75912409 5.16788321 -10.75912409 5.16788321 -8.375 1.5 C-5.25991849 -0.4674199 -3.62829011 -0.5923739 0 0 Z " fill="#6B7FB2" transform="translate(212,357)"/>
</svg>
