<?xml version="1.0" encoding="utf-8"?>
<!-- Svg Vector Icons : http://www.onlinewebfonts.com/icon -->
<!DOCTYPE svg PUBLIC "-//W3C//DTD SVG 1.1//EN" "http://www.w3.org/Graphics/SVG/1.1/DTD/svg11.dtd">
<svg version="1.1" xmlns="http://www.w3.org/2000/svg" xmlns:xlink="http://www.w3.org/1999/xlink" x="0px" y="0px" viewBox="0 0 256 256" enable-background="new 0 0 256 256" xml:space="preserve">
<metadata> Svg Vector Icons : http://www.onlinewebfonts.com/icon </metadata>
<g><g><g><path fill="#000000" d="M63.7,44.9c-0.6,0.2-4.1,5.1-7.8,10.8c-3.7,5.6-7,10.5-7.3,10.8c-0.3,0.2-4.2,1.2-8.6,2.1c-4.4,0.9-8.6,1.8-9.3,2.1c-0.9,0.4-2.6,2.8-6.5,9.2L19,88.6h-2.9c-3.4,0-4.9,0.6-5.6,2.2c-0.8,1.8-0.7,27.5,0.1,29.1c0.4,0.7,6.2,6.7,12.9,13.4l12.2,12.2l-2.4,1.6c-3.5,2.4-7.8,7-10.3,11c-9.1,14.7-6.9,32.8,5.7,45.2l3.4,3.4H21.2H10v2.5v2.5h118h118v-2.5v-2.5h-14.8h-14.8l3.4-3.4c5.6-5.5,9.9-13.6,10.8-20.1l0.3-2.4h5.9c6.4,0,7.8-0.4,8.7-2.2c0.7-1.5,0.7-31.2,0-32.5c-0.3-0.6-4.6-5.2-9.6-10.2l-9.2-9.2l-8.6-20.7c-10.4-25.1-9.7-23.5-11.1-24.1c-1.8-0.8-38.6-0.7-40.2,0.1c-1.1,0.6-2.8,4.7-15.7,38.7l-14.5,38.1h-5.2c-2.9,0-5.2-0.1-5.2-0.2c0-0.1,2.7-7,6-15.3c3.3-8.3,6.1-15.4,6.1-15.7c0-0.6-4.7-2.9-5.9-2.9c-0.3,0-3.6,7.7-7.3,17.1l-6.8,17H113c-2.9,0-5.3-0.1-5.3-0.2c0-0.1,2.7-7,6-15.3c3.3-8.3,6.1-15.4,6.1-15.7c0-0.6-4.7-2.9-5.9-2.9c-0.3,0-3.6,7.7-7.3,17.1l-6.8,17h-5.3c-2.9,0-5.3-0.1-5.3-0.2c0-0.1,2.7-7,6-15.3c3.3-8.3,6.1-15.4,6.1-15.7c0-0.6-4.7-2.9-5.9-2.9c-0.3,0-3.2,6.6-6.4,14.7c-3.2,8.1-6,14.7-6.1,14.7s-1.2-1-2.4-2.2c-1.2-1.2-3-2.9-3.9-3.7l-1.8-1.4l4.1-9.4c2.2-5.2,4.1-9.6,4.2-9.9c0.2-0.4-6.3-3.7-6.5-3.3c0,0.1-1.8,4.2-3.9,9.1c-2.1,4.9-4,9.2-4.2,9.4c-0.2,0.2-1.7,0-3.3-0.6c-1.6-0.5-3.5-1.1-4.3-1.2l-1.5-0.3l2.7-6.8c1.5-3.7,2.6-6.9,2.4-7c-0.6-0.5-5.3-2.3-5.9-2.3c-0.3,0-1.9,3.5-3.6,7.8c-1.7,4.3-3.4,7.9-3.8,8.1c-0.4,0.1-1.2,0.3-1.8,0.3c-0.6,0-2.2,0.3-3.7,0.7l-2.7,0.7l-12.8-12.8l-12.8-12.8v-2.9v-2.9h53.7c45.8,0,53.9-0.1,55-0.6c0.7-0.4,9.2-8.7,19-18.4l17.7-17.8h15.8h15.8v-3.7v-3.7h-16.9c-11.4,0-17.1,0.2-17.8,0.5c-0.6,0.3-3.1,2.6-5.6,5.1l-4.6,4.5l-8.1-4.9l-8.1-4.9l-7.4-0.1l-7.4-0.1l-5.1-6.9c-2.8-3.8-5.5-7.1-6.1-7.3c-0.6-0.3-4.8-0.5-10.4-0.5h-9.4L76.7,48c-6-2-11.2-3.7-11.5-3.6C64.9,44.4,64.2,44.6,63.7,44.9z M77.6,55.9l9.6,3.2h8.6l8.5,0l5.1,6.9c2.8,3.8,5.5,7.1,6.1,7.3c0.6,0.3,4.1,0.5,8.2,0.5h7.1l6.7,4l6.7,4l-3.4,3.4l-3.3,3.4h-24.2l-24.2,0L84,81.7c-2.8-3.7-5.5-7.1-6-7.3c-0.5-0.2-5.5-1.7-11.1-3.3c-5.6-1.6-10.2-2.9-10.3-3c-0.4-0.4,9.9-15.4,10.6-15.4C67.6,52.6,72.3,54.1,77.6,55.9z M62.3,77.2c13,3.7,11.7,3,15.9,8.5l1.9,2.6l-13.1,0.1c-7.2,0-19,0-26.2,0l-13.1-0.1l3.1-5.3c1.8-2.9,3.3-5.4,3.5-5.6c0.3-0.3,8.9-2.3,15.8-3.6C50.3,73.8,55.7,75.4,62.3,77.2z M203.3,89.1c2.5,6.3,17,40.7,17.5,41.7c0.4,0.7,4.6,5.2,9.3,9.9l8.6,8.5v12.1v12.1h-3.9h-3.8l-0.3-2.4c-0.5-3.5-2.7-9.3-5.2-13.2c-7.5-11.9-21.9-19-35.2-17.3c-10.9,1.5-20.6,7.6-26.7,16.9c-2.4,3.7-4.8,9.9-5.3,13.5l-0.3,2.4h-33.5H90.9l-0.5-2.9c-0.3-1.6-0.6-3.2-0.8-3.7c-0.3-0.7,1.1-0.8,24.8-0.8c17.9,0,25.5-0.1,26.3-0.5c1.5-0.7,0.7,1.1,17.1-42L171,88.6h16C199.4,88.6,203.1,88.7,203.3,89.1z M126.4,99.6l-3.7,3.7H70.1H17.4v-3.7v-3.7h56.3h56.4L126.4,99.6z M61.2,148.3c13.4,3.1,22.6,14.8,22.6,28.8c0,22.4-22.9,36.3-43.3,26.2c-17.4-8.6-21.2-33.2-7.2-47.2C40.4,149,51.2,146,61.2,148.3z M201.9,148.5c13.1,3.4,21.9,14.8,21.9,28.6c0,22.4-22.9,36.3-43.3,26.2c-17.4-8.6-21.2-33.2-7.2-47.2C180.7,148.8,191.7,145.9,201.9,148.5z M158.2,183.1c0.9,6.5,5.2,14.6,10.8,20.1l3.4,3.4h-48h-48l3.4-3.4c5.6-5.5,9.9-13.6,10.8-20.1l0.3-2.4h33.5h33.5L158.2,183.1z"/><path fill="#000000" d="M177.9,96.5c-1.2,0.6-1.5,1.2-8,18.7c-4.8,12.8-5.2,14-4.7,15.3c0.3,0.7,1.1,1.6,1.7,1.9c1.6,0.7,38.4,0.7,40,0c0.6-0.3,1.4-1.2,1.7-1.9c0.5-1.2,0.1-2.5-4.9-15.9c-6.5-17.6-6.5-17.3-7.9-18C194.5,95.8,179.4,95.8,177.9,96.5z M195.9,114c2.2,5.9,4,10.9,4,11.1c0,0.2-5.8,0.4-12.9,0.4s-12.9-0.1-12.9-0.4c0-0.2,1.8-5.2,4-11.1l4-10.7h4.9h4.9L195.9,114z"/><path fill="#000000" d="M50.1,155.4c-3.8,0.7-8.3,3.4-11.4,6.6c-8.8,9.1-8.5,21.9,0.6,30.6c9.1,8.7,21.9,8.5,30.6-0.6c8.5-8.8,8.5-21.2,0.1-30C64.5,156.4,57.4,154,50.1,155.4z M60.8,163.6c2.7,1.2,5.8,4.2,7.1,7c1.5,3.2,1.4,10-0.1,13.1c-1.4,2.9-3.9,5.3-6.8,6.8c-1.9,0.9-3,1.1-6.6,1.1c-5.2,0-7.6-0.9-10.6-3.9c-2.5-2.5-3.8-5.4-4.1-9.3c-0.5-7.3,3-13,9.4-15.3C52.1,162,57.8,162.2,60.8,163.6z"/><path fill="#000000" d="M190.2,155.4c-8.4,1.6-16.1,9.8-17.6,18.6c-1.8,11.2,7,22.9,18.7,24.8c13.6,2.3,27-11.2,24.8-24.8C214.1,161.8,202.1,153.1,190.2,155.4z M201.1,163.7c2.9,1.4,5.3,3.8,6.7,6.7c0.9,1.9,1.1,3,1.1,6.6c0,5-1,7.6-3.9,10.6c-2.9,3-5.6,3.9-10.6,3.9c-3.7,0-4.7-0.2-6.6-1.1c-4.7-2.3-7.6-6.6-8-12c-0.5-7.4,3-13,9.4-15.3C192.3,161.9,198,162.2,201.1,163.7z"/></g></g></g>
</svg>