<?xml version="1.0" encoding="UTF-8"?>
<svg version="1.1" xmlns="http://www.w3.org/2000/svg" width="512" height="512">
<path d="M0 0 C0.90855743 -0.00004028 1.81711487 -0.00008057 2.75320435 -0.00012207 C4.6713148 0.00522848 6.58942503 0.02279139 8.50732422 0.05175781 C11.4287492 0.09351326 14.34785887 0.09283172 17.26953125 0.0859375 C19.13803672 0.09643461 21.00653037 0.10937551 22.875 0.125 C24.17532669 0.12530212 24.17532669 0.12530212 25.50192261 0.12561035 C31.6631714 0.24455774 36.73605971 1.10954436 41.53125 5.3125 C41.99789063 5.9003125 42.46453125 6.488125 42.9453125 7.09375 C43.66847656 7.97546875 43.66847656 7.97546875 44.40625 8.875 C46.44530409 11.88568388 46.69505742 14.49855371 46.69336033 18.02340984 C46.69535138 18.93506584 46.69734243 19.84672183 46.69939381 20.78600377 C46.69648097 21.7889118 46.69356813 22.79181983 46.69056702 23.82511902 C46.69184865 25.42154935 46.69184865 25.42154935 46.69315618 27.0502308 C46.69480975 30.63400862 46.68929159 34.21774013 46.68383789 37.80151367 C46.68355597 40.36349995 46.68371385 42.92548631 46.6842804 45.48747253 C46.68450848 51.0122811 46.68166303 56.53707463 46.67604256 62.06188011 C46.66792155 70.04985616 46.66531172 78.0378265 46.66405457 86.02580623 C46.66186499 98.98522496 46.65520747 111.94463741 46.64575195 124.90405273 C46.63657539 137.49422168 46.62949575 150.08438893 46.62524414 162.67456055 C46.62485006 163.83830657 46.62485006 163.83830657 46.62444801 165.02556261 C46.62314299 168.91760922 46.62187928 172.80965584 46.62063611 176.70170248 C46.61026644 208.99905622 46.5926507 241.29640224 46.5703125 273.59375 C47.5190625 273.7175 48.4678125 273.84125 49.4453125 273.96875 C52.5703125 274.59375 52.5703125 274.59375 54.5703125 276.59375 C54.83773804 278.99337769 54.83773804 278.99337769 54.86083984 282.04638672 C54.8799794 283.75989822 54.8799794 283.75989822 54.89950562 285.50802612 C54.90284409 287.37190475 54.90284409 287.37190475 54.90625 289.2734375 C54.9129068 290.55171417 54.9195636 291.82999084 54.92642212 293.14700317 C54.93841799 295.86235925 54.94210141 298.57758803 54.94091797 301.29296875 C54.94071651 304.74027975 54.96782529 308.18675014 55.00246239 311.63386345 C55.03035309 314.95123012 55.02888925 318.26845561 55.03125 321.5859375 C55.04562103 322.80828094 55.05999207 324.03062439 55.07479858 325.29000854 C54.99768799 340.00046309 49.8287872 352.18422239 39.7578125 362.90625 C26.4419851 375.42824923 11.01928836 377.71932816 -6.51171875 377.796875 C-7.52892502 377.80257507 -8.54613129 377.80827515 -9.59416199 377.81414795 C-11.72609436 377.82352633 -13.85804076 377.8301031 -15.98999023 377.83398438 C-19.2507396 377.84377568 -22.51088011 377.87490039 -25.77148438 377.90625 C-27.85155879 377.9127734 -29.93163766 377.91802647 -32.01171875 377.921875 C-33.46805473 377.9403952 -33.46805473 377.9403952 -34.95381165 377.95928955 C-39.89673188 377.94295811 -43.46739654 377.91986779 -47.4296875 374.59375 C-48.78534855 371.8824279 -48.59199835 369.71067002 -48.63500977 366.67529297 C-48.65495499 365.43415741 -48.67490021 364.19302185 -48.69544983 362.91427612 C-48.7124341 361.5548312 -48.72931291 360.19538495 -48.74609375 358.8359375 C-48.76666331 357.44873433 -48.78765978 356.06153743 -48.80906677 354.67434692 C-48.86428731 351.02147495 -48.91369661 347.36854641 -48.96191406 343.71557617 C-49.01212925 339.98871826 -49.06781521 336.26194259 -49.12304688 332.53515625 C-49.23062821 325.22142379 -49.33207318 317.90762299 -49.4296875 310.59375 C-54.51567377 309.19594121 -59.64718445 309.31785688 -64.8984375 309.16796875 C-68.4296875 308.59375 -68.4296875 308.59375 -70.9609375 307.11328125 C-73.88169353 302.10294179 -71.64498241 296.28780021 -70.37890625 290.91796875 C-69.96562114 289.37043114 -69.54502028 287.82482906 -69.1171875 286.28125 C-68.91673828 285.49685547 -68.71628906 284.71246094 -68.50976562 283.90429688 C-68.30158203 283.14568359 -68.09339844 282.38707031 -67.87890625 281.60546875 C-67.69674561 280.92959717 -67.51458496 280.25372559 -67.3269043 279.55737305 C-66.0970199 276.8656832 -64.73281568 275.4651943 -62.4296875 273.59375 C-59.48101807 273.11273193 -59.48101807 273.11273193 -56.00878906 273.13964844 C-54.05721893 273.14010162 -54.05721893 273.14010162 -52.06622314 273.14056396 C-50.65091335 273.16098914 -49.23560982 273.1818531 -47.8203125 273.203125 C-46.36872131 273.21058855 -44.91712002 273.21628095 -43.46551514 273.22027588 C-39.65122492 273.23552357 -35.83754729 273.27479691 -32.02349854 273.3190918 C-28.12903123 273.36006377 -24.23446461 273.37829094 -20.33984375 273.3984375 C-12.70284621 273.44129287 -5.0663528 273.50953261 2.5703125 273.59375 C2.50482208 272.84544922 2.43933167 272.09714844 2.37185669 271.32617188 C-1.63482458 225.51300804 -5.53273899 179.69097361 -9.35470271 133.86205935 C-9.75411063 129.07303802 -10.15413221 124.2840682 -10.55438232 119.49511719 C-11.09874174 112.98118199 -11.64157117 106.46712047 -12.18333244 99.9529686 C-12.38545333 97.52452187 -12.58796964 95.09610802 -12.79089546 92.66772842 C-13.06938702 89.33343348 -13.34631436 85.99901235 -13.62280273 82.66455078 C-13.74658956 81.18822929 -13.74658956 81.18822929 -13.87287712 79.68208313 C-13.94688807 78.78548477 -14.02089901 77.88888641 -14.09715271 76.96511841 C-14.16180442 76.18816683 -14.22645613 75.41121525 -14.29306698 74.61071968 C-14.40612562 72.94160116 -14.4296875 71.26669318 -14.4296875 69.59375 C-33.78786193 69.67759821 -53.14594964 69.7727124 -72.50400162 69.88127708 C-81.49207097 69.93142105 -90.48013111 69.97786376 -99.46826172 70.015625 C-107.30136535 70.04854305 -115.13439794 70.08837323 -122.9674232 70.13654006 C-127.11580399 70.16180691 -131.26413763 70.18358764 -135.41257477 70.19709396 C-139.31628062 70.20991264 -143.21982482 70.23196489 -147.1234417 70.26113319 C-148.55691977 70.2702105 -149.99042388 70.27589956 -151.42392921 70.27796364 C-153.38000727 70.28128491 -155.33604921 70.29793618 -157.29205322 70.3152771 C-158.93468832 70.32357324 -158.93468832 70.32357324 -160.61050797 70.33203697 C-163.45606765 70.59619895 -165.07502954 71.00355447 -167.4296875 72.59375 C-168.81116606 74.84279709 -169.97337446 76.98155465 -171.1015625 79.3515625 C-171.42884338 80.01461395 -171.75612427 80.67766541 -172.09332275 81.36080933 C-173.13353172 83.47474725 -174.15672263 85.59642223 -175.1796875 87.71875 C-175.88300739 89.15549044 -176.58742212 90.59169549 -177.29296875 92.02734375 C-179.01796261 95.54339837 -180.72774245 99.0664847 -182.4296875 102.59375 C-181.69967529 102.6030957 -180.96966309 102.61244141 -180.2175293 102.62207031 C-176.85011107 102.67637063 -173.4839945 102.75989882 -170.1171875 102.84375 C-168.96927734 102.85792969 -167.82136719 102.87210937 -166.63867188 102.88671875 C-152.40515044 103.28993465 -139.76481654 108.72839955 -129.4296875 118.59375 C-118.09686457 131.5580333 -114.94756606 146.13225719 -115.08911133 162.99121094 C-115.0899598 164.39197776 -115.08947818 165.79274591 -115.08778381 167.19351196 C-115.08693099 170.95726424 -115.10443953 174.72072356 -115.12550569 178.48440838 C-115.14439293 182.43215597 -115.14603234 186.37991195 -115.14958191 190.32769775 C-115.15886727 197.78596487 -115.18343297 205.24409841 -115.21363038 212.70230699 C-115.24728434 221.20059088 -115.26368791 229.6988815 -115.27871668 238.19721556 C-115.30998611 255.66280401 -115.36267751 273.12826283 -115.4296875 290.59375 C-114.18632629 290.56445152 -114.18632629 290.56445152 -112.91784668 290.53456116 C-111.83314087 290.51936935 -110.74843506 290.50417755 -109.63085938 290.48852539 C-108.5544519 290.46899307 -107.47804443 290.44946075 -106.36901855 290.42933655 C-103.4296875 290.59375 -103.4296875 290.59375 -100.2109375 292.27734375 C-97.3651875 297.57568092 -97.78764589 302.74538224 -97.9296875 308.65625 C-97.92710937 309.84025391 -97.92453125 311.02425781 -97.921875 312.24414062 C-98.01772173 320.70261468 -98.01772173 320.70261468 -99.41828918 323.73222351 C-102.54397479 326.62501034 -105.98696816 326.16414094 -110.03198242 326.13964844 C-110.91024185 326.14998611 -111.78850128 326.16032379 -112.69337463 326.17097473 C-115.59915361 326.20049554 -118.50423885 326.20190386 -121.41015625 326.203125 C-123.42370439 326.21810039 -125.43724021 326.23482617 -127.45075989 326.25323486 C-132.7525996 326.2969926 -138.05427361 326.31692614 -143.35626221 326.33197021 C-148.76560296 326.35151095 -154.17476395 326.39348432 -159.58398438 326.43359375 C-170.19919384 326.50898732 -180.81427331 326.55715056 -191.4296875 326.59375 C-187.4696875 342.43375 -187.4696875 342.43375 -183.4296875 358.59375 C-179.15386719 358.61953125 -174.87804687 358.6453125 -170.47265625 358.671875 C-167.03524329 358.70361296 -163.59791987 358.73926663 -160.16057587 358.77754211 C-156.54754347 358.8167114 -152.93475098 358.84919053 -149.3215332 358.86474609 C-145.83285298 358.88003566 -142.34482643 358.91469319 -138.85643959 358.96205902 C-136.89651616 358.98383221 -134.9364076 358.98621311 -132.97636414 358.98809814 C-119.04061196 359.21325877 -106.65709704 364.11100937 -96.34375 373.58203125 C-85.38694194 385.09786013 -80.89718045 398.37057043 -81.18359375 414.0390625 C-82.2004708 428.72728657 -88.8116477 440.57440564 -99.4296875 450.59375 C-110.91275898 459.81590585 -123.16076165 462.90851826 -137.64350891 462.85444641 C-139.29005684 462.86018473 -139.29005684 462.86018473 -140.96986836 462.86603898 C-144.63141016 462.87632029 -148.29279372 462.87238604 -151.9543457 462.8684082 C-154.58642085 462.87275739 -157.21848458 462.87787716 -159.85055542 462.88389587 C-166.24822575 462.8966163 -172.64585406 462.89843986 -179.04353491 462.89609561 C-184.2467881 462.89430917 -189.45002858 462.89606908 -194.65328026 462.90032005 C-195.76611239 462.90121284 -195.76611239 462.90121284 -196.90142598 462.90212366 C-198.4088164 462.90333547 -199.91620682 462.9045496 -201.42359724 462.90576603 C-215.54624066 462.91663152 -229.66886018 462.91448389 -243.79150494 462.90838119 C-256.69327622 462.90321398 -269.59497194 462.91446405 -282.49672828 462.93347941 C-295.76342387 462.9528818 -309.03008377 462.96110953 -322.29679364 462.95735615 C-329.7373247 462.95544761 -337.17779149 462.95789765 -344.61831093 462.97207069 C-350.95322925 462.98401619 -357.28804375 462.9853541 -363.62296358 462.97328053 C-366.85084031 462.96741368 -370.07848939 462.96787535 -373.30636024 462.97828293 C-376.81605237 462.98878021 -380.32524071 462.98062523 -383.83491516 462.9679718 C-384.84048708 462.97534609 -385.84605899 462.98272037 -386.88210279 462.99031812 C-401.03871475 462.88353266 -415.20021285 458.44267617 -425.625 448.55859375 C-437.98919033 435.09714843 -441.26219063 420.66913093 -440.60449219 403.01220703 C-439.76461533 391.39234644 -432.85555922 380.04383576 -424.42578125 372.21484375 C-409.37477047 359.99142012 -395.32542761 359.02690991 -376.6796875 359.34375 C-374.61460069 359.36384975 -372.54949495 359.38209435 -370.484375 359.3984375 C-365.4656718 359.44214816 -360.44789233 359.51098336 -355.4296875 359.59375 C-355.32156738 358.94108154 -355.21344727 358.28841309 -355.10205078 357.6159668 C-353.86127341 350.43609488 -352.19095856 343.44140931 -350.3046875 336.40625 C-349.88896484 334.83520508 -349.88896484 334.83520508 -349.46484375 333.23242188 C-348.790229 330.68516963 -348.11180103 328.1390024 -347.4296875 325.59375 C-348.32106918 325.66703018 -349.21245087 325.74031036 -350.13084412 325.81581116 C-423.22055232 331.55152912 -423.22055232 331.55152912 -441.65551758 316.72949219 C-454.75938244 304.51494911 -458.73069051 291.42252897 -459.62471008 273.77172852 C-460.55461555 237.96642595 -460.55461555 237.96642595 -454.4296875 228.59375 C-449.8961333 224.29880392 -445.59531886 222.32177906 -439.34765625 222.3984375 C-437.95063477 222.40810547 -437.95063477 222.40810547 -436.52539062 222.41796875 C-435.08583008 222.44310547 -435.08583008 222.44310547 -433.6171875 222.46875 C-432.63814453 222.47777344 -431.65910156 222.48679688 -430.65039062 222.49609375 C-428.24323689 222.51957818 -425.83659007 222.5524216 -423.4296875 222.59375 C-423.45325317 221.61764771 -423.45325317 221.61764771 -423.47729492 220.62182617 C-423.53963399 217.67505576 -423.57867434 214.72842402 -423.6171875 211.78125 C-423.64232422 210.75708984 -423.66746094 209.73292969 -423.69335938 208.67773438 C-423.70302734 207.69482422 -423.71269531 206.71191406 -423.72265625 205.69921875 C-423.7383667 204.79324951 -423.75407715 203.88728027 -423.77026367 202.95385742 C-423.36286958 200.13071861 -422.65301174 199.3143685 -420.4296875 197.59375 C-417.81938393 196.28859822 -415.88098461 196.45236288 -412.95776367 196.43261719 C-411.81284958 196.42300964 -410.66793549 196.4134021 -409.48832703 196.40350342 C-408.24565567 196.39925354 -407.00298431 196.39500366 -405.72265625 196.390625 C-404.44997391 196.38492493 -403.17729156 196.37922485 -401.86604309 196.37335205 C-399.16839012 196.3638907 -396.4708487 196.35699986 -393.77319336 196.35351562 C-390.32312316 196.3480382 -386.87344909 196.3240268 -383.42350292 196.29554367 C-380.12741744 196.27239032 -376.83131167 196.27046546 -373.53515625 196.265625 C-372.29855759 196.2532782 -371.06195892 196.2409314 -369.78788757 196.22821045 C-368.633517 196.23121155 -367.47914642 196.23421265 -366.28979492 196.23730469 C-365.27656662 196.23365906 -364.26333832 196.23001343 -363.21940613 196.22625732 C-359.95594301 196.65615688 -358.07402746 197.6640265 -355.4296875 199.59375 C-351.99781079 206.45750343 -354.4296875 214.91984038 -354.4296875 222.59375 C-337.9296875 222.59375 -321.4296875 222.59375 -304.4296875 222.59375 C-304.45325317 217.39963379 -304.45325317 217.39963379 -304.47729492 212.10058594 C-304.52695328 200.6732831 -304.5602742 189.24596538 -304.58512402 177.81858444 C-304.60059433 170.88860323 -304.62168686 163.95872421 -304.65600586 157.02880859 C-304.68909563 150.34392131 -304.70652958 143.65916226 -304.71431923 136.97418976 C-304.7198721 134.42084326 -304.73071517 131.86750273 -304.74687767 129.31420135 C-304.76858202 125.74416935 -304.77165729 122.17457931 -304.77026367 118.60449219 C-304.7810495 117.54353836 -304.79183533 116.48258453 -304.802948 115.38948059 C-304.79882401 114.41635422 -304.79470001 113.44322784 -304.79045105 112.44061279 C-304.79321643 111.59625042 -304.79598181 110.75188805 -304.79883099 109.88193893 C-304.34307559 107.05687365 -303.3702421 105.66835309 -301.4296875 103.59375 C-299.36105347 103.26318359 -299.36105347 103.26318359 -296.95263672 103.4921875 C-296.04619919 103.56156021 -295.13976166 103.63093292 -294.20585632 103.70240784 C-293.22526749 103.79030075 -292.24467865 103.87819366 -291.234375 103.96875 C-269.65618054 106.37934116 -269.65618054 106.37934116 -249.80712891 100.33154297 C-244.58452242 94.66393107 -241.68973011 87.91737137 -238.95414734 80.79740906 C-236.13125585 73.45641011 -232.12333336 66.97570385 -227.99139404 60.30966187 C-225.94297624 56.98352256 -223.96296163 53.61731116 -221.9765625 50.25390625 C-221.20666187 48.95702676 -220.43648336 47.66031219 -219.66601562 46.36376953 C-218.20536577 43.90332459 -216.74846535 41.44072353 -215.29492188 38.97607422 C-213.37211819 35.71677183 -211.43304146 32.46733959 -209.4921875 29.21875 C-208.93120361 28.26186279 -208.37021973 27.30497559 -207.79223633 26.3190918 C-207.27169678 25.45324463 -206.75115723 24.58739746 -206.21484375 23.6953125 C-205.54787476 22.57116943 -205.54787476 22.57116943 -204.86743164 21.42431641 C-203.12402228 19.20457054 -202.07776782 18.59616934 -199.4296875 17.59375 C-196.89033436 17.40893812 -194.46323055 17.33236352 -191.925354 17.35324097 C-191.16647912 17.35153212 -190.40760423 17.34982327 -189.62573314 17.34806263 C-187.08144756 17.3447669 -184.53742537 17.35577275 -181.99316406 17.36669922 C-180.1699372 17.36726331 -178.34670988 17.3669468 -176.52348328 17.36581421 C-171.57135904 17.36523963 -166.61933141 17.37701094 -161.66722965 17.39096212 C-156.49290009 17.40345198 -151.31856839 17.40463861 -146.14422607 17.40701294 C-136.34473974 17.41323284 -126.54529795 17.42965057 -116.74583125 17.44971192 C-105.58997149 17.47205505 -94.43410961 17.48306036 -83.27823305 17.49310279 C-60.32869316 17.51401634 -37.37919282 17.54920224 -14.4296875 17.59375 C-14.45185396 16.76477455 -14.47402042 15.9357991 -14.4968586 15.08170319 C-14.51409918 13.9969445 -14.53133976 12.91218582 -14.54910278 11.79455566 C-14.57126925 10.71808022 -14.59343571 9.64160477 -14.61627388 8.53250885 C-14.4296875 5.59375 -14.4296875 5.59375 -12.51904297 2.38085938 C-8.24972737 -0.08882532 -4.85432679 -0.09138243 0 0 Z M-269.4296875 138.59375 C-269.4296875 166.31375 -269.4296875 194.03375 -269.4296875 222.59375 C-253.5896875 223.08875 -253.5896875 223.08875 -237.4296875 223.59375 C-234.17650576 226.84693174 -233.17797788 229.57153201 -231.828125 233.8125 C-231.5901268 234.53507492 -231.3521286 235.25764984 -231.10691833 236.00212097 C-230.33120718 238.3633703 -229.56805373 240.72848414 -228.8046875 243.09375 C-228.27267511 244.71881606 -227.73970956 246.34357037 -227.20581055 247.96801758 C-226.12652602 251.25543858 -225.05169029 254.54425662 -223.98095703 257.83447266 C-221.75919399 264.65822539 -219.50340127 271.47047786 -217.2421875 278.28125 C-216.86819824 279.41949219 -216.49420898 280.55773437 -216.10888672 281.73046875 C-215.76744629 282.76171875 -215.42600586 283.79296875 -215.07421875 284.85546875 C-214.77878174 285.75225342 -214.48334473 286.64903809 -214.17895508 287.57299805 C-213.60173533 289.56075805 -213.60173533 289.56075805 -212.4296875 290.59375 C-210.49662252 290.68771057 -208.56009912 290.71118517 -206.62475586 290.70727539 C-205.38354477 290.70719986 -204.14233368 290.70712433 -202.86351013 290.70704651 C-201.4988501 290.70193911 -200.13419048 290.6967231 -198.76953125 290.69140625 C-197.38090567 290.689542 -195.99227943 290.68811813 -194.60365295 290.68711853 C-190.94247635 290.68329387 -187.2813392 290.67346403 -183.62017822 290.66241455 C-179.88676487 290.65219932 -176.15334516 290.64762067 -172.41992188 290.64257812 C-165.08982573 290.63184171 -157.75976214 290.61476591 -150.4296875 290.59375 C-150.38293522 272.85207394 -150.34768284 255.11041391 -150.32606316 237.36868954 C-150.31575727 229.13061906 -150.30171009 220.8925869 -150.27880859 212.65454102 C-150.25885366 205.47298852 -150.24596606 198.29146377 -150.24151051 191.10988432 C-150.23890669 187.3084552 -150.23280092 183.50710547 -150.21822739 179.70570183 C-150.20461022 176.12460561 -150.20047319 172.54362117 -150.20347214 168.96250153 C-150.20266321 167.02794974 -150.19192324 165.09341001 -150.18084717 163.15888977 C-150.04798732 152.76774834 -150.04798732 152.76774834 -154.7421875 143.84375 C-160.90655646 138.68288296 -164.95275724 138.16681693 -172.81958008 138.25317383 C-173.86394226 138.25273575 -174.90830444 138.25229767 -175.98431396 138.25184631 C-179.43114004 138.25393383 -182.87747779 138.27726381 -186.32421875 138.30078125 C-188.71603632 138.30637732 -191.10785733 138.31064736 -193.49967957 138.31364441 C-199.79126499 138.32509225 -206.08264226 138.35455922 -212.37414551 138.38775635 C-219.92488046 138.42385747 -227.47568505 138.43761864 -235.02648163 138.45511627 C-246.49436164 138.48419627 -257.96178502 138.54168453 -269.4296875 138.59375 Z " fill="#FDB656" transform="translate(457.4296875,24.40625)"/>
<path d="M0 0 C51.15 0 102.3 0 155 0 C158.375 10.125 158.375 10.125 159.60546875 15.12890625 C159.86650391 16.18271484 160.12753906 17.23652344 160.39648438 18.32226562 C160.65751953 19.39154297 160.91855469 20.46082031 161.1875 21.5625 C161.46013672 22.66658203 161.73277344 23.77066406 162.01367188 24.90820312 C162.67903767 27.60468557 163.34107074 30.30193885 164 33 C164.73978592 33.00364563 165.47957184 33.00729126 166.24177551 33.01104736 C173.25821996 33.04911971 180.27420365 33.10618734 187.29030323 33.18390274 C190.89627046 33.2231936 194.50200023 33.25547094 198.1081543 33.27099609 C201.59683452 33.28628566 205.08486107 33.32094319 208.57324791 33.36830902 C210.53317134 33.39008221 212.4932799 33.39246311 214.45332336 33.39434814 C228.38907554 33.61950877 240.77259046 38.51725937 251.0859375 47.98828125 C262.04274556 59.50411013 266.53250705 72.77682043 266.24609375 88.4453125 C265.2292167 103.13353657 258.6180398 114.98065564 248 125 C236.51692852 134.22215585 224.26892585 137.31476826 209.78617859 137.26069641 C208.68847997 137.26452196 207.59078135 137.26834751 206.45981914 137.27228898 C202.79827734 137.28257029 199.13689378 137.27863604 195.4753418 137.2746582 C192.84326665 137.27900739 190.21120292 137.28412716 187.57913208 137.29014587 C181.18146175 137.3028663 174.78383344 137.30468986 168.38615259 137.30234561 C163.1828994 137.30055917 157.97965892 137.30231908 152.77640724 137.30657005 C151.66357511 137.30746284 151.66357511 137.30746284 150.52826152 137.30837366 C149.0208711 137.30958547 147.51348068 137.3107996 146.00609026 137.31201603 C131.88344684 137.32288152 117.76082732 137.32073389 103.63818256 137.31463119 C90.73641128 137.30946398 77.83471556 137.32071405 64.93295922 137.33972941 C51.66626363 137.3591318 38.39960373 137.36735953 25.13289386 137.36360615 C17.6923628 137.36169761 10.25189601 137.36414765 2.81137657 137.37832069 C-3.52354175 137.39026619 -9.85835625 137.3916041 -16.19327608 137.37953053 C-19.42115281 137.37366368 -22.64880189 137.37412535 -25.87667274 137.38453293 C-29.38636487 137.39503021 -32.89555321 137.38687523 -36.40522766 137.3742218 C-37.91358554 137.38528323 -37.91358554 137.38528323 -39.45241529 137.39656812 C-53.60902725 137.28978266 -67.77052535 132.84892617 -78.1953125 122.96484375 C-90.55950283 109.50339843 -93.83250313 95.07538093 -93.17480469 77.41845703 C-92.33492783 65.79859644 -85.42587172 54.45008576 -76.99609375 46.62109375 C-61.94508297 34.39767012 -47.89574011 33.43315991 -29.25 33.75 C-27.18491319 33.77009975 -25.11980745 33.78834435 -23.0546875 33.8046875 C-18.0359843 33.84839816 -13.01820483 33.91723336 -8 34 C-7.34 30.37 -6.68 26.74 -6 23 C-4.02 15.41 -2.04 7.82 0 0 Z " fill="#4D4B51" transform="translate(110,350)"/>
<path d="M0 0 C1.14491409 -0.00960754 2.28982819 -0.01921509 3.46943665 -0.02911377 C4.712108 -0.03336365 5.95477936 -0.03761353 7.23510742 -0.04199219 C8.50778976 -0.04769226 9.78047211 -0.05339233 11.09172058 -0.05926514 C13.78937356 -0.06872649 16.48691498 -0.07561733 19.18457031 -0.07910156 C22.63464051 -0.08457899 26.08431458 -0.10859039 29.53426075 -0.13707352 C32.83034623 -0.16022687 36.12645201 -0.16215173 39.42260742 -0.16699219 C40.65920609 -0.17933899 41.89580475 -0.19168579 43.1698761 -0.20440674 C44.32424667 -0.20140564 45.47861725 -0.19840454 46.66796875 -0.1953125 C47.68119705 -0.19895813 48.69442535 -0.20260376 49.73835754 -0.20635986 C53.00182066 0.22353969 54.88373621 1.23140932 57.52807617 3.16113281 C58.75445188 5.61388422 58.64222932 7.21171092 58.62573242 9.95019531 C58.62089844 11.36171875 58.62089844 11.36171875 58.6159668 12.80175781 C58.60339844 14.27902344 58.60339844 14.27902344 58.59057617 15.78613281 C58.58606445 16.77871094 58.58155273 17.77128906 58.5769043 18.79394531 C58.56509762 21.24973441 58.54863017 23.70540385 58.52807617 26.16113281 C59.12737568 26.15744564 59.72667519 26.15375847 60.34413528 26.14995956 C74.92454216 26.06163289 89.50493323 25.99543512 104.08554459 25.95388412 C111.13663591 25.93325637 118.18754867 25.90513201 125.23852539 25.859375 C132.04012499 25.81525734 138.84153875 25.79201053 145.6432724 25.78162384 C148.241289 25.77421962 150.83929518 25.7597614 153.43723297 25.73821259 C157.06962738 25.70927528 160.70124955 25.70517291 164.33374023 25.70703125 C165.41339554 25.69265015 166.49305084 25.67826904 167.60542297 25.66345215 C174.87199844 25.703814 174.87199844 25.703814 178.13941956 27.98136902 C180.0519797 30.98350023 181.17133026 34.10552659 182.22729492 37.47753906 C182.46664261 38.2069017 182.7059903 38.93626434 182.95259094 39.68772888 C183.71833023 42.02949841 184.46737822 44.37620721 185.21557617 46.72363281 C185.69816591 48.21163135 186.1818825 49.69926492 186.66674805 51.18652344 C187.42231302 53.50615544 188.17646211 55.82618981 188.92575073 58.14785767 C192.70391889 69.84827524 196.62721658 81.50118728 200.52807617 93.16113281 C207.76994587 93.29606808 215.01188892 93.4262325 222.25393867 93.55115128 C225.77412927 93.61188739 229.29429453 93.67364926 232.81442261 93.73791504 C247.52404209 94.00498682 262.22193233 94.22453571 276.93432617 94.05175781 C278.02651962 94.04112305 279.11871307 94.03048828 280.2440033 94.01953125 C285.33679598 93.96839631 290.42691317 93.89212024 295.51855469 93.77246094 C297.32510144 93.74995031 299.13166058 93.72840567 300.93823242 93.70800781 C301.74373535 93.67902405 302.54923828 93.65004028 303.37915039 93.62017822 C307.31087071 93.60130648 309.30139107 93.99857707 312.52783203 96.31225586 C314.83939369 99.60453134 315.1490429 101.21305966 315.12182617 105.19628906 C315.11795898 106.90461914 315.11795898 106.90461914 315.11401367 108.64746094 C315.0856543 109.82759766 315.05729492 111.00773437 315.02807617 112.22363281 C315.0306543 113.40763672 315.03323242 114.59164062 315.03588867 115.81152344 C314.92432974 125.65659908 314.92432974 125.65659908 311.52807617 129.16113281 C309.12236726 129.69589883 309.12236726 129.69589883 306.20670128 129.74550343 C305.09594242 129.77381868 303.98518357 129.80213394 302.84076536 129.83130723 C301.00247362 129.84759511 301.00247362 129.84759511 299.12704468 129.86421204 C297.82877766 129.89091341 296.53051065 129.91761478 295.19290221 129.94512528 C291.58082381 130.01830766 287.96878809 130.06599442 284.35624218 130.10914385 C281.25875805 130.14931844 278.16160317 130.20418773 275.06435011 130.25907383 C263.95641671 130.45532162 252.84799525 130.59131304 241.73901367 130.71191406 C240.42125021 130.72625857 240.42125021 130.72625857 239.07686526 130.74089286 C221.60139843 130.92919466 204.12570178 131.08792453 186.64957237 131.19946003 C182.80438328 131.22443336 178.95919719 131.24981741 175.11401367 131.27563477 C174.15839785 131.282029 173.20278203 131.28842324 172.21820815 131.29501124 C156.80595682 131.4017641 141.39840142 131.6367055 125.98856513 131.92371712 C110.12867092 132.2166361 94.27118152 132.38169939 78.40863001 132.42873448 C69.51669067 132.45842152 60.63298275 132.54334252 51.74375534 132.77248573 C-10.2499419 134.31835286 -10.2499419 134.31835286 -28.10271263 117.88592815 C-38.92529316 106.95077345 -46.58869107 96.13654154 -47.80004883 80.46191406 C-47.72347476 75.41551936 -47.26296549 70.48839634 -46.72192383 65.47363281 C-46.58143882 62.88132666 -46.45640401 60.28813649 -46.34692383 57.69433594 C-45.19735447 35.69048816 -45.19735447 35.69048816 -39.09692383 29.91113281 C-34.89540315 27.11011902 -31.44289234 25.90382032 -26.38989258 25.96582031 C-25.45854492 25.97226563 -24.52719727 25.97871094 -23.56762695 25.98535156 C-22.60791992 26.00210938 -21.64821289 26.01886719 -20.65942383 26.03613281 C-19.68038086 26.04515625 -18.70133789 26.05417969 -17.69262695 26.06347656 C-15.28547321 26.08696099 -12.8788264 26.11980441 -10.47192383 26.16113281 C-10.48763428 25.51039795 -10.50334473 24.85966309 -10.51953125 24.18920898 C-10.58187032 21.24243857 -10.62091066 18.29580683 -10.65942383 15.34863281 C-10.68456055 14.32447266 -10.70969727 13.3003125 -10.7355957 12.24511719 C-10.74526367 11.26220703 -10.75493164 10.27929688 -10.76489258 9.26660156 C-10.78060303 8.36063232 -10.79631348 7.45466309 -10.8125 6.52124023 C-10.40510591 3.69810142 -9.69524806 2.88175131 -7.47192383 1.16113281 C-4.86162026 -0.14401897 -2.92322094 0.01974569 0 0 Z " fill="#FDB656" transform="translate(44.471923828125,220.8388671875)"/>
<path d="M0 0 C1.20827957 -0.0112793 2.41655914 -0.02255859 3.66145325 -0.03417969 C5.00265741 -0.0264019 6.34385923 -0.01820918 7.68505859 -0.00964355 C9.09621402 -0.01506341 10.50736378 -0.02218531 11.91850281 -0.03088379 C15.75585877 -0.04915005 19.59278542 -0.04203277 23.43014908 -0.02936745 C27.45157276 -0.01924085 31.47295964 -0.02863365 35.49438477 -0.03491211 C42.25674018 -0.04219624 49.01892108 -0.03258787 55.78125 -0.0135498 C63.57868412 0.00815018 71.37569873 0.00122106 79.17312241 -0.02085543 C85.87736959 -0.039072 92.58149119 -0.04153522 99.28575516 -0.03110075 C103.28515732 -0.02489096 107.2843632 -0.0239589 111.28375244 -0.0372467 C115.05302592 -0.04889344 118.82176594 -0.04062077 122.59098244 -0.01766968 C124.61775118 -0.00994476 126.64456558 -0.02166791 128.67131042 -0.03417969 C143.07025467 0.09777102 155.76233596 5.5365999 166.20849609 15.50793457 C177.56940071 28.50434217 180.68990937 43.10048734 180.54907227 59.99719238 C180.54822382 61.4078113 180.54870537 62.81843153 180.55039978 64.22904968 C180.55125269 68.01965973 180.53374273 71.80997896 180.51267791 75.60052204 C180.49379212 79.57629697 180.49215137 83.5520802 180.48860168 87.52789307 C180.4793159 95.03928367 180.45474962 102.55054167 180.42455322 110.06187415 C180.39090058 118.62061652 180.37449602 127.17936557 180.35946691 135.73815775 C180.32819651 153.32817358 180.2732284 170.91800786 180.20849609 188.50793457 C168.65849609 188.50793457 157.10849609 188.50793457 145.20849609 188.50793457 C145.18867676 184.3641626 145.16885742 180.22039062 145.1484375 175.9510498 C145.08154986 162.26455176 145.0040092 148.5781315 144.92096901 134.89172268 C144.8708791 126.5931577 144.82443579 118.29460242 144.78662109 109.99597168 C144.75364677 102.76162836 144.71378557 95.52736112 144.66570604 88.29310185 C144.64049506 84.46376547 144.61869793 80.63447921 144.60515213 76.80508232 C144.5922826 73.19766153 144.57017595 69.59041308 144.5411129 65.98308754 C144.5277795 64.03427075 144.5241251 62.0853952 144.52079773 60.13653564 C144.58895408 49.66822771 144.58895408 49.66822771 139.83349609 40.69543457 C136.11769615 37.59893462 133.51701152 36.26362834 128.66534424 36.22946167 C127.7595311 36.21829819 126.85371796 36.2071347 125.92045593 36.19563293 C124.93430801 36.19347275 123.9481601 36.19131256 122.93212891 36.18908691 C121.88791275 36.17904129 120.84369659 36.16899567 119.76783752 36.15864563 C116.31577099 36.12775079 112.86378223 36.11076079 109.41162109 36.09387207 C107.01836474 36.07516551 104.62511502 36.05559249 102.23187256 36.03518677 C95.93218897 35.98380556 89.63248398 35.94421178 83.33270264 35.90704346 C75.77437485 35.86000857 68.21615372 35.79838505 60.65791321 35.73919678 C49.17481708 35.65091157 37.69174216 35.58119907 26.20849609 35.50793457 C26.20849609 63.22793457 26.20849609 90.94793457 26.20849609 119.50793457 C14.65849609 119.50793457 3.10849609 119.50793457 -8.79150391 119.50793457 C-8.85921873 104.58289224 -8.91448439 89.65792856 -8.94694042 74.73276901 C-8.96241074 67.8027878 -8.98350327 60.87290878 -9.01782227 53.94299316 C-9.05091203 47.25810588 -9.06834598 40.57334683 -9.07613564 33.88837433 C-9.08168851 31.33502783 -9.09253157 28.7816873 -9.10869408 26.22838593 C-9.13039842 22.65835392 -9.1334737 19.08876388 -9.13208008 15.51867676 C-9.14286591 14.45772293 -9.15365173 13.3967691 -9.1647644 12.30366516 C-9.16064041 11.33053879 -9.15651642 10.35741241 -9.15226746 9.35479736 C-9.15503284 8.51043499 -9.15779821 7.66607262 -9.16064739 6.7961235 C-8.23514959 1.05929238 -5.44435493 0.00780311 0 0 Z " fill="#57545B" transform="translate(161.79150390625,127.4920654296875)"/>
<path d="M0 0 C1.12606167 -0.00256327 1.12606167 -0.00256327 2.27487206 -0.00517833 C4.79151965 -0.0084738 7.30790088 0.00253134 9.82452393 0.01345825 C11.62804661 0.01402235 13.43156975 0.01370583 15.23509216 0.01257324 C20.13349954 0.01199869 25.03180925 0.02376963 29.9301939 0.03772116 C35.04846898 0.05021139 40.16674621 0.05139767 45.28503418 0.05377197 C54.97827285 0.05999176 64.67146648 0.07640934 74.3646853 0.09647095 C85.39962831 0.11881443 96.43457345 0.12981948 107.46953344 0.13986182 C130.17024536 0.16077512 152.87091728 0.1959608 175.57159424 0.24050903 C173.59437816 1.23490292 171.62119331 2.21792814 169.60675049 3.13504028 C162.19501501 6.58406571 157.99502093 11.08133572 154.52862549 18.49832153 C152.19849402 25.17486149 152.74638229 31.15399286 155.63409424 37.55300903 C159.67233111 44.71945757 164.96701742 48.44699102 172.57159424 51.24050903 C172.57159424 51.57050903 172.57159424 51.90050903 172.57159424 52.24050903 C171.83314396 52.24381918 171.09469368 52.24712933 170.33386612 52.25053978 C152.3735216 52.33172693 134.41326324 52.42380529 116.45303726 52.52803612 C107.76763931 52.57817797 99.08225087 52.62462071 90.39678955 52.66238403 C82.82737277 52.69530429 75.25802947 52.73513568 67.68869376 52.78329909 C63.68004147 52.80856377 59.67143793 52.83034513 55.66272736 52.843853 C51.89034277 52.85667366 48.11812537 52.87872804 44.34583282 52.90789223 C42.96073208 52.91696798 41.57560441 52.92265824 40.19047546 52.92472267 C38.30008204 52.92804504 36.40972602 52.9446983 34.51940918 52.96203613 C32.93208166 52.97033227 32.93208166 52.97033227 31.31268692 52.97879601 C28.5096357 53.24642469 26.89855495 53.68015303 24.57159424 55.24050903 C23.20153965 57.47847985 22.05147771 59.60482645 20.93487549 61.96316528 C20.60996628 62.62384506 20.28505707 63.28452484 19.95030212 63.96522522 C18.9167593 66.07244256 17.90003092 68.1872554 16.88409424 70.30300903 C15.85401838 72.42050715 14.82060488 74.53633771 13.78575134 76.65150452 C13.14337898 77.96745636 12.50445784 79.28509943 11.86927795 80.60453796 C9.67918218 85.13292109 9.67918218 85.13292109 8.57159424 86.24050903 C6.39353705 86.33480245 4.21238144 86.35793441 2.0322876 86.35403442 C1.34939163 86.35418045 0.66649567 86.35432648 -0.03709412 86.35447693 C-2.30428191 86.3537778 -4.5713885 86.34598544 -6.83856201 86.33816528 C-8.40654963 86.3363011 -9.97453783 86.3348772 -11.54252625 86.33387756 C-15.67717079 86.33005238 -19.81178042 86.32022209 -23.94641113 86.30917358 C-28.16240975 86.29895948 -32.37841398 86.29437995 -36.59442139 86.28933716 C-44.87243223 86.27859982 -53.15041466 86.2615234 -61.42840576 86.24050903 C-53.02253163 71.49102586 -53.02253163 71.49102586 -49.08856201 64.85769653 C-48.72404938 64.24279358 -48.35953674 63.62789062 -47.98397827 62.99435425 C-46.82101835 61.0339053 -45.65613586 59.07460938 -44.49090576 57.11550903 C-43.8841954 56.09417877 -43.8841954 56.09417877 -43.26522827 55.05221558 C-35.33300298 41.70211905 -27.311559 28.40647604 -19.19549561 15.16726685 C-18.0248824 13.22842861 -16.87886323 11.27451002 -15.75897217 9.30593872 C-15.24383057 8.4052063 -14.72868896 7.50447388 -14.19793701 6.57644653 C-13.5362854 5.38994507 -13.5362854 5.38994507 -12.86126709 4.17947388 C-9.55226055 -0.29831278 -5.1743452 -0.04303888 0 0 Z " fill="#FDB656" transform="translate(265.42840576171875,41.759490966796875)"/>
<path d="M0 0 C1.09631241 -0.00540298 2.19262482 -0.01080597 3.32215881 -0.01637268 C6.95007226 -0.02889131 10.57719701 -0.01234719 14.20507812 0.00561523 C16.72326703 0.00546032 19.24145617 0.00397261 21.75964355 0.00120544 C27.03890627 -0.00017996 32.31796412 0.01197023 37.59716797 0.03515625 C43.69800577 0.06176563 49.79846325 0.06351287 55.8993392 0.05176789 C61.77161146 0.04098318 67.64374491 0.04728356 73.51600647 0.06132317 C76.01351013 0.0658448 78.51102497 0.06616828 81.00852966 0.06225777 C84.49680644 0.05935285 87.98445835 0.07581907 91.47265625 0.09765625 C92.50862442 0.0931546 93.54459259 0.08865295 94.61195374 0.08401489 C96.03772987 0.09887184 96.03772987 0.09887184 97.49230957 0.11402893 C98.72893719 0.11767377 98.72893719 0.11767377 99.99054718 0.12139225 C102.79230078 0.5958614 104.18045918 1.56666557 106.23632812 3.50170898 C106.7442627 6.02159119 106.7442627 6.02159119 106.75390625 9.06787109 C106.76651489 10.21013657 106.77912354 11.35240204 106.79211426 12.52928162 C106.78401733 13.76670609 106.77592041 15.00413055 106.76757812 16.27905273 C106.77331848 18.19434532 106.77331848 18.19434532 106.7791748 20.14833069 C106.78507683 22.85787224 106.77649815 25.56688692 106.7578125 28.27636719 C106.73522649 31.71589329 106.74800849 35.15415673 106.77210236 38.59363461 C106.7902379 41.90553497 106.7774379 45.21711674 106.76757812 48.52905273 C106.77567505 49.74825912 106.78377197 50.96746552 106.79211426 52.22361755 C106.6338805 66.91464872 101.48642604 79.10109969 91.42382812 89.81420898 C78.10800073 102.33620821 62.68530398 104.62728714 45.15429688 104.70483398 C43.62848747 104.71338409 43.62848747 104.71338409 42.07185364 104.72210693 C39.93992126 104.73148531 37.80797486 104.73806209 35.67602539 104.74194336 C32.41527602 104.75173466 29.15513552 104.78285938 25.89453125 104.81420898 C23.81445683 104.82073239 21.73437796 104.82598545 19.65429688 104.82983398 C18.19796089 104.84835419 18.19796089 104.84835419 16.71220398 104.86724854 C11.76928375 104.85091709 8.19861908 104.82782677 4.23632812 101.50170898 C2.88066708 98.79038689 3.07401728 96.61862901 3.03100586 93.58325195 C3.01106064 92.34211639 2.99111542 91.10098083 2.9705658 89.82223511 C2.95358152 88.46279018 2.93670271 87.10334394 2.91992188 85.74389648 C2.89935231 84.35669331 2.87835584 82.96949641 2.85694885 81.58230591 C2.80172832 77.92943393 2.75231902 74.27650539 2.70410156 70.62353516 C2.65388637 66.89667725 2.59820041 63.16990158 2.54296875 59.44311523 C2.43538742 52.12938278 2.33394244 44.81558198 2.23632812 37.50170898 C-2.84965814 36.10390019 -7.98116882 36.22581586 -13.23242188 36.07592773 C-16.76367188 35.50170898 -16.76367188 35.50170898 -19.29492188 34.02124023 C-22.2156779 29.01090077 -19.97896678 23.1957592 -18.71289062 17.82592773 C-18.29960552 16.27839013 -17.87900466 14.73278805 -17.45117188 13.18920898 C-17.15049805 12.01261719 -17.15049805 12.01261719 -16.84375 10.81225586 C-16.53147461 9.67433594 -16.53147461 9.67433594 -16.21289062 8.51342773 C-15.93964966 7.49962036 -15.93964966 7.49962036 -15.66088867 6.46533203 C-12.36195203 -0.75462644 -7.05277176 -0.0658186 0 0 Z " fill="#57555B" transform="translate(405.763671875,297.498291015625)"/>
<path d="M0 0 C3.68734775 -0.08776185 7.37442347 -0.14064603 11.0625 -0.1875 C12.10083984 -0.21263672 13.13917969 -0.23777344 14.20898438 -0.26367188 C21.19015082 -0.33015917 26.5049155 -0.06342068 31.9609375 4.71875 C32.42757812 5.3065625 32.89421875 5.894375 33.375 6.5 C33.85710937 7.0878125 34.33921875 7.675625 34.8359375 8.28125 C36.87853253 11.29716213 37.12474128 13.91444115 37.12304783 17.44527721 C37.12503888 18.3604166 37.12702993 19.275556 37.12908131 20.21842688 C37.12471205 21.72862535 37.12471205 21.72862535 37.12025452 23.26933289 C37.12110894 24.33770333 37.12196337 25.40607377 37.12284368 26.50681907 C37.12449727 30.10441636 37.11897904 33.70196752 37.11352539 37.29956055 C37.11324347 39.87139891 37.11340135 42.44323736 37.1139679 45.01507568 C37.11449269 50.56116404 37.11135049 56.10724064 37.10573006 61.65332603 C37.09760909 69.67207117 37.09499922 77.69081062 37.09374207 85.70955942 C37.09155249 98.71889244 37.08489494 111.7282192 37.07543945 124.73754883 C37.06626291 137.37622038 37.05918326 150.01489024 37.05493164 162.65356445 C37.05466892 163.43238213 37.05440619 164.2111998 37.05413551 165.01361801 C37.05283049 168.9206487 37.05156678 172.82767939 37.05032361 176.7347101 C37.03995392 209.15647815 37.02206328 241.57823779 37 274 C22.81 274 8.62 274 -6 274 C-6 273.67 -6 273.34 -6 273 C1.26 273 8.52 273 16 273 C15.67 230.43 15.34 187.86 15 144 C14.67 144.33 14.34 144.66 14 145 C10.1415198 145.52615639 8.51498899 145.37792291 5.33618164 143.04516602 C2.16986428 138.9179347 2.29082126 135.96755941 2.37109375 130.90234375 C2.36868179 130.03106339 2.36626984 129.15978302 2.36378479 128.26210022 C2.36476174 126.42558222 2.37811922 124.58903422 2.40307617 122.75268555 C2.43743482 119.94283082 2.42371647 117.13611393 2.40429688 114.32617188 C2.41119433 112.53904913 2.42086582 110.75193448 2.43359375 108.96484375 C2.42863388 108.12622299 2.42367401 107.28760223 2.41856384 106.42356873 C2.49166407 102.80284103 2.64889986 100.58546464 4.53540039 97.43969727 C8.09882778 95.35811913 10.89866191 95.90404409 15 96 C15.11605943 85.31642695 15.20479935 74.63300488 15.25906086 63.94892883 C15.28510922 58.98737251 15.32042003 54.02624879 15.37719727 49.06494141 C15.43168721 44.27329277 15.46145633 39.48205917 15.47438622 34.69012451 C15.48359568 32.86571727 15.50157984 31.0413317 15.52865028 29.21710205 C15.56516753 26.6533574 15.56993607 24.09130831 15.56762695 21.52734375 C15.58560333 20.77999466 15.60357971 20.03264557 15.62210083 19.26264954 C15.56637993 13.51188518 13.7048638 9.40772129 10 5 C7.04928156 3.06530151 7.04928156 3.06530151 4 2 C2.66144026 1.34389022 1.32699595 0.67919362 0 0 Z " fill="#F98143" transform="translate(467,25)"/>
<path d="M0 0 C3.58305992 -0.11627503 7.16563417 -0.1872736 10.75 -0.25 C11.76578125 -0.28351563 12.7815625 -0.31703125 13.828125 -0.3515625 C14.8078125 -0.36445313 15.7875 -0.37734375 16.796875 -0.390625 C17.69760742 -0.41157227 18.59833984 -0.43251953 19.52636719 -0.45410156 C22.91775905 0.16847926 23.92472423 1.2612736 26 4 C27.04201862 6.45622532 27.90614849 8.7838946 28.69921875 11.31640625 C28.93856644 12.04576889 29.17791412 12.77513153 29.42451477 13.52659607 C30.19025406 15.8683656 30.93930205 18.2150744 31.6875 20.5625 C32.17008974 22.05049854 32.65380633 23.53813211 33.13867188 25.02539062 C33.89423685 27.34502263 34.64838594 29.665057 35.39767456 31.98672485 C39.17584272 43.68714243 43.09914041 55.34005447 47 67 C54.2418697 67.13493527 61.48381274 67.26509969 68.7258625 67.39001846 C72.2460531 67.45075458 75.76621836 67.51251645 79.28634644 67.57678223 C93.99596592 67.843854 108.69385616 68.0634029 123.40625 67.890625 C124.49844345 67.87999023 125.5906369 67.86935547 126.71592712 67.85839844 C131.80871981 67.8072635 136.898837 67.73098742 141.99047852 67.61132812 C143.79702526 67.5888175 145.60358441 67.56727286 147.41015625 67.546875 C148.21565918 67.51789124 149.02116211 67.48890747 149.85107422 67.45904541 C153.78279454 67.44017366 155.7733149 67.83744426 158.99975586 70.15112305 C161.31131752 73.44339853 161.62096672 75.05192685 161.59375 79.03515625 C161.59117187 80.17404297 161.58859375 81.31292969 161.5859375 82.48632812 C161.55757812 83.66646484 161.52921875 84.84660156 161.5 86.0625 C161.50257813 87.24650391 161.50515625 88.43050781 161.5078125 89.65039062 C161.39630811 99.49065297 161.39630811 99.49065297 158 103 C155.64745045 103.49219131 155.64745045 103.49219131 152.81782532 103.48101807 C151.74510376 103.48651672 150.6723822 103.49201538 149.56715393 103.49768066 C148.39039597 103.48329956 147.213638 103.46891846 146.0012207 103.45410156 C144.76207916 103.45468567 143.52293762 103.45526978 142.24624634 103.45587158 C138.84739191 103.45356034 135.44950634 103.43348554 132.05082345 103.40557575 C128.49942132 103.38058983 124.94800662 103.37822234 121.39653015 103.37347412 C114.67101315 103.361036 107.94575588 103.32820334 101.22035331 103.28807616 C93.56387603 103.24338425 85.90738643 103.22137795 78.25081122 103.20129442 C62.50039033 103.15947123 46.75022864 103.08910323 31 103 C31.33 102.34 31.66 101.68 32 101 C32.66 101 33.32 101 34 101 C34.33640975 95.12226224 33.18681287 90.55256669 31.30957031 85.00708008 C31.02338837 84.13466171 30.73720642 83.26224335 30.44235229 82.36338806 C29.4981912 79.49514516 28.53878844 76.6322854 27.578125 73.76953125 C26.91452933 71.77148566 26.25151298 69.77324758 25.58905029 67.77482605 C24.20039294 63.59404333 22.80404089 59.41593013 21.40234375 55.23950195 C19.60703783 49.88790172 17.83214163 44.52978931 16.06306839 39.16946888 C14.69901681 35.04451577 13.32368509 30.92339227 11.94496918 26.80331993 C11.28591119 24.82896592 10.63049425 22.85339261 9.97879791 20.87659645 C9.06671086 18.11529609 8.13942807 15.35956538 7.20800781 12.60473633 C6.94186676 11.78854828 6.67572571 10.97236023 6.40151978 10.13143921 C4.93217879 5.84369556 3.62667479 2.94689622 0 0 Z " fill="#F98043" transform="translate(198,247)"/>
<path d="M0 0 C10.56 0 21.12 0 32 0 C32 39.27 32 78.54 32 119 C20.45 119 8.9 119 -3 119 C-3.06771483 104.07495767 -3.12298048 89.14999399 -3.15543652 74.22483444 C-3.17090683 67.29485323 -3.19199936 60.36497421 -3.22631836 53.43505859 C-3.25940813 46.75017131 -3.27684208 40.06541226 -3.28463173 33.38043976 C-3.2901846 30.82709326 -3.30102767 28.27375273 -3.31719017 25.72045135 C-3.33889452 22.15041935 -3.34196979 18.58082931 -3.34057617 15.01074219 C-3.351362 13.94978836 -3.36214783 12.88883453 -3.3732605 11.79573059 C-3.36913651 10.82260422 -3.36501251 9.84947784 -3.36076355 8.84686279 C-3.36352893 8.00250042 -3.36629431 7.15813805 -3.36914349 6.28818893 C-3 4 -3 4 0 0 Z " fill="#84818B" transform="translate(156,128)"/>
<path d="M0 0 C4.10391862 -0.1177595 8.20739356 -0.18776774 12.3125 -0.25 C13.46041016 -0.28351563 14.60832031 -0.31703125 15.79101562 -0.3515625 C30.06535602 -0.5133114 42.67950809 5.14862136 53 15 C64.33282293 27.9642833 67.48212144 42.53850719 67.34057617 59.39746094 C67.3397277 60.79822776 67.34020932 62.19899591 67.34190369 63.59976196 C67.34275651 67.36351424 67.32524797 71.12697356 67.30418181 74.89065838 C67.28529457 78.83840597 67.28365516 82.78616195 67.28010559 86.73394775 C67.27082023 94.19221487 67.24625453 101.65034841 67.21605712 109.10855699 C67.18240316 117.60684088 67.16599959 126.1051315 67.15097082 134.60346556 C67.11970139 152.0690562 67.06639822 169.53450881 67 187 C60.07 187 53.14 187 46 187 C45.99413376 185.24766052 45.98826752 183.49532104 45.98222351 181.68988037 C45.92493935 165.15257851 45.85232286 148.61541042 45.76428509 132.07824326 C45.71941709 123.57691441 45.67998193 115.07562661 45.65356445 106.57421875 C45.63051124 99.1599814 45.59703217 91.74587495 45.55129844 84.33174157 C45.52746444 80.41000222 45.5086716 76.48839172 45.50238609 72.56658173 C45.49629038 68.8663363 45.47613129 65.16642011 45.44572449 61.46629715 C45.43289982 59.47908626 45.43450185 57.49179816 45.4367218 55.50454712 C45.26770021 39.1754324 40.7224423 26.17093566 29.41796875 14.22265625 C21.47763023 6.9237021 10.76491116 1.93607923 0 1 C0 0.67 0 0.34 0 0 Z " fill="#4B494F" transform="translate(275,128)"/>
<path d="M0 0 C0.82876144 -0.00807175 1.65752289 -0.01614349 2.51139832 -0.02445984 C4.2674246 -0.03830096 6.02347779 -0.04902299 7.77954102 -0.05688477 C10.45966884 -0.07408526 13.13855903 -0.11796801 15.81835938 -0.16210938 C17.52473051 -0.17223754 19.23111214 -0.18075326 20.9375 -0.1875 C21.73662308 -0.20500809 22.53574615 -0.22251617 23.35908508 -0.24055481 C27.28487569 -0.2253216 29.22883846 -0.03244209 32.65112305 2.07739258 C37.58803383 7.36689716 35.97142409 16.55878766 36.01806641 23.42529297 C36.03463602 25.2138367 36.06193954 27.00231394 36.10009766 28.79052734 C36.15492461 31.37502223 36.17674569 33.95797035 36.19140625 36.54296875 C36.21407562 37.33895477 36.236745 38.1349408 36.26010132 38.95504761 C36.24497102 42.94051663 35.93639558 44.82771665 33.70385742 48.24243164 C29.56438261 50.96379928 26.42619089 50.94414246 21.5703125 50.8671875 C20.26339195 50.87080544 20.26339195 50.87080544 18.93006897 50.87449646 C17.09355097 50.87351951 15.25700297 50.86016203 13.4206543 50.83520508 C10.61079957 50.80084643 7.80408268 50.81456478 4.99414062 50.83398438 C3.20701788 50.82708692 1.41990323 50.81741543 -0.3671875 50.8046875 C-1.20580826 50.80964737 -2.04442902 50.81460724 -2.90846252 50.81971741 C-8.70427259 50.70270362 -8.70427259 50.70270362 -11.82983398 48.39038086 C-14.771484 44.1760716 -14.5234021 39.96902052 -14.5703125 35.02734375 C-14.57838425 34.2221933 -14.58645599 33.41704285 -14.59477234 32.5874939 C-14.60859425 30.88452293 -14.61932487 29.18152448 -14.62719727 27.47851562 C-14.6444226 24.87967331 -14.68832512 22.28209955 -14.73242188 19.68359375 C-14.74254839 18.02735308 -14.75106462 16.37110163 -14.7578125 14.71484375 C-14.77532059 13.94073151 -14.79282867 13.16661926 -14.81086731 12.36904907 C-14.79581314 8.60903011 -14.47920197 6.46792727 -12.43041992 3.27099609 C-8.62065118 -0.4195373 -5.04984338 0.04632768 0 0 Z " fill="#FA8143" transform="translate(151.33203125,281.76171875)"/>
<path d="M0 0 C6.05259984 3.73837049 10.32914582 9.58747237 12.2578125 16.39453125 C13.31813867 24.79374415 12.22876548 31.45440849 7.2578125 38.39453125 C1.60168494 44.66596976 -4.48996091 48.42539594 -13.0546875 48.89453125 C-20.10150547 48.66253724 -25.58679019 46.23498307 -30.81640625 41.52734375 C-37.00058172 34.86347332 -39.41427439 28.56018009 -39.15234375 19.4609375 C-38.26434564 12.82209448 -35.28229483 7.47271677 -30.3671875 2.95703125 C-21.19086185 -3.97924916 -10.44889394 -4.75407875 0 0 Z " fill="#83808A" transform="translate(166.7421875,412.60546875)"/>
<path d="M0 0 C5.03348483 3.13832128 10.37175039 8.94215052 11.8671875 14.76953125 C13.10963603 23.08532537 12.76747481 30.14517499 8.26171875 37.41015625 C3.48026508 43.07240401 -2.81551493 47.69178021 -10.28125 48.78125 C-18.47602386 48.98702719 -24.65271775 47.08793281 -30.8125 41.54296875 C-36.64804222 35.2547744 -39.48493974 29.03565898 -39.2109375 20.38671875 C-38.04266358 13.02948962 -34.57798943 6.38820665 -28.67578125 1.78515625 C-19.86556013 -4.16039175 -9.615185 -4.31986573 0 0 Z " fill="#86828A" transform="translate(456.73828125,45.58984375)"/>
<path d="M0 0 C7.46062255 3.79575533 10.93605966 7.82804867 14.48046875 15.421875 C16.64261824 22.19713046 16.21549941 28.94797918 13.41796875 35.48828125 C9.48972888 41.92713173 4.09928674 46.3977853 -2.875 49.1875 C-11.81666874 50.75621381 -17.67349072 49.78908038 -25.4375 44.8125 C-28.375 42.25 -28.375 42.25 -30.4375 39.8125 C-31.2728125 38.8534375 -31.2728125 38.8534375 -32.125 37.875 C-35.9375658 31.88382517 -35.93165576 25.69979592 -35.4375 18.8125 C-33.45670089 10.06397058 -27.97320833 5.02068394 -20.875 0 C-14.29611279 -2.27270649 -6.62606799 -2.23422331 0 0 Z " fill="#83808A" transform="translate(334.4375,411.1875)"/>
<path d="M0 0 C7.46062255 3.79575533 10.93605966 7.82804867 14.48046875 15.421875 C16.64261824 22.19713046 16.21549941 28.94797918 13.41796875 35.48828125 C9.48972888 41.92713173 4.09928674 46.3977853 -2.875 49.1875 C-11.81666874 50.75621381 -17.67349072 49.78908038 -25.4375 44.8125 C-28.375 42.25 -28.375 42.25 -30.4375 39.8125 C-31.2728125 38.8534375 -31.2728125 38.8534375 -32.125 37.875 C-35.9375658 31.88382517 -35.93165576 25.69979592 -35.4375 18.8125 C-33.45670089 10.06397058 -27.97320833 5.02068394 -20.875 0 C-14.29611279 -2.27270649 -6.62606799 -2.23422331 0 0 Z " fill="#83808A" transform="translate(78.4375,411.1875)"/>
<path d="M0 0 C5.83346479 3.04541177 11.41062176 7.88720795 13.68359375 14.234375 C15.36812584 22.64212808 15.09943973 30.82045539 10.7421875 38.31640625 C6.14505301 44.3459812 -0.87161336 48.74258519 -8.40625 49.7890625 C-16.35920192 50.2135178 -22.73478075 48.11478334 -28.7265625 42.79296875 C-35.36782679 35.54646609 -36.57383954 28.87398373 -36.34375 19.171875 C-35.49858745 12.43874666 -32.77748373 7.84636405 -27.578125 3.53125 C-19.3294542 -2.18351539 -9.57518118 -3.86309034 0 0 Z " fill="#84818B" transform="translate(249.875,411.5625)"/>
<path d="M0 0 C1.14491409 -0.00960754 2.28982819 -0.01921509 3.46943665 -0.02911377 C4.712108 -0.03336365 5.95477936 -0.03761353 7.23510742 -0.04199219 C9.14413094 -0.0505423 9.14413094 -0.0505423 11.09172058 -0.05926514 C13.78937356 -0.06872649 16.48691498 -0.07561733 19.18457031 -0.07910156 C22.63464051 -0.08457899 26.08431458 -0.10859039 29.53426075 -0.13707352 C32.83034623 -0.16022687 36.12645201 -0.16215173 39.42260742 -0.16699219 C41.27750542 -0.18551239 41.27750542 -0.18551239 43.1698761 -0.20440674 C44.32424667 -0.20140564 45.47861725 -0.19840454 46.66796875 -0.1953125 C47.68119705 -0.19895813 48.69442535 -0.20260376 49.73835754 -0.20635986 C53.00182066 0.22353969 54.88373621 1.23140932 57.52807617 3.16113281 C60.95995289 10.02488624 58.52807617 18.48722319 58.52807617 26.16113281 C35.75807617 26.16113281 12.98807617 26.16113281 -10.47192383 26.16113281 C-10.47192383 18.90113281 -10.47192383 11.64113281 -10.47192383 4.16113281 C-6.60077957 0.28998855 -5.28756809 0.03571631 0 0 Z " fill="#56545B" transform="translate(44.471923828125,220.8388671875)"/>
<path d="M0 0 C0.66 -0.02191406 1.32 -0.04382813 2 -0.06640625 C5.21379202 0.94418069 6.20883159 2.75632851 8 5.5625 C8.37892367 8.49653085 8.53890879 11.04235839 8.49609375 13.96875 C8.49754898 14.77107056 8.49900421 15.57339111 8.50050354 16.40002441 C8.49884848 18.09110151 8.48733122 19.78219428 8.46655273 21.47314453 C8.43759127 24.05436505 8.44595241 26.63353045 8.45898438 29.21484375 C8.4527464 30.8619891 8.444355 32.50912799 8.43359375 34.15625 C8.43652939 34.92408813 8.43946503 35.69192627 8.44248962 36.48303223 C8.3412297 42.26485753 7.05146831 45.51103169 3 49.5625 C0.1875 50 0.1875 50 -3 49.5625 C-5.70798911 47.5683562 -7.67022991 45.96918064 -8.46194458 42.5920105 C-8.64523204 40.20226343 -8.66688562 37.86135197 -8.62890625 35.46484375 C-8.63131821 34.59356339 -8.63373016 33.72228302 -8.63621521 32.82460022 C-8.63523826 30.98808222 -8.62188078 29.15153422 -8.59692383 27.31518555 C-8.56256518 24.50533082 -8.57628353 21.69861393 -8.59570312 18.88867188 C-8.58880567 17.10154913 -8.57913418 15.31443448 -8.56640625 13.52734375 C-8.57136612 12.68872299 -8.57632599 11.85010223 -8.58143616 10.98606873 C-8.46413302 5.17592667 -8.46413302 5.17592667 -6.08959961 2.03759766 C-3.8397788 0.44939607 -2.72755392 -0.00532725 0 0 Z " fill="#898289" transform="translate(478,120.4375)"/>
<path d="M0 0 C2.67431489 1.81163267 2.95920359 2.87761077 4 6 C4.120773 8.67274304 4.1881012 11.31862757 4.203125 13.9921875 C4.20882507 14.77514191 4.21452515 15.55809631 4.22039795 16.36477661 C4.22983845 18.02067721 4.23637816 19.67659651 4.24023438 21.33251953 C4.24993752 23.85873366 4.28096782 26.38413308 4.3125 28.91015625 C4.31903075 30.52082851 4.32428094 32.13150658 4.328125 33.7421875 C4.3404718 34.49442596 4.3528186 35.24666443 4.36553955 36.021698 C4.34121734 41.78141024 3.03050845 44.96949155 -1 49 C-3.8125 49.4375 -3.8125 49.4375 -7 49 C-9.70798911 47.0058562 -11.67022991 45.40668064 -12.46194458 42.0295105 C-12.64523204 39.63976343 -12.66688562 37.29885197 -12.62890625 34.90234375 C-12.63131821 34.03106339 -12.63373016 33.15978302 -12.63621521 32.26210022 C-12.63523826 30.42558222 -12.62188078 28.58903422 -12.59692383 26.75268555 C-12.56256518 23.94283082 -12.57628353 21.13611393 -12.59570312 18.32617188 C-12.58880567 16.53904913 -12.57913418 14.75193448 -12.56640625 12.96484375 C-12.57136612 12.12622299 -12.57632599 11.28760223 -12.58143616 10.42356873 C-12.46416984 4.61525071 -12.46416984 4.61525071 -10.09179688 1.47070312 C-6.552487 -1.01771923 -4.2499084 -0.47221204 0 0 Z " fill="#5C585B" transform="translate(81,266)"/>
<path d="M0 0 C3.18466082 0.64402232 4.15382615 1.82842976 6.10546875 4.42578125 C6.71637363 7.41028107 6.68984505 10.35222694 6.671875 13.390625 C6.68117287 14.69611046 6.68117287 14.69611046 6.69065857 16.02796936 C6.69775332 17.86620975 6.69458869 19.70451443 6.68188477 21.54272461 C6.66803105 24.35065443 6.70207695 27.1552429 6.74023438 29.96289062 C6.74118574 31.7513029 6.73932583 33.53971933 6.734375 35.328125 C6.74763321 36.16472153 6.76089142 37.00131805 6.77455139 37.86326599 C6.705647 42.19300331 6.49357585 43.9243535 3.75756836 47.45922852 C1.10546875 49.42578125 1.10546875 49.42578125 -1.95703125 49.98828125 C-5.53118302 49.30386921 -6.69456253 48.27759256 -8.89453125 45.42578125 C-10.12640276 41.73016671 -10.07601825 38.284184 -10.09765625 34.43359375 C-10.10335632 33.65063934 -10.1090564 32.86768494 -10.1149292 32.06100464 C-10.1243697 30.40510404 -10.13090941 28.74918474 -10.13476562 27.09326172 C-10.14446877 24.56704759 -10.17549907 22.04164817 -10.20703125 19.515625 C-10.213562 17.90495274 -10.21881219 16.29427467 -10.22265625 14.68359375 C-10.23500305 13.93135529 -10.24734985 13.17911682 -10.2600708 12.40408325 C-10.22508806 4.11986404 -8.12055698 0.44183143 0 0 Z " fill="#5C585B" transform="translate(52.89453125,265.57421875)"/>
<path d="M0 0 C2.18334961 1.45507812 2.18334961 1.45507812 4 4 C4.60500486 7.07086464 4.5843375 10.09649167 4.56640625 13.21875 C4.57570412 14.56108704 4.57570412 14.56108704 4.58518982 15.93054199 C4.59228467 17.8200573 4.58911979 19.70963517 4.57641602 21.59912109 C4.56254592 24.4904269 4.5966286 27.37849861 4.63476562 30.26953125 C4.63571681 32.10677163 4.63385806 33.94401605 4.62890625 35.78125 C4.64216446 36.64488159 4.65542267 37.50851318 4.66908264 38.39831543 C4.57660323 44.35772013 4.57660323 44.35772013 1.68725586 47.57617188 C-2.00288052 49.53137087 -4.04413546 49.17210801 -8 48 C-9.99787606 46.22024786 -10.88254189 44.78137882 -11.28244019 42.12109375 C-11.41492803 39.7422304 -11.44190296 37.38256343 -11.43359375 35 C-11.4388356 34.12730469 -11.44407745 33.25460937 -11.44947815 32.35546875 C-11.45589266 30.51303164 -11.45456873 28.67055355 -11.44604492 26.828125 C-11.43752923 24.0096756 -11.46631205 21.19324951 -11.49804688 18.375 C-11.49965888 16.58333394 -11.49908137 14.79166429 -11.49609375 13 C-11.50732773 12.15824219 -11.51856171 11.31648438 -11.53013611 10.44921875 C-11.48469741 6.63422189 -11.4538611 4.6339259 -9.18774414 1.46875 C-5.96977757 -0.69164358 -3.7836884 -0.54052691 0 0 Z " fill="#58555B" transform="translate(29,266)"/>
<path d="M0 0 C3.06303578 -0.08115993 6.12390815 -0.14057409 9.1875 -0.1875 C10.48397461 -0.22520508 10.48397461 -0.22520508 11.80664062 -0.26367188 C16.68835222 -0.3197835 20.067322 -0.25490183 24 3 C25.2263757 5.45275141 25.11415314 7.0505781 25.09765625 9.7890625 C25.09515869 10.63678223 25.09266113 11.48450195 25.09008789 12.35791016 C25.08098389 13.4360498 25.07187988 14.51418945 25.0625 15.625 C25.041875 19.04875 25.02125 22.4725 25 26 C18.07 26 11.14 26 4 26 C3.6875 15.6875 3.6875 15.6875 3.61206055 12.44799805 C3.56239136 11.18016479 3.56239136 11.18016479 3.51171875 9.88671875 C3.48553467 9.02264404 3.45935059 8.15856934 3.43237305 7.26831055 C2.9182328 4.57103384 1.99827347 3.79621954 0 2 C0 1.34 0 0.68 0 0 Z " fill="#4B494F" transform="translate(78,221)"/>
<path d="M0 0 C5.94 0 11.88 0 18 0 C18 5.94 18 11.88 18 18 C12.06 18 6.12 18 0 18 C0 12.06 0 6.12 0 0 Z " fill="#FEB756" transform="translate(153,298)"/>
<path d="M0 0 C0.66 -0.02191406 1.32 -0.04382813 2 -0.06640625 C5.19722018 0.93896963 6.26202312 2.76728554 8 5.5625 C9.05175927 11.42333786 9.12606794 16.80715881 5.875 21.875 C2.4870767 23.86356368 0.85742989 24.30115679 -3 23.5625 C-5.30275556 21.6954009 -6.67823871 20.20602259 -8 17.5625 C-8.17431846 15.44210174 -8.26709071 13.31456692 -8.3125 11.1875 C-8.34988281 10.04539062 -8.38726562 8.90328125 -8.42578125 7.7265625 C-8 4.5625 -8 4.5625 -6.23046875 2.18359375 C-3.89249804 0.4843681 -2.84695628 -0.00556046 0 0 Z " fill="#4D4B51" transform="translate(239,423.4375)"/>
<path d="M0 0 C3.7994707 1.19612966 4.50735167 1.65418035 6.375 5.0625 C6.80859375 8.59375 6.80859375 8.59375 6.8125 12.5625 C6.83183594 13.8721875 6.85117188 15.181875 6.87109375 16.53125 C6.375 20.0625 6.375 20.0625 4.56640625 22.5 C1.36292002 24.78412565 -0.78958822 24.61041597 -4.625 24.0625 C-6.80859375 22.49609375 -6.80859375 22.49609375 -8.625 20.0625 C-9.19140625 16.56640625 -9.19140625 16.56640625 -9.1875 12.625 C-9.20941406 11.32691406 -9.23132813 10.02882813 -9.25390625 8.69140625 C-8.27843529 3.06275702 -5.81782971 0.10030741 0 0 Z " fill="#4C4A50" transform="translate(154.625,422.9375)"/>
<path d="M0 0 C3.87360382 1.10674395 5.08227502 1.84395901 7.5 5 C8.55795285 11.12153408 8.72610174 17.05266194 5.375 22.375 C1.98771221 24.28955397 0.32336376 24.73213349 -3.5 24 C-5.65234375 22.46484375 -5.65234375 22.46484375 -7.5 20 C-7.90100915 17.16934716 -8.06122899 14.81653341 -8 12 C-8.01546875 11.2884375 -8.0309375 10.576875 -8.046875 9.84375 C-8.02093108 6.3672645 -7.74710814 4.34083881 -5.6875 1.5 C-3.5 0 -3.5 0 0 0 Z " fill="#4C4A50" transform="translate(324.5,423)"/>
<path d="M0 0 C3.87360382 1.10674395 5.08227502 1.84395901 7.5 5 C8.55795285 11.12153408 8.72610174 17.05266194 5.375 22.375 C1.98771221 24.28955397 0.32336376 24.73213349 -3.5 24 C-5.65234375 22.46484375 -5.65234375 22.46484375 -7.5 20 C-7.90100915 17.16934716 -8.06122899 14.81653341 -8 12 C-8.01546875 11.2884375 -8.0309375 10.576875 -8.046875 9.84375 C-8.02093108 6.3672645 -7.74710814 4.34083881 -5.6875 1.5 C-3.5 0 -3.5 0 0 0 Z " fill="#4C4A50" transform="translate(68.5,423)"/>
<path d="M0 0 C4.11289267 0.85685264 5.59686932 2.20235933 8 5.625 C8.06944397 9.58330645 7.5699479 11.77007816 5.375 15.0625 C2.0382229 17.25774809 -0.08548544 17.18421637 -4 16.625 C-6.4375 15.0625 -6.4375 15.0625 -8 12.625 C-8.5625 9.1875 -8.5625 9.1875 -8 5.625 C-5.55401113 2.24378009 -4.10703441 0.85563217 0 0 Z " fill="#060506" transform="translate(444,59.375)"/>
</svg>
